<svg width="48" height="49" viewBox="0 0 48 49" fill="none" xmlns="http://www.w3.org/2000/svg">
<path fill-rule="evenodd" clip-rule="evenodd" d="M40.5984 18.9C40.5984 19.2866 40.285 19.6 39.8984 19.6H37.7984V42H39.8984C40.285 42 40.5984 42.3134 40.5984 42.7V45.5C40.5962 47.432 39.0304 48.9977 37.0984 49H4.89844C2.96644 48.9977 1.40071 47.432 1.39844 45.5V42.7C1.39844 42.3134 1.71186 42 2.09844 42H4.19844V19.6H2.09844C1.71186 19.6 1.39844 19.2866 1.39844 18.9V13.3C1.40229 9.82223 4.22066 7.00385 7.69844 7H34.2984C37.7762 7.00385 40.5946 9.82223 40.5984 13.3V18.9ZM39.1984 45.5V43.4H2.79844V45.5C2.79844 46.6598 3.73862 47.6 4.89844 47.6H37.0984C38.2582 47.6 39.1984 46.6598 39.1984 45.5ZM16.0984 25.9V23.8H14.6984C14.3119 23.8 13.9984 23.4866 13.9984 23.1V19.6H5.59844V42H19.5984C16.1207 41.9962 13.3023 39.1778 13.2984 35.7V28.7C13.2984 28.3134 13.6119 28 13.9984 28H27.9984C28.385 28 28.6984 28.3134 28.6984 28.7V29.4H30.0984C31.6448 29.4 32.8984 30.6536 32.8984 32.2C32.8984 33.7464 31.6448 35 30.0984 35H28.6984V35.7C28.6946 39.1778 25.8762 41.9962 22.3984 42H36.3984V19.6H27.9984V23.1C27.9984 23.4866 27.685 23.8 27.2984 23.8H26.5984V25.9C26.5984 26.2866 26.285 26.6 25.8984 26.6H23.0984C22.7119 26.6 22.3984 26.2866 22.3984 25.9V23.8H20.2984V25.9C20.2984 26.2866 19.985 26.6 19.5984 26.6H16.7984C16.4119 26.6 16.0984 26.2866 16.0984 25.9ZM15.3984 19.6V22.4H26.5984V19.6H15.3984ZM25.1984 25.2V23.8H23.7984V25.2H25.1984ZM18.8984 25.2V23.8H17.4984V25.2H18.8984ZM14.6984 35.7C14.7019 38.4047 16.8937 40.5965 19.5984 40.6H22.3984C25.1031 40.5965 27.2949 38.4047 27.2984 35.7V29.4H14.6984V35.7ZM28.6984 30.8V33.6H30.0984C30.8717 33.6 31.4984 32.9732 31.4984 32.2C31.4984 31.4268 30.8717 30.8 30.0984 30.8H28.6984ZM2.79844 13.3V18.2H39.1984V13.3C39.1949 10.5953 37.0031 8.4035 34.2984 8.4H7.69844C4.99372 8.4035 2.80194 10.5953 2.79844 13.3ZM12.5984 9.8H29.3984C29.785 9.8 30.0984 10.1134 30.0984 10.5V16.1C30.0984 16.4866 29.785 16.8 29.3984 16.8H12.5984C12.2119 16.8 11.8984 16.4866 11.8984 16.1V10.5C11.8984 10.1134 12.2119 9.8 12.5984 9.8ZM13.2984 15.4H28.6984V11.2H13.2984V15.4Z" fill="#8A6048"/>
</svg>
