<svg width="49" height="49" viewBox="0 0 49 49" fill="none" xmlns="http://www.w3.org/2000/svg">
<g clip-path="url(#clip0_1500_4558)">
<path d="M39.7623 24.4977H34.2248V15.7959C34.2248 15.1665 33.9748 14.5629 33.5297 14.1178C33.0847 13.6728 32.481 13.4227 31.8516 13.4227H25.4827C25.2886 11.2594 24.292 9.24701 22.689 7.7814C21.086 6.31579 18.9926 5.50305 16.8206 5.50305C14.6485 5.50305 12.5551 6.31579 10.9521 7.7814C9.34909 9.24701 8.3525 11.2594 8.15837 13.4227H3.3732C2.74379 13.4227 2.14016 13.6728 1.69509 14.1178C1.25003 14.5629 1 15.1665 1 15.7959V42.6922C1 43.3216 1.25003 43.9253 1.69509 44.3703C2.14016 44.8154 2.74379 45.0654 3.3732 45.0654H8.76195C9.17714 45.7867 9.77511 46.3859 10.4956 46.8025C11.2161 47.2192 12.0337 47.4385 12.866 47.4385C13.6983 47.4385 14.5159 47.2192 15.2364 46.8025C15.9569 46.3859 16.5549 45.7867 16.9701 45.0654H36.4493C36.8645 45.7867 37.4625 46.3859 38.183 46.8025C38.9035 47.2192 39.7211 47.4385 40.5534 47.4385C41.3856 47.4385 42.2032 47.2192 42.9237 46.8025C43.6443 46.3859 44.2422 45.7867 44.6574 45.0654H46.0908C46.7202 45.0654 47.3239 44.8154 47.7689 44.3703C48.214 43.9253 48.464 43.3216 48.464 42.6922V33.1994C48.4613 30.8924 47.5436 28.6807 45.9123 27.0494C44.281 25.418 42.0693 24.5004 39.7623 24.4977ZM46.8352 32.4083H38.1802C37.9704 32.4083 37.7691 32.325 37.6208 32.1766C37.4724 32.0283 37.3891 31.8271 37.3891 31.6173V26.0798H39.7623C41.5126 26.0822 43.2009 26.7285 44.5053 27.8956C45.8097 29.0628 46.639 30.669 46.8352 32.4083ZM35.807 26.0798V31.6173C35.807 32.2467 36.057 32.8503 36.502 33.2954C36.9471 33.7404 37.5507 33.9905 38.1802 33.9905H46.8819V40.319H44.6574C44.2422 39.5977 43.6443 38.9985 42.9237 38.5819C42.2032 38.1653 41.3856 37.9459 40.5534 37.9459C39.7211 37.9459 38.9035 38.1653 38.183 38.5819C37.4625 38.9985 36.8645 39.5977 36.4493 40.319H34.2248V26.0798H35.807ZM16.9701 40.319C16.5549 39.5977 15.9569 38.9985 15.2364 38.5819C14.5159 38.1653 13.6983 37.9459 12.866 37.9459C12.0337 37.9459 11.2161 38.1653 10.4956 38.5819C9.77511 38.9985 9.17714 39.5977 8.76195 40.319H2.58213V37.1547H32.6427V40.319H16.9701ZM16.8213 7.09419C18.2295 7.09419 19.606 7.51175 20.7768 8.29406C21.9476 9.07637 22.8601 10.1883 23.399 11.4892C23.9379 12.7902 24.0789 14.2217 23.8041 15.6028C23.5294 16.9838 22.8514 18.2524 21.8557 19.2481C20.86 20.2438 19.5914 20.9219 18.2103 21.1966C16.8292 21.4713 15.3977 21.3303 14.0968 20.7915C12.7959 20.2526 11.6839 19.34 10.9016 18.1692C10.1193 16.9984 9.70174 15.6219 9.70174 14.2138C9.70383 12.3262 10.4546 10.5165 11.7893 9.18179C13.1241 7.84706 14.9337 7.09628 16.8213 7.09419ZM2.58213 15.7959C2.58213 15.5861 2.66548 15.3849 2.81383 15.2366C2.96219 15.0882 3.1634 15.0049 3.3732 15.0049H8.15995C8.35408 17.1682 9.35067 19.1806 10.9537 20.6462C12.5567 22.1118 14.6501 22.9245 16.8221 22.9245C18.9942 22.9245 21.0876 22.1118 22.6906 20.6462C24.2936 19.1806 25.2902 17.1682 25.4843 15.0049H31.8516C32.0614 15.0049 32.2626 15.0882 32.411 15.2366C32.5593 15.3849 32.6427 15.5861 32.6427 15.7959V35.5726H2.58213V15.7959ZM3.3732 43.4833C3.1634 43.4833 2.96219 43.3999 2.81383 43.2516C2.66548 43.1032 2.58213 42.902 2.58213 42.6922V41.9011H8.1908C8.09586 42.4242 8.09586 42.9602 8.1908 43.4833H3.3732ZM12.866 45.8565C12.2402 45.8565 11.6284 45.6709 11.108 45.3232C10.5877 44.9755 10.1821 44.4813 9.9426 43.9031C9.70311 43.3249 9.64044 42.6887 9.76254 42.0749C9.88463 41.4611 10.186 40.8973 10.6285 40.4547C11.0711 40.0122 11.6349 39.7108 12.2487 39.5887C12.8625 39.4666 13.4987 39.5293 14.0769 39.7688C14.6551 40.0083 15.1493 40.4139 15.497 40.9342C15.8447 41.4546 16.0303 42.0664 16.0303 42.6922C16.0303 43.5314 15.6969 44.3363 15.1035 44.9297C14.5101 45.5231 13.7052 45.8565 12.866 45.8565ZM17.5412 43.4833C17.6362 42.9602 17.6362 42.4242 17.5412 41.9011H35.8782C35.7832 42.4242 35.7832 42.9602 35.8782 43.4833H17.5412ZM40.5534 45.8565C39.9275 45.8565 39.3157 45.6709 38.7954 45.3232C38.275 44.9755 37.8694 44.4813 37.63 43.9031C37.3905 43.3249 37.3278 42.6887 37.4499 42.0749C37.572 41.4611 37.8734 40.8973 38.3159 40.4547C38.7584 40.0122 39.3222 39.7108 39.936 39.5887C40.5498 39.4666 41.1861 39.5293 41.7643 39.7688C42.3425 40.0083 42.8367 40.4139 43.1843 40.9342C43.532 41.4546 43.7176 42.0664 43.7176 42.6922C43.7176 43.5314 43.3842 44.3363 42.7908 44.9297C42.1974 45.5231 41.3926 45.8565 40.5534 45.8565ZM46.8819 42.6922C46.8819 42.902 46.7985 43.1032 46.6502 43.2516C46.5018 43.3999 46.3006 43.4833 46.0908 43.4833H45.2286C45.3235 42.9602 45.3235 42.4242 45.2286 41.9011H46.8819V42.6922Z" fill="#8A6048"/>
<path d="M13.6583 15.002H16.8225C17.0323 15.002 17.2335 14.9187 17.3819 14.7703C17.5302 14.6219 17.6136 14.4207 17.6136 14.2109V9.46453C17.6136 9.25472 17.5302 9.05351 17.3819 8.90516C17.2335 8.75681 17.0323 8.67346 16.8225 8.67346C16.6127 8.67346 16.4115 8.75681 16.2632 8.90516C16.1148 9.05351 16.0315 9.25472 16.0315 9.46453V13.4199H13.6583C13.4485 13.4199 13.2472 13.5032 13.0989 13.6516C12.9505 13.7999 12.8672 14.0011 12.8672 14.2109C12.8672 14.4207 12.9505 14.6219 13.0989 14.7703C13.2472 14.9187 13.4485 15.002 13.6583 15.002Z" fill="#8A6048"/>
</g>
<defs>
<clipPath id="clip0_1500_4558">
<rect width="48" height="49" fill="white" transform="translate(0.75)"/>
</clipPath>
</defs>
</svg>
