<svg width="49" height="49" viewBox="0 0 49 49" fill="none" xmlns="http://www.w3.org/2000/svg">
<path d="M7.80256 32.7192H25.8134C26.2156 32.7192 26.5417 32.3931 26.5417 31.9909C26.5417 31.5887 26.2156 31.2626 25.8134 31.2626H7.80256C7.40033 31.2626 7.07422 31.5887 7.07422 31.9909C7.07422 32.3931 7.40033 32.7192 7.80256 32.7192Z" fill="#8A6048"/>
<path d="M24.2891 18.1104H7.80256C7.40033 18.1104 7.07422 18.4365 7.07422 18.8387C7.07422 19.2409 7.40033 19.567 7.80256 19.567H24.2891C24.6913 19.567 25.0174 19.2409 25.0174 18.8387C25.0174 18.4365 24.6913 18.1104 24.2891 18.1104Z" fill="#8A6048"/>
<path d="M7.80256 26.1593H21.9141C22.3163 26.1593 22.6424 25.8332 22.6424 25.431C22.6424 25.0287 22.3163 24.7026 21.9141 24.7026H7.80256C7.40033 24.7026 7.07422 25.0287 7.07422 25.431C7.07422 25.8332 7.40033 26.1593 7.80256 26.1593Z" fill="#8A6048"/>
<path d="M44.4851 11.7437L44.7462 11.366C45.0342 10.9603 45.147 10.4666 45.0634 9.97585C44.9803 9.48541 44.7107 9.05687 44.3048 8.76882L43.5558 8.23742L43.6014 8.17312C44.2353 7.27981 44.0372 6.04816 43.1729 5.38894L44.0218 4.19245C44.7228 3.20485 44.4891 1.83137 43.5015 1.13034C42.5132 0.430438 41.1401 0.663384 40.4401 1.65134L39.591 2.84804C39.1607 2.5643 38.6495 2.45062 38.1387 2.53792C37.6039 2.62896 37.1369 2.92274 36.8235 3.36479L26.8289 17.4536C25.9967 18.6265 25.5045 20.0046 25.4053 21.4393L25.0892 26.0068C25.0718 26.2597 25.187 26.504 25.394 26.6509C25.5192 26.7398 25.6671 26.7853 25.8158 26.7853C25.9129 26.7853 26.0107 26.7658 26.1028 26.7262L30.3111 24.9225C31.6348 24.3555 32.775 23.4344 33.609 22.259L40.5278 12.5059H42.1875L40.109 15.5124C39.8803 15.8436 39.9632 16.297 40.294 16.526C40.4206 16.6131 40.565 16.6551 40.7076 16.6551C40.9388 16.6551 41.166 16.5456 41.3075 16.3411L43.6581 12.9404C44.2009 13.3414 44.5581 13.9804 44.5581 14.7055V36.1557C44.5581 37.3685 43.5712 38.3554 42.3584 38.3554H15.8972C15.741 38.3554 15.5892 38.4055 15.464 38.4983L7.73238 44.2185V39.0837C7.73238 38.6815 7.40627 38.3554 7.00404 38.3554H4.9064C3.69363 38.3554 2.70674 37.3685 2.70674 36.1557V14.7056C2.70674 13.4928 3.69363 12.5059 4.9064 12.5059H27.2251C27.6274 12.5059 27.9535 12.1798 27.9535 11.7776C27.9535 11.3754 27.6274 11.0493 27.2251 11.0493H4.9064C2.89024 11.0493 1.25 12.6895 1.25 14.7056V36.1559C1.25 38.172 2.89024 39.8123 4.9064 39.8123H6.27564V44.8716C6.27564 45.2998 6.51318 45.6853 6.89553 45.8785C7.05696 45.9598 7.23126 46 7.40408 46C7.64021 46 7.87492 45.9249 8.07377 45.7777L16.1373 39.8122H42.3584C44.3746 39.8122 46.0148 38.1719 46.0148 36.1558V14.7056C46.0148 13.4845 45.4075 12.4082 44.4851 11.7437ZM41.6283 2.49385C41.7425 2.33313 41.9125 2.22602 42.107 2.19299C42.3026 2.15918 42.4979 2.20473 42.6586 2.31855C42.9912 2.55468 43.0698 3.01704 42.834 3.34958L41.989 4.54056L40.7831 3.68517L41.6283 2.49385ZM29.737 23.5838L26.6248 24.9179L26.8585 21.5396C26.8822 21.1968 26.9418 20.8603 27.0196 20.5285L30.6384 23.0989C30.3508 23.2816 30.0528 23.4485 29.737 23.5838ZM32.421 21.4162C32.2363 21.6763 32.0301 21.9176 31.8106 22.1454L27.5323 19.109C27.6743 18.8282 27.8333 18.5552 28.0168 18.2964L35.6108 7.59157L40.0131 10.7139L32.421 21.4162ZM36.4521 6.4059L38.0118 4.20737C38.1003 4.08252 38.2319 3.99968 38.3827 3.97408C38.4155 3.96877 38.4478 3.96587 38.4802 3.96587C38.5979 3.96587 38.7124 4.00216 38.8103 4.07148L42.2774 6.53111C42.5353 6.7139 42.5965 7.07276 42.4137 7.33025L40.8548 9.52771L36.4521 6.4059ZM42.3584 11.0492H41.5611L42.7131 9.42535L43.462 9.95668C43.5506 10.0196 43.6092 10.1132 43.6274 10.2202C43.6455 10.3272 43.6211 10.4347 43.5531 10.5303L43.1344 11.136C42.8837 11.0816 42.6251 11.0492 42.3584 11.0492Z" fill="#8A6048"/>
</svg>
