<svg width="48" height="49" viewBox="0 0 48 49" fill="none" xmlns="http://www.w3.org/2000/svg">
<path d="M41.3 9.79842H32.9V7.69842C32.9 7.31185 32.5866 6.99842 32.2 6.99842C31.8134 6.99842 31.5 7.31185 31.5 7.69842V9.79842H21.7V7.69842C21.7 7.31185 21.3866 6.99842 21 6.99842C20.6134 6.99842 20.3 7.31185 20.3 7.69842V9.79842H10.5V7.69842C10.5 7.31185 10.1866 6.99842 9.8 6.99842C9.41342 6.99842 9.1 7.31185 9.1 7.69842V9.79842H0.7C0.313425 9.79842 0 10.1118 0 10.4984V42.6984C0 43.085 0.313425 43.3984 0.7 43.3984H10.5322C14.3888 49.1796 22.2018 50.7398 27.983 46.8832C29.363 45.9626 30.5473 44.7783 31.4678 43.3984H41.3C41.6866 43.3984 42 43.085 42 42.6984V10.4984C42 10.1118 41.6866 9.79842 41.3 9.79842ZM32.1727 37.1859C32.1496 37.5184 32.1062 37.8474 32.0544 38.1743C31.1853 43.6048 26.4996 47.5995 21 47.5984C14.8144 47.5984 9.8 42.584 9.8 36.3984C9.8 30.2129 14.8144 25.1984 21 25.1984C27.1855 25.1984 32.2 30.2129 32.2 36.3984C32.2 36.6626 32.1909 36.9251 32.1727 37.1859ZM40.6 41.9984H32.2889C32.3407 41.8941 32.3862 41.7884 32.4352 41.6813C32.4716 41.6029 32.5094 41.5252 32.5437 41.4461C32.6371 41.2343 32.7239 41.0198 32.8041 40.8028C32.8181 40.7664 32.8335 40.7328 32.8468 40.6943C32.9402 40.4395 33.0239 40.1817 33.0981 39.9208C33.1184 39.8508 33.1352 39.7808 33.1541 39.7108C33.2059 39.5197 33.2549 39.3286 33.2941 39.1347C33.3151 39.0423 33.3333 38.9485 33.3515 38.8547C33.3865 38.6783 33.4177 38.5012 33.4453 38.3234C33.46 38.2275 33.474 38.1309 33.4866 38.0343C33.5111 37.8474 33.53 37.6605 33.5461 37.4743C33.5531 37.3896 33.5622 37.3049 33.5678 37.2195C33.5853 36.9472 33.5965 36.6749 33.5965 36.4005C33.5965 29.4417 27.9553 23.8005 20.9965 23.8005C14.0377 23.8005 8.3965 29.4417 8.3965 36.4005C8.3965 36.6749 8.4077 36.9472 8.4252 37.2195C8.4308 37.3049 8.4399 37.3896 8.4469 37.475C8.463 37.6626 8.4819 37.8495 8.5057 38.035C8.5183 38.1323 8.533 38.2289 8.5484 38.3262C8.57596 38.5036 8.60694 38.68 8.6415 38.8554C8.6597 38.9492 8.6779 39.043 8.6989 39.1354C8.7409 39.3265 8.7892 39.5162 8.8389 39.7052C8.8585 39.7752 8.8753 39.8515 8.8963 39.9236C8.9719 40.1826 9.0545 40.4388 9.1462 40.6936C9.1616 40.7356 9.1798 40.7762 9.1952 40.8175C9.27404 41.0289 9.35856 41.2389 9.4486 41.4475C9.485 41.5301 9.5235 41.6106 9.5613 41.6918C9.6096 41.7954 9.6544 41.9018 9.7055 42.0033H1.4V18.1984H40.6V41.9984ZM40.6 16.7984H1.4V11.1984H9.1V13.2984H7.7C7.31343 13.2984 7 13.6118 7 13.9984C7 14.385 7.31343 14.6984 7.7 14.6984H11.9C12.2866 14.6984 12.6 14.385 12.6 13.9984C12.6 13.6118 12.2866 13.2984 11.9 13.2984H10.5V11.1984H20.3V13.2984H18.9C18.5134 13.2984 18.2 13.6118 18.2 13.9984C18.2 14.385 18.5134 14.6984 18.9 14.6984H23.1C23.4866 14.6984 23.8 14.385 23.8 13.9984C23.8 13.6118 23.4866 13.2984 23.1 13.2984H21.7V11.1984H31.5V13.2984H30.1C29.7134 13.2984 29.4 13.6118 29.4 13.9984C29.4 14.385 29.7134 14.6984 30.1 14.6984H34.3C34.6866 14.6984 35 14.385 35 13.9984C35 13.6118 34.6866 13.2984 34.3 13.2984H32.9V11.1984H40.6V16.7984Z" fill="#8A6048"/>
<path d="M25.6131 40.226L21.7008 36.1184V27.9984C21.7008 27.6118 21.3874 27.2984 21.0008 27.2984C20.6142 27.2984 20.3008 27.6118 20.3008 27.9984V36.3984C20.301 36.5781 20.3701 36.7507 20.494 36.8807L24.5988 41.1913C24.8653 41.4714 25.3085 41.4823 25.5886 41.2158C25.8687 40.9493 25.8796 40.5061 25.6131 40.226Z" fill="#8A6048"/>
</svg>
