<svg width="48" height="49" viewBox="0 0 48 49" fill="none" xmlns="http://www.w3.org/2000/svg">
<g id="icon_range">
<g id="Group 2573">
<path id="Vector" d="M23.3953 28.0441C20.283 24.9321 15.2375 24.9321 12.1252 28.0441C12.1128 28.0557 12.1029 28.0688 12.0912 28.0808L12.0862 28.0869C9.00825 31.2034 9.02558 36.221 12.1252 39.3163L17.2482 44.439C20.3601 47.5449 25.3982 47.5471 28.513 44.4443L28.5173 44.4397C31.6246 41.3256 31.6246 36.284 28.5173 33.1699L23.3953 28.0441ZM18.2726 43.4124L13.1496 38.2897C10.8838 36.0293 10.5994 32.456 12.4789 29.8655L13.7945 32.5148C14.6626 34.2651 16.1438 35.6348 17.9567 36.3632L22.8106 38.3195C24.4612 38.9863 25.769 40.2962 26.433 41.9475L27.1451 43.7276C24.5609 45.9612 20.6916 45.8239 18.2726 43.4124ZM28.2275 42.5273L27.7797 41.4077C26.9682 39.3906 25.371 37.7899 23.3553 36.9741L18.5015 35.0179C17.0186 34.4218 15.8066 33.3011 15.0963 31.8692L13.5338 28.7222C16.1176 26.5102 19.9685 26.6605 22.3723 29.0671L27.4953 34.1898C29.7232 36.4262 30.0317 39.9365 28.2275 42.5273Z" fill="#8A6048"/>
<path id="Vector_2" d="M40.0898 13.0054L40.0848 13.0008C37.5357 10.4654 33.4166 10.4679 30.8707 13.0068L26.7724 17.105C24.2506 19.6336 24.2297 23.7198 26.725 26.2742L26.7311 26.2806C26.7456 26.2951 26.7579 26.3117 26.7724 26.3262C29.3202 28.8686 33.4456 28.8686 35.9937 26.3262L40.0919 22.228C42.6346 19.6792 42.6336 15.5527 40.0898 13.0054ZM27.7944 18.1288L31.893 14.0298C33.5634 12.3623 36.1635 12.0676 38.1646 13.3188L36.8006 13.8848C34.8581 14.6931 33.4237 16.3869 32.9465 18.4358L32.4434 20.6093C32.0699 22.2132 30.9418 23.5366 29.4174 24.1595L27.4778 24.9505C25.8099 22.9348 25.9471 19.9814 27.7944 18.1288ZM39.0653 21.2021L34.966 25.3004C33.2974 26.964 30.7033 27.2605 28.7022 26.0163L29.9643 25.502C31.9245 24.7011 33.3749 22.9999 33.8549 20.9375L34.3618 18.7641C34.7311 17.1715 35.844 15.8538 37.3528 15.2238L39.3812 14.3825C41.0477 16.3979 40.9108 19.3492 39.0653 21.2021Z" fill="#8A6048"/>
<path id="Vector_3" d="M16.4275 23.5166C17.5532 23.5159 18.6594 23.222 19.6371 22.6637L19.6509 22.6574C19.6594 22.6521 19.6683 22.6492 19.6767 22.6443C22.7919 20.8409 23.8595 16.8566 22.0635 13.7375L19.1656 8.71816C17.3639 5.60515 13.3835 4.53576 10.2645 6.32751H10.2599C7.14263 8.13094 6.07501 12.1184 7.87348 15.2385L10.7714 20.2579C11.9384 22.2774 14.0953 23.5202 16.4275 23.5166ZM13.5102 6.90766C15.3249 6.90483 17.0031 7.87164 17.9105 9.44335L20.8084 14.4627C21.9673 16.4777 21.6089 19.0222 19.9392 20.6389L19.8901 19.9774C19.7323 17.8619 18.5564 15.9549 16.7371 14.8639L14.0875 13.278C12.7436 12.4679 11.8472 11.0844 11.6568 9.52684L11.4011 7.3824C12.0615 7.07287 12.7811 6.9112 13.5102 6.90766ZM10.0494 8.28411L10.2181 9.70053C10.4633 11.7028 11.6158 13.4807 13.3428 14.5229L15.9928 16.1087C17.4071 16.957 18.3212 18.4389 18.4453 20.0831L18.5568 21.5915C16.175 22.7012 13.3404 21.808 12.0248 19.5334L9.12682 14.514C7.95414 12.475 8.33583 9.89722 10.0494 8.28552V8.28411Z" fill="#8A6048"/>
</g>
</g>
</svg>
