<svg width="49" height="49" viewBox="0 0 49 49" fill="none" xmlns="http://www.w3.org/2000/svg">
<g clip-path="url(#clip0_1500_4637)">
<path d="M44.4309 26.0013C43.9671 25.7664 43.452 25.6505 42.9322 25.6642C42.4124 25.6779 41.9041 25.8206 41.4533 26.0797L33.589 30.6159C33.4615 29.9416 33.115 29.3282 32.6033 28.8709C32.024 28.366 31.2818 28.0877 30.5134 28.0873H24.1192C24.0151 28.0871 23.9121 28.0663 23.8162 28.0259C23.7203 27.9856 23.6333 27.9265 23.5605 27.8522L23.3724 27.6641C22.6377 26.9339 21.6446 26.5228 20.6087 26.5201H14.5828C14.4644 26.5201 14.3477 26.5279 14.191 26.5396C13.2909 26.6291 12.4495 27.0272 11.8096 27.6665L8.79664 30.6794L8.17916 30.0619C8.03225 29.9153 7.83314 29.8329 7.62555 29.8329C7.41796 29.8329 7.21885 29.9153 7.07193 30.0619L0.979428 36.149C0.832525 36.2959 0.75 36.4952 0.75 36.703C0.75 36.9108 0.832525 37.11 0.979428 37.257L12.0556 48.3426C12.2026 48.4895 12.4019 48.572 12.6096 48.572C12.8174 48.572 13.0167 48.4895 13.1637 48.3426L19.2585 42.2477C19.4054 42.1008 19.4879 41.9015 19.4879 41.6937C19.4879 41.4859 19.4054 41.2867 19.2585 41.1397L18.5258 40.4071L19.6425 39.2928C19.7153 39.2185 19.8023 39.1594 19.8982 39.119C19.9941 39.0787 20.0971 39.0578 20.2012 39.0577H30.4664C31.1548 39.0592 31.8311 38.8769 32.4254 38.5295L44.5869 31.5085C45.0658 31.2357 45.4633 30.8403 45.7388 30.363C46.0142 29.8857 46.1576 29.3436 46.1541 28.7925C46.1539 28.2425 46.0096 27.7022 45.7356 27.2253C45.4323 26.6965 44.978 26.2703 44.4309 26.0013ZM12.6096 46.6806L2.63988 36.7069L7.62672 31.7263L17.5965 41.6937L12.6096 46.6806ZM43.8033 30.1513L31.6355 37.177C31.2807 37.3838 30.8771 37.492 30.4664 37.4905H20.2012C19.8914 37.4898 19.5846 37.5506 19.2985 37.6694C19.0124 37.7881 18.7527 37.9625 18.5345 38.1824L17.4178 39.299L9.90622 31.7874L12.9192 28.7745C13.2997 28.3938 13.7997 28.1558 14.3351 28.1006C14.4213 28.0935 14.502 28.0873 14.5828 28.0873H20.6087C21.2295 28.0897 21.8243 28.3366 22.2644 28.7745L22.4525 28.9625C22.6707 29.1824 22.9304 29.3568 23.2165 29.4756C23.5026 29.5944 23.8094 29.6552 24.1192 29.6545H30.5134C30.9002 29.6539 31.2742 29.793 31.5665 30.0463C31.8611 30.3043 32.0461 30.665 32.0837 31.0548C32.1092 31.3 32.0734 31.5477 31.9795 31.7757C31.9076 31.9858 31.7874 32.1761 31.6285 32.3313C31.4834 32.477 31.3108 32.5925 31.1207 32.6711C30.9306 32.7496 30.7269 32.7897 30.5212 32.7889H25.3651C25.1573 32.7889 24.958 32.8714 24.811 33.0184C24.6641 33.1653 24.5815 33.3647 24.5815 33.5725C24.5815 33.7803 24.6641 33.9796 24.811 34.1266C24.958 34.2735 25.1573 34.3561 25.3651 34.3561H30.5212C30.9329 34.3569 31.3407 34.2762 31.7209 34.1184C32.1012 33.9606 32.4463 33.729 32.7365 33.4369C32.9909 33.185 33.1981 32.8897 33.3485 32.5648L42.2329 27.4353C42.4607 27.306 42.7171 27.2355 42.9789 27.23C43.2407 27.2246 43.4998 27.2843 43.7328 27.404C44.003 27.5364 44.2275 27.7465 44.3777 28.0073C44.5141 28.246 44.5862 28.516 44.5869 28.7909C44.5888 29.0668 44.5172 29.3383 44.3795 29.5773C44.2418 29.8164 44.0429 30.0145 43.8033 30.1513Z" fill="#8A6048"/>
<path d="M32.8711 17.904C31.597 17.904 30.5203 17.1862 30.5203 16.3368C30.5203 16.129 30.4378 15.9297 30.2908 15.7827C30.1439 15.6358 29.9446 15.5532 29.7367 15.5532C29.5289 15.5532 29.3296 15.6358 29.1826 15.7827C29.0357 15.9297 28.9531 16.129 28.9531 16.3368C28.9531 17.8507 30.3017 19.1163 32.0875 19.4078V20.2548C32.0875 20.4627 32.1701 20.662 32.317 20.8089C32.464 20.9559 32.6633 21.0384 32.8711 21.0384C33.079 21.0384 33.2783 20.9559 33.4252 20.8089C33.5722 20.662 33.6547 20.4627 33.6547 20.2548V19.4078C35.4406 19.1163 36.7891 17.8507 36.7891 16.3368C36.7891 14.6082 35.0315 13.2024 32.8711 13.2024C31.597 13.2024 30.5203 12.4846 30.5203 11.6352C30.5203 10.7858 31.597 10.068 32.8711 10.068C34.1453 10.068 35.2219 10.7858 35.2219 11.6352C35.2219 11.843 35.3045 12.0423 35.4515 12.1893C35.5984 12.3363 35.7977 12.4188 36.0055 12.4188C36.2134 12.4188 36.4127 12.3363 36.5596 12.1893C36.7066 12.0423 36.7891 11.843 36.7891 11.6352C36.7891 10.1213 35.4406 8.85577 33.6547 8.56427V7.7172C33.6547 7.50937 33.5722 7.31006 33.4252 7.16311C33.2783 7.01615 33.079 6.93359 32.8711 6.93359C32.6633 6.93359 32.464 7.01615 32.317 7.16311C32.1701 7.31006 32.0875 7.50937 32.0875 7.7172V8.56427C30.3017 8.85577 28.9531 10.1213 28.9531 11.6352C28.9531 13.3638 30.7107 14.7696 32.8711 14.7696C34.1453 14.7696 35.2219 15.4874 35.2219 16.3368C35.2219 17.1862 34.1453 17.904 32.8711 17.904Z" fill="#8A6048"/>
<path d="M47.3952 11.9978C47.2483 11.8509 47.049 11.7684 46.8412 11.7684C46.6334 11.7684 46.4342 11.8509 46.2872 11.9978L45.3547 12.9303C45.1115 10.0855 43.9044 7.40885 41.9333 5.34317C39.9622 3.27748 37.345 1.94647 34.5147 1.57027C31.6843 1.19406 28.8103 1.7952 26.368 3.27426C23.9257 4.75332 22.0614 7.0217 21.0835 9.70424C21.0444 9.80177 21.0254 9.90615 21.0275 10.0112C21.0296 10.1162 21.0528 10.2197 21.0958 10.3156C21.1387 10.4115 21.2004 10.4978 21.2774 10.5693C21.3543 10.6408 21.4448 10.6962 21.5436 10.732C21.6423 10.7678 21.7473 10.7835 21.8522 10.7779C21.9571 10.7724 22.0598 10.7458 22.1543 10.6998C22.2487 10.6538 22.3329 10.5892 22.4019 10.51C22.4709 10.4308 22.5232 10.3385 22.5558 10.2387C23.4017 7.90811 25.012 5.9328 27.1243 4.63471C29.2366 3.33663 31.7263 2.79233 34.1876 3.09053C36.6489 3.38874 38.9366 4.51187 40.6778 6.27685C42.419 8.04182 43.511 10.3445 43.7758 12.8097L42.9616 11.9955C42.8893 11.9206 42.8029 11.861 42.7073 11.8199C42.6117 11.7788 42.5088 11.7572 42.4048 11.7563C42.3007 11.7554 42.1976 11.7752 42.1013 11.8146C42.005 11.854 41.9175 11.9122 41.8439 11.9858C41.7703 12.0594 41.7121 12.1468 41.6727 12.2431C41.6333 12.3394 41.6135 12.4426 41.6144 12.5467C41.6153 12.6507 41.6369 12.7535 41.678 12.8491C41.7191 12.9448 41.7788 13.0312 41.8536 13.1035L44.0704 15.3203C44.2174 15.4672 44.4166 15.5497 44.6244 15.5497C44.8322 15.5497 45.0315 15.4672 45.1784 15.3203L47.3952 13.1035C47.5414 12.9567 47.6235 12.7579 47.6235 12.5507C47.6235 12.3435 47.5414 12.1447 47.3952 11.9978Z" fill="#8A6048"/>
<path d="M19.4569 15.97L20.3894 15.0375C20.6335 17.897 21.8514 20.5863 23.8395 22.6561C25.8276 24.7258 28.4656 26.0509 31.313 26.41C34.1604 26.769 37.0448 26.1403 39.4845 24.6289C41.9242 23.1174 43.7715 20.8147 44.7179 18.1053C44.752 18.008 44.7666 17.905 44.7608 17.8021C44.7551 17.6991 44.7291 17.5984 44.6843 17.5055C44.6395 17.4127 44.5769 17.3296 44.4999 17.261C44.423 17.1924 44.3332 17.1396 44.2359 17.1058C44.1385 17.0719 44.0354 17.0576 43.9325 17.0636C43.8296 17.0697 43.7289 17.0959 43.6362 17.141C43.5434 17.186 43.4605 17.2489 43.3921 17.326C43.3237 17.4032 43.2712 17.493 43.2376 17.5905C42.419 19.9441 40.8235 21.9489 38.7137 23.275C36.6038 24.601 34.1054 25.1692 31.6296 24.8861C29.1538 24.603 26.8482 23.4854 25.0922 21.7173C23.3362 19.9491 22.2344 17.6359 21.9683 15.1582L22.7825 15.9723C22.9303 16.1151 23.1282 16.1941 23.3337 16.1923C23.5391 16.1905 23.7357 16.1081 23.881 15.9628C24.0262 15.8175 24.1087 15.621 24.1104 15.4155C24.1122 15.2101 24.0332 15.0121 23.8905 14.8643L21.6737 12.6475C21.5267 12.5006 21.3275 12.4181 21.1197 12.4181C20.9119 12.4181 20.7126 12.5006 20.5657 12.6475L18.3489 14.8643C18.2061 15.0121 18.1272 15.2101 18.1289 15.4155C18.1307 15.621 18.2131 15.8175 18.3584 15.9628C18.5037 16.1081 18.7002 16.1905 18.9057 16.1923C19.1112 16.1941 19.3091 16.1151 19.4569 15.9723V15.97Z" fill="#8A6048"/>
</g>
<defs>
<clipPath id="clip0_1500_4637">
<rect width="48" height="49" fill="white" transform="translate(0.25)"/>
</clipPath>
</defs>
</svg>
