<svg width="49" height="49" viewBox="0 0 49 49" fill="none" xmlns="http://www.w3.org/2000/svg">
<path d="M29.9234 11.3H6.67344C6.46789 11.3 6.27077 11.2183 6.12543 11.073C5.98009 10.9277 5.89844 10.7305 5.89844 10.525C5.89844 10.3195 5.98009 10.1223 6.12543 9.97699C6.27077 9.83165 6.46789 9.75 6.67344 9.75H29.9234C30.1289 9.75 30.326 9.83165 30.4714 9.97699C30.6167 10.1223 30.6984 10.3195 30.6984 10.525C30.6984 10.7305 30.6167 10.9277 30.4714 11.073C30.326 11.2183 30.1289 11.3 29.9234 11.3Z" fill="#8A6048"/>
<path d="M29.9234 15.9499H6.67344C6.46789 15.9499 6.27077 15.8682 6.12543 15.7229C5.98009 15.5776 5.89844 15.3804 5.89844 15.1749C5.89844 14.9694 5.98009 14.7722 6.12543 14.6269C6.27077 14.4816 6.46789 14.3999 6.67344 14.3999H29.9234C30.1289 14.3999 30.326 14.4816 30.4714 14.6269C30.6167 14.7722 30.6984 14.9694 30.6984 15.1749C30.6984 15.3804 30.6167 15.5776 30.4714 15.7229C30.326 15.8682 30.1289 15.9499 29.9234 15.9499Z" fill="#8A6048"/>
<path d="M29.9234 20.5999H6.67344C6.46789 20.5999 6.27077 20.5183 6.12543 20.3729C5.98009 20.2276 5.89844 20.0305 5.89844 19.8249C5.89844 19.6194 5.98009 19.4223 6.12543 19.2769C6.27077 19.1316 6.46789 19.0499 6.67344 19.0499H29.9234C30.1289 19.0499 30.326 19.1316 30.4714 19.2769C30.6167 19.4223 30.6984 19.6194 30.6984 19.8249C30.6984 20.0305 30.6167 20.2276 30.4714 20.3729C30.326 20.5183 30.1289 20.5999 29.9234 20.5999Z" fill="#8A6048"/>
<path d="M18.2984 39.9749C19.2181 39.9749 20.1171 39.7022 20.8818 39.1912C21.6465 38.6803 22.2425 37.9541 22.5945 37.1044C22.9464 36.2547 23.0385 35.3198 22.8591 34.4177C22.6796 33.5157 22.2368 32.6872 21.5865 32.0369C20.9361 31.3866 20.1076 30.9437 19.2056 30.7643C18.3036 30.5849 17.3686 30.6769 16.519 31.0289C15.6693 31.3808 14.943 31.9768 14.4321 32.7415C13.9212 33.5062 13.6484 34.4052 13.6484 35.3249C13.6497 36.5578 14.14 37.7398 15.0117 38.6116C15.8835 39.4834 17.0655 39.9737 18.2984 39.9749ZM18.2984 32.2249C18.9115 32.2249 19.5109 32.4067 20.0207 32.7474C20.5305 33.088 20.9278 33.5722 21.1624 34.1386C21.3971 34.705 21.4585 35.3284 21.3388 35.9297C21.2192 36.531 20.924 37.0834 20.4904 37.5169C20.0569 37.9505 19.5045 38.2457 18.9032 38.3653C18.3019 38.485 17.6786 38.4236 17.1121 38.1889C16.5457 37.9543 16.0615 37.557 15.7209 37.0472C15.3802 36.5374 15.1984 35.938 15.1984 35.3249C15.1984 34.5027 15.525 33.7143 16.1064 33.1329C16.6878 32.5515 17.4763 32.2249 18.2984 32.2249Z" fill="#8A6048"/>
<path d="M40.7749 37.6499H35.3499V2.775C35.3499 2.56946 35.2682 2.37233 35.1229 2.22699C34.9776 2.08165 34.7804 2 34.5749 2H2.025C1.81946 2 1.62233 2.08165 1.47699 2.22699C1.33165 2.37233 1.25 2.56946 1.25 2.775V41.5249C1.25 42.5526 1.65826 43.5382 2.38496 44.2649C3.11166 44.9916 4.09728 45.3999 5.12499 45.3999H14.425V47.7249C14.4242 47.8573 14.4575 47.9877 14.5215 48.1037C14.5855 48.2196 14.6782 48.3172 14.7906 48.3872C14.9031 48.4571 15.0316 48.4971 15.1639 48.5033C15.2962 48.5094 15.4279 48.4816 15.5464 48.4224L18.2999 47.0413L21.0535 48.4224C21.172 48.4816 21.3037 48.5094 21.436 48.5033C21.5683 48.4971 21.6968 48.4571 21.8093 48.3872C21.9217 48.3172 22.0144 48.2196 22.0784 48.1037C22.1424 47.9877 22.1757 47.8573 22.1749 47.7249V45.3999H37.6749C38.7026 45.3999 39.6882 44.9916 40.4149 44.2649C41.1416 43.5382 41.5499 42.5526 41.5499 41.5249V38.4249C41.5499 38.2194 41.4682 38.0222 41.3229 37.8769C41.1776 37.7315 40.9804 37.6499 40.7749 37.6499ZM13.2857 37.4011C13.0063 36.8745 12.5984 36.427 12.1 36.0999C11.8481 35.9007 11.325 35.4877 11.325 35.3249C11.325 35.1622 11.8481 34.7506 12.1 34.5499C12.5986 34.2224 13.0065 33.7743 13.2857 33.2471C13.4682 32.6611 13.5005 32.0385 13.3795 31.4367C13.3132 31.0926 13.3082 30.7395 13.3648 30.3936C13.7118 30.3312 14.0675 30.3344 14.4133 30.4029C15.0151 30.5243 15.6377 30.492 16.2237 30.3091C16.7502 30.0301 17.1977 29.6228 17.525 29.1249C17.7241 28.873 18.1372 28.3499 18.2999 28.3499C18.4627 28.3499 18.8742 28.873 19.0749 29.1249C19.4024 29.6236 19.8505 30.0314 20.3777 30.3107C20.9637 30.4935 21.5864 30.5258 22.1881 30.4044C22.5323 30.3385 22.8854 30.3336 23.2313 30.3897C23.2932 30.7368 23.2901 31.0924 23.222 31.4383C23.101 32.0401 23.1332 32.6626 23.3157 33.2487C23.5948 33.7751 24.0021 34.2226 24.4999 34.5499C24.7518 34.7491 25.2749 35.1622 25.2749 35.3249C25.2749 35.4877 24.7518 35.8992 24.4999 36.0999C24.0013 36.4274 23.5934 36.8755 23.3142 37.4027C23.1317 37.9887 23.0994 38.6113 23.2204 39.2131C23.2867 39.5572 23.2917 39.9103 23.2351 40.2562C22.888 40.3178 22.5325 40.3146 22.1866 40.2469C21.5847 40.1263 20.9623 40.1586 20.3762 40.3407C19.8497 40.6197 19.4022 41.027 19.0749 41.5249C18.8758 41.7768 18.4627 42.2999 18.2999 42.2999C18.1372 42.2999 17.7257 41.7768 17.525 41.5249C17.1975 41.0262 16.7494 40.6184 16.2222 40.3391C15.9289 40.2253 15.616 40.1708 15.3015 40.1787C15.0039 40.1848 14.7069 40.207 14.4118 40.2454C14.0676 40.3113 13.7145 40.3163 13.3686 40.2601C13.3067 39.913 13.3098 39.5574 13.3779 39.2115C13.4994 38.6099 13.4677 37.9873 13.2857 37.4011ZM20.6249 46.4709L18.6464 45.4813C18.5388 45.4275 18.4202 45.3995 18.2999 45.3995C18.1797 45.3995 18.0611 45.4275 17.9535 45.4813L15.975 46.4709V42.0782C16.0904 42.2092 16.2075 42.3588 16.3113 42.4867C16.791 43.0943 17.3886 43.8499 18.2999 43.8499C19.2113 43.8499 19.8089 43.0943 20.2886 42.4867C20.3901 42.3588 20.5095 42.2092 20.6249 42.0782V46.4709ZM22.1749 43.8499V41.8031C22.5443 41.898 22.9306 41.9068 23.3039 41.8288C23.6772 41.7507 24.0275 41.5878 24.3279 41.3528C24.9479 40.7328 24.8495 39.8323 24.7611 39.0387C24.695 38.6943 24.6898 38.341 24.7456 37.9948C24.9458 37.7304 25.1877 37.5003 25.4617 37.3135C26.0693 36.8338 26.8249 36.2363 26.8249 35.3249C26.8249 34.4135 26.0693 33.816 25.4617 33.3363C25.1877 33.1495 24.9458 32.9194 24.7456 32.655C24.6898 32.3086 24.695 31.955 24.7611 31.6103C24.8495 30.8175 24.9502 29.9185 24.3279 29.297C23.7056 28.6754 22.8066 28.7754 22.0137 28.8637C21.6693 28.9298 21.316 28.935 20.9698 28.8792C20.7054 28.679 20.4754 28.4372 20.2886 28.1631C19.8089 27.5556 19.2113 26.7999 18.2999 26.7999C17.3886 26.7999 16.791 27.5556 16.3113 28.1631C16.1245 28.4372 15.8945 28.679 15.6301 28.8792C15.2836 28.935 14.93 28.9298 14.5854 28.8637C13.7918 28.7754 12.8936 28.6746 12.272 29.297C11.6505 29.9193 11.7504 30.8175 11.8388 31.6111C11.9049 31.9555 11.9101 32.3088 11.8543 32.655C11.6541 32.9194 11.4122 33.1495 11.1382 33.3363C10.5306 33.816 9.77497 34.4135 9.77497 35.3249C9.77497 36.2363 10.5306 36.8338 11.1382 37.3135C11.4122 37.5003 11.6541 37.7304 11.8543 37.9948C11.9101 38.3412 11.9049 38.6948 11.8388 39.0395C11.7504 39.8323 11.6497 40.7313 12.272 41.3528C12.5725 41.5877 12.9228 41.7504 13.2961 41.8285C13.6694 41.9066 14.0556 41.8979 14.425 41.8031V43.8499H5.12499C4.50893 43.848 3.91862 43.6025 3.483 43.1669C3.04738 42.7313 2.80184 42.1409 2.8 41.5249V3.55H33.7999V41.5249C33.8021 42.3642 34.0768 43.1801 34.5826 43.8499H22.1749ZM39.9999 41.5249C39.998 42.1409 39.7525 42.7313 39.3169 43.1669C38.8813 43.6025 38.291 43.848 37.6749 43.8499C37.0595 43.846 36.4703 43.5998 36.0351 43.1646C35.6 42.7295 35.3538 42.1403 35.3499 41.5249V39.1999H39.9999V41.5249Z" fill="#8A6048"/>
</svg>
