<svg width="49" height="49" viewBox="0 0 49 49" fill="none" xmlns="http://www.w3.org/2000/svg">
<g clip-path="url(#clip0_1500_4580)">
<path fill-rule="evenodd" clip-rule="evenodd" d="M31.8377 12.7191H44.1719C44.7805 12.7209 45.3636 12.9635 45.794 13.3938C46.2244 13.8242 46.4669 14.4073 46.4688 15.0159V22.6722C46.4688 22.8752 46.3881 23.07 46.2445 23.2136C46.1009 23.3571 45.9062 23.4378 45.7031 23.4378H44.1719V47.1722C44.1701 47.7808 43.9275 48.364 43.4971 48.7943C43.0668 49.2247 42.4836 49.4672 41.875 49.4691H5.125C4.51639 49.4672 3.93323 49.2247 3.50287 48.7943C3.07252 48.364 2.82994 47.7808 2.82812 47.1722V23.4378H1.29688C1.09382 23.4378 0.899079 23.3571 0.755496 23.2136C0.611914 23.07 0.53125 22.8752 0.53125 22.6722V15.0159C0.533068 14.4073 0.775643 13.8242 1.206 13.3938C1.63635 12.9635 2.21951 12.7209 2.82812 12.7191H15.1623C14.617 12.1871 14.1915 11.5449 13.9142 10.8354C13.6369 10.1259 13.5141 9.36541 13.5542 8.60467C13.5942 7.84394 13.7961 7.10051 14.1463 6.42402C14.4966 5.74753 14.9871 5.15356 15.5852 4.68177C16.1833 4.20999 16.8752 3.87125 17.6147 3.68818C18.3541 3.50511 19.1242 3.48192 19.8733 3.62016C20.6224 3.7584 21.3334 4.0549 21.9589 4.48984C22.5843 4.92478 23.1097 5.48815 23.5 6.14234C23.8903 5.48815 24.4157 4.92478 25.0411 4.48984C25.6666 4.0549 26.3776 3.7584 27.1267 3.62016C27.8758 3.48192 28.6459 3.50511 29.3853 3.68818C30.1248 3.87125 30.8167 4.20999 31.4148 4.68177C32.0129 5.15356 32.5034 5.74753 32.8537 6.42402C33.2039 7.10051 33.4058 7.84394 33.4458 8.60467C33.4859 9.36541 33.3631 10.1259 33.0858 10.8354C32.8085 11.5449 32.383 12.1871 31.8377 12.7191ZM5.125 47.9378H18.1406V23.4378H4.35938V47.1722C4.35938 47.3752 4.44004 47.57 4.58362 47.7136C4.7272 47.8571 4.92194 47.9378 5.125 47.9378ZM2.0625 21.9066H18.1406V14.2503H2.82812C2.62507 14.2503 2.43033 14.331 2.28675 14.4746C2.14316 14.6181 2.0625 14.8129 2.0625 15.0159V21.9066ZM16.1994 6.18404C15.4814 6.90195 15.0781 7.87565 15.0781 8.89093C15.0781 9.90622 15.4814 10.8799 16.1994 11.5978C16.9173 12.3157 17.891 12.7191 18.9062 12.7191H22.7344V8.89093C22.7344 7.87565 22.3311 6.90195 21.6131 6.18404C20.8952 5.46613 19.9215 5.06281 18.9062 5.06281C17.891 5.06281 16.9173 5.46613 16.1994 6.18404ZM19.6719 14.2503V47.9378H27.3281V14.2503H19.6719ZM24.2656 8.89093V12.7191H28.0938C28.8509 12.7191 29.591 12.4945 30.2205 12.0739C30.8501 11.6533 31.3407 11.0554 31.6305 10.3559C31.9202 9.65639 31.996 8.88669 31.8483 8.1441C31.7006 7.40152 31.336 6.71941 30.8006 6.18404C30.2653 5.64867 29.5832 5.28407 28.8406 5.13636C28.098 4.98866 27.3283 5.06447 26.6288 5.35421C25.9293 5.64395 25.3314 6.13461 24.9108 6.76414C24.4901 7.39367 24.2656 8.1338 24.2656 8.89093ZM42.4164 47.7136C42.56 47.57 42.6406 47.3752 42.6406 47.1722V23.4378H36.485L36.5156 26.9444L41.3084 32.4569C41.6747 32.8739 41.8761 33.4102 41.875 33.9652V44.1097C41.8732 44.7183 41.6306 45.3015 41.2003 45.7318C40.7699 46.1622 40.1867 46.4047 39.5781 46.4066H31.9219C31.3133 46.4047 30.7301 46.1622 30.2997 45.7318C29.8694 45.3015 29.6268 44.7183 29.625 44.1097V33.9652C29.6266 33.407 29.8306 32.8683 30.1992 32.4492L34.9844 27.0133L34.9538 23.4378H28.8594V47.9378H41.875C42.0781 47.9378 42.2728 47.8571 42.4164 47.7136ZM40.1523 33.4598L35.7806 28.4297L31.3477 33.4598C31.2259 33.6002 31.1581 33.7793 31.1562 33.9652V44.1097C31.1562 44.3127 31.2369 44.5075 31.3805 44.6511C31.5241 44.7946 31.7188 44.8753 31.9219 44.8753H39.5781C39.7812 44.8753 39.9759 44.7946 40.1195 44.6511C40.2631 44.5075 40.3438 44.3127 40.3438 44.1097V33.9652C40.3435 33.7791 40.2754 33.5994 40.1523 33.4598ZM28.8594 21.9066H44.9375V15.0159C44.9375 14.8129 44.8568 14.6181 44.7133 14.4746C44.5697 14.331 44.3749 14.2503 44.1719 14.2503H28.8594V21.9066ZM35.7484 42.5782C35.5454 42.5782 35.3507 42.4976 35.2071 42.354L32.2748 39.4217C31.8438 38.9908 31.6016 38.4064 31.6016 37.7969C31.6015 37.1875 31.8435 36.603 32.2744 36.172C32.7053 35.741 33.2897 35.4989 33.8992 35.4988C34.5086 35.4987 35.0931 35.7407 35.5241 36.1716L35.7484 36.3967L35.9728 36.1724C36.1861 35.959 36.4393 35.7897 36.718 35.6742C36.9968 35.5586 37.2955 35.4991 37.5973 35.4991C37.899 35.499 38.1978 35.5583 38.4766 35.6737C38.7553 35.7891 39.0087 35.9583 39.2221 36.1716C39.4355 36.3849 39.6048 36.6382 39.7203 36.9169C39.8358 37.1956 39.8953 37.4944 39.8954 37.7961C39.8955 38.0978 39.8361 38.3966 39.7207 38.6754C39.6053 38.9542 39.4361 39.2075 39.2228 39.4209L36.2897 42.354C36.1461 42.4976 35.9514 42.5782 35.7484 42.5782ZM33.606 37.0885C33.513 37.1271 33.4285 37.1837 33.3574 37.255C33.2846 37.3265 33.2269 37.4118 33.1876 37.506C33.1483 37.6001 33.1282 37.7012 33.1285 37.8032C33.1296 37.9032 33.1504 38.0021 33.1898 38.0941C33.2292 38.186 33.2864 38.2693 33.3581 38.3391L35.7484 40.7302L38.1395 38.3391C38.2107 38.2679 38.2671 38.1834 38.3056 38.0904C38.3442 37.9974 38.364 37.8977 38.364 37.797C38.364 37.6964 38.3442 37.5967 38.3056 37.5037C38.2671 37.4107 38.2107 37.3262 38.1395 37.255C38.0683 37.1838 37.9838 37.1273 37.8908 37.0888C37.7978 37.0503 37.6981 37.0305 37.5974 37.0305C37.4967 37.0305 37.3971 37.0503 37.3041 37.0888C37.211 37.1273 37.1265 37.1838 37.0554 37.255L36.2897 38.0206C36.1461 38.1641 35.9514 38.2448 35.7484 38.2448C35.5454 38.2448 35.3507 38.1641 35.2071 38.0206L34.4415 37.255C34.3704 37.1837 34.2859 37.1271 34.1929 37.0885C34.0999 37.0499 34.0001 37.03 33.8994 37.03C33.7987 37.03 33.699 37.0499 33.606 37.0885Z" fill="#8A6048"/>
</g>
<defs>
<clipPath id="clip0_1500_4580">
<rect width="48" height="49" fill="white" transform="translate(0.25)"/>
</clipPath>
</defs>
</svg>
