<svg width="18" height="18" viewBox="0 0 18 18" fill="none" xmlns="http://www.w3.org/2000/svg">
<path fill-rule="evenodd" clip-rule="evenodd" d="M5.8557 7.72639V6.26096C5.73278 6.26445 5.62295 6.26968 5.52269 6.27748C5.23315 6.30001 5.07429 6.34132 4.95623 6.39694C4.68904 6.52284 4.46639 6.72442 4.316 6.97533C4.25001 7.08545 4.19412 7.23706 4.14467 7.52013C4.09383 7.81112 4.05782 8.1875 4.00577 8.73858L3.58012 13.2452C3.51856 13.897 3.47673 14.3457 3.47355 14.6943C3.47044 15.0359 3.50668 15.2177 3.56296 15.3478C3.69387 15.6502 3.92373 15.9013 4.2167 16.0599C4.34367 16.1286 4.5246 16.1817 4.86865 16.2106C5.21932 16.24 5.67402 16.2406 6.33328 16.2406H12.3334C12.9927 16.2406 13.4474 16.24 13.7981 16.2106C14.1421 16.1817 14.3231 16.1286 14.45 16.0599C14.743 15.9013 14.9729 15.6502 15.1038 15.3478C15.16 15.2177 15.1963 15.0359 15.1932 14.6943C15.19 14.3457 15.1482 13.897 15.0866 13.2452L14.661 8.73858C14.6089 8.1875 14.5729 7.81112 14.5221 7.52013C14.4726 7.23706 14.4167 7.08545 14.3507 6.97533C14.2003 6.72442 13.9777 6.52284 13.7105 6.39694C13.5924 6.34132 13.4336 6.30001 13.144 6.27748C13.0438 6.26968 12.9339 6.26446 12.811 6.26096V7.72639C12.811 8.07986 12.5245 8.36639 12.171 8.36639C11.8176 8.36639 11.531 8.07986 11.531 7.72639V6.25389L7.1357 6.25389V7.72639C7.1357 8.07985 6.84916 8.36639 6.4957 8.36639C6.14224 8.36639 5.8557 8.07985 5.8557 7.72639ZM13.2433 5.00134C13.0942 4.98973 12.931 4.98303 12.7526 4.97917C12.4525 3.37035 11.0323 2.15723 9.33336 2.15723C7.6344 2.15723 6.21426 3.37035 5.91413 4.97917C5.7357 4.98303 5.57252 4.98973 5.42339 5.00133C5.05721 5.02983 4.72576 5.09057 4.41065 5.23904C3.91487 5.47264 3.49953 5.84774 3.2181 6.3173C3.03894 6.61621 2.9467 6.93962 2.88377 7.29984C2.8232 7.64649 2.78289 8.07339 2.73383 8.59285L2.73144 8.61822L2.30579 13.1249L2.30312 13.1531C2.24487 13.7698 2.19733 14.273 2.1936 14.6826C2.18975 15.1054 2.23036 15.4914 2.38828 15.8562C2.63371 16.4232 3.06335 16.891 3.60735 17.1855C3.95676 17.3747 4.33816 17.4505 4.7615 17.4861C5.17209 17.5206 5.68075 17.5206 6.30525 17.5206H6.30527H6.33328H12.3334H12.3615H12.3615C12.986 17.5206 13.4946 17.5206 13.9052 17.4861C14.3286 17.4505 14.71 17.3747 15.0594 17.1855C15.6034 16.891 16.033 16.4232 16.2784 15.8562C16.4364 15.4914 16.477 15.1054 16.4731 14.6826C16.4694 14.273 16.4219 13.7698 16.3636 13.1531L16.3609 13.1249L15.9353 8.61822L15.9329 8.59289L15.9329 8.59287C15.8838 8.0734 15.8435 7.6465 15.783 7.29984C15.72 6.93963 15.6278 6.61622 15.4486 6.3173C15.1672 5.84774 14.7519 5.47264 14.2561 5.23904C13.941 5.09057 13.6095 5.02983 13.2433 5.00134ZM9.33336 3.43723C10.3253 3.43723 11.1589 4.08625 11.4344 4.97389L7.23237 4.97389C7.50787 4.08625 8.34146 3.43723 9.33336 3.43723ZM9.97336 9.29723V8.40927L9.13098 8.69007L7.50598 9.23174C7.17065 9.34351 6.98943 9.70596 7.1012 10.0413C7.21298 10.3766 7.57542 10.5578 7.91075 10.4461L8.69336 10.1852V13.6306C8.69336 13.984 8.9799 14.2706 9.33336 14.2706C9.68682 14.2706 9.97336 13.984 9.97336 13.6306V9.29723Z" fill="#699F85"/>
</svg>
