<svg width="18" height="18" viewBox="0 0 18 18" fill="none" xmlns="http://www.w3.org/2000/svg">
<path d="M6.32485 16.3631V8.87375M2.83398 10.2355V15.0014C2.83398 15.7535 3.45915 16.3631 4.23033 16.3631H13.6042C14.638 16.3631 15.5171 15.6276 15.6743 14.6311L16.4262 9.86519C16.6214 8.6279 15.6397 7.51205 14.356 7.51205H11.9102C11.5246 7.51205 11.2121 7.20722 11.2121 6.8312V4.42496C11.2121 3.49775 10.4413 2.74609 9.49047 2.74609C9.26369 2.74609 9.05818 2.87634 8.96607 3.07843L6.50912 8.46942C6.39706 8.7153 6.14703 8.87375 5.87112 8.87375H4.23033C3.45915 8.87375 2.83398 9.48341 2.83398 10.2355Z" stroke="#7D65A3" stroke-width="1.2766" stroke-linecap="round" stroke-linejoin="round"/>
</svg>
