<svg width="18" height="18" viewBox="0 0 18 18" fill="none" xmlns="http://www.w3.org/2000/svg">
<path d="M9.06803 5.4695V16.3631M9.06803 5.4695H6.51028C6.13341 5.4695 5.77198 5.32603 5.5055 5.07066C5.23901 4.8153 5.0893 4.46894 5.0893 4.1078C5.0893 3.74665 5.23901 3.4003 5.5055 3.14493C5.77198 2.88956 6.13341 2.74609 6.51028 2.74609C8.49964 2.74609 9.06803 5.4695 9.06803 5.4695ZM9.06803 5.4695H11.6258C12.0026 5.4695 12.3641 5.32603 12.6306 5.07066C12.897 4.8153 13.0468 4.46894 13.0468 4.1078C13.0468 3.74665 12.897 3.4003 12.6306 3.14493C12.3641 2.88956 12.0026 2.74609 11.6258 2.74609C9.63642 2.74609 9.06803 5.4695 9.06803 5.4695ZM14.8553 8.87375V14.1844C14.8553 14.947 14.8553 15.3283 14.6976 15.6196C14.5589 15.8758 14.3375 16.0841 14.0653 16.2147C13.7558 16.3631 13.3507 16.3631 12.5404 16.3631L5.59569 16.3631C4.7854 16.3631 4.38025 16.3631 4.07076 16.2147C3.79853 16.0841 3.5772 15.8758 3.43849 15.6196C3.28079 15.3283 3.28079 14.947 3.28079 14.1844V8.87375M1.83398 6.55886L1.83398 7.78439C1.83398 8.1657 1.83398 8.35636 1.91283 8.502C1.98219 8.63011 2.09285 8.73427 2.22897 8.79954C2.38371 8.87375 2.58629 8.87375 2.99143 8.87375L15.1446 8.87375C15.5498 8.87375 15.7523 8.87375 15.9071 8.79955C16.0432 8.73427 16.1539 8.63011 16.2232 8.502C16.3021 8.35636 16.3021 8.1657 16.3021 7.78439V6.55886C16.3021 6.17755 16.3021 5.98689 16.2232 5.84125C16.1539 5.71314 16.0432 5.60898 15.9071 5.54371C15.7523 5.4695 15.5498 5.4695 15.1446 5.4695L2.99143 5.4695C2.58629 5.4695 2.38371 5.4695 2.22897 5.54371C2.09285 5.60898 1.98219 5.71314 1.91283 5.84125C1.83398 5.98689 1.83398 6.17755 1.83398 6.55886Z" stroke="#DC9555" stroke-width="1.2766" stroke-linecap="round" stroke-linejoin="round"/>
</svg>
