<svg width="18" height="18" viewBox="0 0 18 18" fill="none" xmlns="http://www.w3.org/2000/svg">
<path fill-rule="evenodd" clip-rule="evenodd" d="M3.10685 13.8789L1.80374 15.5989L0.833984 16.8789H2.43986H3.10685H14.834C15.9386 16.8789 16.834 15.9835 16.834 14.8789V6.87891C16.834 5.77434 15.9386 4.87891 14.834 4.87891H5.10685C4.00228 4.87891 3.10685 5.77434 3.10685 6.87891V7.11797V13.8789ZM3.40961 15.5989H14.834C15.2316 15.5989 15.554 15.2766 15.554 14.8789V6.87891C15.554 6.48126 15.2316 6.15891 14.834 6.15891H5.10685C4.7092 6.15891 4.38685 6.48126 4.38685 6.87891V7.11797V13.8789V14.309L4.1271 14.6519L3.40961 15.5989ZM12.834 11.8789L6.83398 11.8789V13.1589H12.834V11.8789ZM6.83398 8.87891L12.834 8.87891V10.1589L6.83398 10.1589V8.87891Z" fill="#76A3CC"/>
</svg>
