<svg width="18" height="18" viewBox="0 0 18 18" fill="none" xmlns="http://www.w3.org/2000/svg">
<path d="M7.59994 7.51205H7.60675M11.685 11.5972H11.6919M12.3659 6.8312L6.91909 12.278M16.451 9.5546C16.451 13.3148 13.4027 16.3631 9.6425 16.3631C5.88226 16.3631 2.83398 13.3148 2.83398 9.5546C2.83398 5.79437 5.88226 2.74609 9.6425 2.74609C13.4027 2.74609 16.451 5.79437 16.451 9.5546ZM7.94037 7.51205C7.94037 7.70006 7.78795 7.85248 7.59994 7.85248C7.41193 7.85248 7.25952 7.70006 7.25952 7.51205C7.25952 7.32404 7.41193 7.17163 7.59994 7.17163C7.78795 7.17163 7.94037 7.32404 7.94037 7.51205ZM12.0255 11.5972C12.0255 11.7852 11.8731 11.9376 11.685 11.9376C11.497 11.9376 11.3446 11.7852 11.3446 11.5972C11.3446 11.4091 11.497 11.2567 11.685 11.2567C11.8731 11.2567 12.0255 11.4091 12.0255 11.5972Z" stroke="#BB2749" stroke-width="1.2766" stroke-linecap="round" stroke-linejoin="round"/>
</svg>
