<svg width="52" height="51" viewBox="0 0 52 51" fill="none" xmlns="http://www.w3.org/2000/svg">
<g clip-path="url(#clip0_1474_20595)">
<path d="M46.5598 2.00121H31.0759C30.8706 2.00121 30.6737 2.08274 30.5285 2.22788C30.3833 2.37301 30.3017 2.56986 30.3017 2.77511V12.3096C25.7447 10.7664 20.7756 10.9777 16.3662 12.9024V8.96635C16.3662 8.7611 16.2847 8.56425 16.1395 8.41912C15.9943 8.27398 15.7974 8.19245 15.592 8.19245H0.108178C-0.097151 8.19245 -0.29407 8.27398 -0.43926 8.41912C-0.584449 8.56425 -0.666016 8.7611 -0.666016 8.96635V19.801C-0.666016 20.0063 -0.584449 20.2031 -0.43926 20.3483C-0.29407 20.4934 -0.097151 20.5749 0.108178 20.5749H7.5745C5.59209 23.8253 4.6127 27.5879 4.75892 31.3919C4.90513 35.196 6.17045 38.8724 8.39651 41.9611C10.6226 45.0498 13.7105 47.4136 17.2739 48.7567C20.8372 50.0998 24.7177 50.3625 28.4296 49.512C32.1416 48.6614 35.5202 46.7354 38.1425 43.9749C40.7649 41.2144 42.5145 37.7421 43.1725 33.9925C43.8304 30.2429 43.3675 26.3826 41.8416 22.8948C40.3157 19.4069 37.7946 16.4464 34.5939 14.3837H46.5598C46.7651 14.3837 46.962 14.3022 47.1072 14.157C47.2524 14.0119 47.334 13.815 47.334 13.6098V2.77511C47.334 2.56986 47.2524 2.37301 47.1072 2.22788C46.962 2.08274 46.7651 2.00121 46.5598 2.00121ZM22.4142 31.5551C23.2821 32.4223 24.4497 32.9236 25.6763 32.9557C26.903 32.9879 28.0952 32.5483 29.0073 31.7277L31.655 29.3456C32.9687 28.1631 34.6741 27.509 36.4419 27.5099H37.0813C38.8493 27.5075 40.5546 28.1646 41.8635 29.3526C41.8937 29.7767 41.9146 30.2039 41.9146 30.6357C41.9137 31.4121 41.8619 32.1877 41.7598 32.9574H36.136C35.2051 32.9582 34.3124 33.3282 33.654 33.9862C32.9957 34.6442 32.6253 35.5364 32.6243 36.4671C32.6249 36.7249 32.5744 36.9803 32.4757 37.2185C32.377 37.4566 32.232 37.6729 32.0491 37.8547C31.0913 38.8144 30.5534 40.1147 30.5534 41.4704C30.5534 42.826 31.0913 44.1263 32.0491 45.0861L33.0114 46.0434C31.6755 46.8176 30.244 47.4137 28.7533 47.8164V41.8844C28.7531 39.9273 27.9752 38.0503 26.5907 36.6665C25.2062 35.2826 23.3285 34.5052 21.3706 34.5052C20.6595 34.5042 19.9779 34.2213 19.4752 33.7186C18.9724 33.2159 18.6896 32.5345 18.6888 31.8236V31.2935C18.6907 30.7378 18.5821 30.1873 18.3695 29.6738C18.1568 29.1603 17.8443 28.6942 17.4501 28.3024C17.1065 27.9618 16.7447 27.6402 16.3662 27.3389V20.6732C17.6798 20.9435 18.8595 21.659 19.706 22.6988C20.5525 23.7385 21.0136 25.0387 21.0114 26.3792V28.1716C21.0101 28.8002 21.1334 29.4229 21.3742 30.0036C21.615 30.5844 21.9685 31.1117 22.4142 31.5551ZM14.8179 9.74026V13.6098H0.882371V9.74026H14.8179ZM0.882371 15.1576H14.8179V19.0271H0.882371V15.1576ZM14.8179 20.5749V26.2778C12.7947 25.0768 10.4849 24.4435 8.13192 24.4445H7.41966C7.92869 23.0767 8.60478 21.777 9.43256 20.5749H14.8179ZM6.30173 30.6357C6.30299 29.0674 6.51124 27.5061 6.92108 25.9923H8.12805C10.5244 25.9881 12.8626 26.73 14.8179 28.1151V38.3747H16.3662V29.4106C16.8634 29.9111 17.1418 30.5882 17.1404 31.2935V31.8236C17.1415 32.9449 17.5874 34.0199 18.3805 34.8129C19.1736 35.6058 20.249 36.0518 21.3706 36.053C22.1368 36.0529 22.8954 36.2037 23.6033 36.4967C24.3111 36.7897 24.9543 37.2192 25.4961 37.7607C26.0378 38.3022 26.4676 38.9451 26.7608 39.6527C27.054 40.3602 27.205 41.1186 27.205 41.8844V48.1608C24.6439 48.6161 22.0141 48.5043 19.5009 47.8335C16.9877 47.1626 14.6523 45.9489 12.6592 44.2779C10.6661 42.6069 9.06393 40.5194 7.9655 38.1623C6.86706 35.8052 6.29913 33.236 6.30173 30.6357ZM34.3422 45.189L33.1438 43.9918C32.4761 43.3224 32.1011 42.4157 32.1011 41.4704C32.1011 40.5251 32.4761 39.6184 33.1438 38.949C33.4711 38.624 33.7307 38.2373 33.9073 37.8112C34.0839 37.3851 34.1741 36.9283 34.1727 36.4671C34.1735 35.9469 34.3807 35.4482 34.7487 35.0805C35.1167 34.7127 35.6157 34.5058 36.136 34.5052H41.4857C40.5147 38.8298 37.9683 42.6383 34.3422 45.189ZM41.5825 27.2243C40.2267 26.3981 38.6693 25.9614 37.0813 25.9621H36.4419C34.2913 25.9605 32.2166 26.7563 30.6191 28.1956L27.9714 30.5777C27.5054 30.9965 26.928 31.2715 26.309 31.3692C25.69 31.467 25.056 31.3834 24.4835 31.1286C23.911 30.8737 23.4247 30.4585 23.0833 29.9332C22.7419 29.4079 22.5601 28.7949 22.5598 28.1685V26.3792C22.5601 24.6282 21.9372 22.9342 20.8024 21.6002C19.6677 20.2663 18.0952 19.3794 16.3662 19.0983V14.6097C18.5244 13.5658 20.8715 12.969 23.2663 12.8551C25.6611 12.7413 28.0542 13.1128 30.3017 13.9472V25.2184H31.8501V14.6089C34.3385 15.8151 36.5128 17.5824 38.2017 19.7716C39.8905 21.9607 41.0479 24.512 41.5825 27.2243ZM45.7856 3.54902V5.09683H31.8501V3.54902H45.7856ZM45.7856 6.64464V9.74026H31.8501V6.64464H45.7856ZM31.8501 12.8359V11.2881H45.7856V12.8359H31.8501Z" fill="#8A6048"/>
</g>
<defs>
<clipPath id="clip0_1474_20595">
<rect width="51" height="51" fill="white" transform="translate(0.333984 0.000602722)"/>
</clipPath>
</defs>
</svg>
