<svg width="52" height="51" viewBox="0 0 52 51" fill="none" xmlns="http://www.w3.org/2000/svg">
<g clip-path="url(#clip0_1474_20599)">
<path d="M36.3263 46.22C36.3251 45.3018 36.0075 44.4121 35.4268 43.7008C34.8462 42.9896 34.0381 42.5002 33.1388 42.3153V31.8762C33.1332 28.4461 31.9644 25.1194 29.8233 22.4396C27.6823 19.7598 24.6956 17.8855 21.3514 17.1229L25.1334 5.02152C25.1709 4.90216 25.1798 4.77564 25.1594 4.6522C25.1389 4.52876 25.0897 4.41187 25.0156 4.311C24.9416 4.21012 24.8449 4.1281 24.7333 4.07156C24.6216 4.01503 24.4983 3.98557 24.3732 3.98558C22.6449 3.98797 20.9685 4.57589 19.6174 5.65344L18.1121 6.85831C17.2885 5.95609 16.2864 5.23486 15.1694 4.74033C14.0524 4.24581 12.8448 3.98879 11.6232 3.98558H10.0294C9.89712 3.98565 9.76694 4.01865 9.6506 4.0816C9.53425 4.14455 9.43541 4.23547 9.36299 4.34616C9.29056 4.45685 9.24683 4.58383 9.23574 4.71565C9.22466 4.84747 9.24655 4.97997 9.29947 5.10121L14.5716 17.1428C11.2441 17.9187 8.27647 19.7962 6.15012 22.4706C4.02376 25.145 2.86348 28.4595 2.85753 31.8762V42.3153C1.8892 42.5119 1.02848 43.0613 0.44245 43.8568C-0.143579 44.6524 -0.413105 45.6373 -0.313803 46.6204C-0.214502 47.6035 0.246542 48.5146 0.979826 49.1769C1.71311 49.8391 2.66632 50.2053 3.6544 50.2043H32.3419C33.3982 50.2031 34.4109 49.7829 35.1579 49.0359C35.9048 48.289 36.325 47.2763 36.3263 46.22ZM11.2478 5.57933H11.6232C12.7361 5.5821 13.8332 5.84254 14.8286 6.34025C15.824 6.83796 16.6907 7.55941 17.3607 8.44808C17.4247 8.53352 17.5052 8.60521 17.5975 8.65891C17.6898 8.71261 17.792 8.74721 17.8979 8.76067C18.0038 8.77412 18.1114 8.76615 18.2141 8.73723C18.3169 8.70831 18.4128 8.65903 18.4962 8.59231L20.6135 6.89816C21.383 6.28457 22.2906 5.86798 23.2575 5.68452L19.768 16.8479C19.709 16.8416 19.6517 16.8272 19.5919 16.8208V11.9543H17.9982V16.7356C17.9456 16.7356 17.8946 16.7428 17.8388 16.7435L16.3821 10.1877L14.825 10.5335L16.2283 16.8479C16.2108 16.8479 16.194 16.8535 16.1773 16.8551L11.2478 5.57933ZM1.26378 46.22C1.26378 45.5859 1.51565 44.9779 1.96398 44.5295C2.41231 44.0812 3.02037 43.8293 3.6544 43.8293H7.63878V42.2356H4.45128V31.8762C4.45128 28.2833 5.87854 24.8377 8.41907 22.2971C10.9596 19.7566 14.4053 18.3293 17.9982 18.3293C21.591 18.3293 25.0367 19.7566 27.5772 22.2971C30.1178 24.8377 31.545 28.2833 31.545 31.8762V42.2356H28.3575V43.8293H32.3419C32.9759 43.8293 33.584 44.0812 34.0323 44.5295C34.4807 44.9779 34.7325 45.5859 34.7325 46.22C34.7325 46.854 34.4807 47.4621 34.0323 47.9104C33.584 48.3587 32.9759 48.6106 32.3419 48.6106H3.6544C3.02037 48.6106 2.41231 48.3587 1.96398 47.9104C1.51565 47.4621 1.26378 46.854 1.26378 46.22Z" fill="#8A6048"/>
<path d="M17.9982 25.5019C19.1456 25.4991 20.2798 25.7463 21.3219 26.2263L21.9881 24.7776C19.9706 23.8502 17.6933 23.6538 15.5468 24.222C13.4003 24.7903 11.5185 26.0879 10.2242 27.8921C8.92988 29.6963 8.30381 31.8947 8.45337 34.1102C8.60293 36.3256 9.5188 38.4199 11.0438 40.0338L12.2025 38.9396C11.1344 37.8077 10.4211 36.3877 10.1507 34.855C9.88036 33.3223 10.0648 31.7439 10.6811 30.3148C11.2975 28.8857 12.3189 27.6683 13.6192 26.813C14.9195 25.9578 16.4418 25.502 17.9982 25.5019Z" fill="#8A6048"/>
<path d="M24.0833 26.095L23.0681 27.3237C24.6453 28.6169 25.6666 30.4655 25.9217 32.489C26.1768 34.5125 25.6464 36.5569 24.4396 38.201C23.2328 39.8452 21.4416 40.9641 19.4346 41.3273C17.4277 41.6905 15.3579 41.2704 13.6514 40.1534L12.7812 41.489C14.8288 42.8294 17.3124 43.3338 19.7207 42.8982C22.129 42.4627 24.2786 41.1203 25.7269 39.1476C27.1753 37.1749 27.8121 34.7219 27.5064 32.2937C27.2006 29.8656 25.9755 27.647 24.0833 26.095Z" fill="#8A6048"/>
<path d="M17.998 26.2981C15.3174 26.2981 13.2168 29.4481 13.2168 33.47C13.2168 37.4918 15.3174 40.6418 17.998 40.6418C20.6787 40.6418 22.7793 37.4918 22.7793 33.47C22.7793 29.4481 20.6787 26.2981 17.998 26.2981ZM14.8105 33.47C14.7921 32.1486 15.0957 30.8426 15.6951 29.6649C15.8974 31.0929 16.4776 32.441 17.3757 33.5696C18.2925 34.7183 18.7928 36.1439 18.7949 37.6137V38.8568C18.5467 38.9788 18.2746 39.0441 17.998 39.0481C16.2704 39.0481 14.8105 36.4933 14.8105 33.47ZM20.3688 37.1451C20.2716 35.4774 19.6609 33.8805 18.6204 32.5735C17.7036 31.4247 17.2032 29.9991 17.2012 28.5293V28.0831C17.4494 27.9612 17.7215 27.8958 17.998 27.8918C19.7257 27.8918 21.1855 30.4466 21.1855 33.47C21.2006 34.7416 20.921 35.9995 20.3688 37.1451Z" fill="#8A6048"/>
<path d="M33.9355 20.72C36.1325 20.72 37.9199 18.5756 37.9199 15.9387C37.9199 13.3018 36.1325 11.1575 33.9355 11.1575C31.7386 11.1575 29.9512 13.3018 29.9512 15.9387C29.9512 18.5756 31.7386 20.72 33.9355 20.72ZM36.3262 15.9387C36.3428 16.8218 36.04 17.6812 35.4735 18.3588C35.3625 17.3929 35.0848 16.4535 34.6527 15.5825C34.2147 14.7012 33.9738 13.735 33.9467 12.7512C35.26 12.7608 36.3262 14.1856 36.3262 15.9387ZM32.3976 13.5186C32.5098 14.4848 32.7889 15.4242 33.2223 16.2949C33.659 17.1766 33.8986 18.1427 33.9244 19.1262C32.6111 19.1166 31.5449 17.6918 31.5449 15.9387C31.5283 15.0556 31.8311 14.1962 32.3976 13.5186Z" fill="#8A6048"/>
<path d="M45.0918 11.1575C42.8948 11.1575 41.1074 13.3018 41.1074 15.9387C41.1074 18.5756 42.8948 20.72 45.0918 20.72C47.2888 20.72 49.0762 18.5756 49.0762 15.9387C49.0762 13.3018 47.2888 11.1575 45.0918 11.1575ZM42.7012 15.9387C42.6845 15.0556 42.9873 14.1962 43.5538 13.5186C43.6661 14.4848 43.9451 15.4242 44.3786 16.2949C44.8153 17.1766 45.0548 18.1427 45.0806 19.1262C43.7674 19.1166 42.7012 17.6918 42.7012 15.9387ZM46.6298 18.3588C46.5188 17.3929 46.2411 16.4535 45.809 15.5825C45.3709 14.7012 45.13 13.735 45.103 12.7512C46.4162 12.7592 47.4824 14.1856 47.4824 15.9387C47.4991 16.8218 47.1963 17.6812 46.6298 18.3588Z" fill="#8A6048"/>
<path d="M43.498 5.57933C43.498 2.94247 41.7107 0.79808 39.5137 0.79808C37.3167 0.79808 35.5293 2.94247 35.5293 5.57933C35.5293 8.21619 37.3167 10.3606 39.5137 10.3606C41.7107 10.3606 43.498 8.21619 43.498 5.57933ZM37.123 5.57933C37.1064 4.69625 37.4092 3.83685 37.9757 3.15922C38.0879 4.1254 38.367 5.06478 38.8005 5.93553C39.2371 6.81718 39.4767 7.7833 39.5025 8.76683C38.1893 8.75727 37.123 7.33246 37.123 5.57933ZM41.0516 7.99944C40.9406 7.0335 40.6629 6.09414 40.2309 5.22313C39.7928 4.34179 39.5519 3.37565 39.5248 2.39183C40.8381 2.40139 41.9043 3.82621 41.9043 5.57933C41.9209 6.46241 41.6181 7.32181 41.0516 7.99944Z" fill="#8A6048"/>
</g>
<defs>
<clipPath id="clip0_1474_20599">
<rect width="51" height="51" fill="white" transform="translate(0.666016 0.000602722)"/>
</clipPath>
</defs>
</svg>
