<svg width="37" height="37" viewBox="0 0 37 37" fill="none" xmlns="http://www.w3.org/2000/svg">
<path d="M34.109 32.1861V13.0552C34.3283 13.1765 34.9331 13.72 35.2003 13.6861C35.3223 13.6837 35.4405 13.643 35.5381 13.5697C35.6357 13.4965 35.7079 13.3944 35.7443 13.278C35.7808 13.1615 35.7797 13.0365 35.7412 12.9207C35.7028 12.8049 35.6289 12.7041 35.53 12.6326L33.86 11.4763L19.8162 1.75376C19.4288 1.48735 18.9697 1.34473 18.4996 1.34473C18.0295 1.34473 17.5704 1.48735 17.183 1.75376C16.1744 2.45104 2.07497 12.2137 1.46918 12.6326C1.34651 12.7212 1.26348 12.8544 1.23792 13.0036C1.21236 13.1528 1.2463 13.306 1.33247 13.4305C1.41863 13.5549 1.55014 13.6406 1.69878 13.6692C1.84741 13.6977 2.00132 13.6669 2.12747 13.5833L2.89021 13.0552V32.1861C2.43369 32.1913 1.99767 32.3764 1.67672 32.7011C1.35577 33.0258 1.17577 33.4639 1.17578 33.9205C1.17579 34.377 1.3558 34.8151 1.67677 35.1398C1.99773 35.4645 2.43376 35.6495 2.89028 35.6548H34.109C34.5655 35.6495 35.0015 35.4645 35.3225 35.1398C35.6434 34.8151 35.8234 34.377 35.8234 33.9204C35.8234 33.4639 35.6434 33.0257 35.3225 32.7011C35.0015 32.3764 34.5655 32.1913 34.109 32.1861ZM21.9203 10.2173H15.0788C15.2214 9.41372 15.6424 8.68599 16.2679 8.16173C16.8934 7.63747 17.6834 7.35015 18.4996 7.35015C19.3157 7.35015 20.1058 7.63747 20.7313 8.16173C21.3568 8.68599 21.7777 9.41372 21.9203 10.2173ZM20.1352 11.3736C20.0121 11.7083 19.7893 11.9972 19.4968 12.2013C19.2043 12.4054 18.8562 12.5148 18.4996 12.5148C18.1429 12.5148 17.7949 12.4054 17.5024 12.2013C17.2099 11.9972 16.9871 11.7083 16.864 11.3736H20.1352ZM4.04646 12.2549C4.13707 12.2086 17.83 2.68072 17.9215 2.66559V6.21056C16.8048 6.35212 15.778 6.89569 15.0331 7.73957C14.2883 8.58345 13.8764 9.66982 13.8746 10.7954C13.8745 10.8713 13.8895 10.9465 13.9185 11.0167C13.9475 11.0869 13.9901 11.1506 14.0438 11.2043C14.0975 11.258 14.1613 11.3006 14.2314 11.3296C14.3016 11.3586 14.3768 11.3736 14.4527 11.3735H15.6674C15.8052 12.0225 16.1617 12.6045 16.6773 13.022C17.1928 13.4396 17.8361 13.6675 18.4996 13.6675C19.163 13.6675 19.8063 13.4396 20.3219 13.022C20.8375 12.6045 21.194 12.0225 21.3318 11.3735H22.5465C22.6224 11.3736 22.6976 11.3586 22.7677 11.3296C22.8379 11.3006 22.9017 11.258 22.9554 11.2043C23.009 11.1506 23.0516 11.0869 23.0807 11.0167C23.1097 10.9465 23.1246 10.8713 23.1246 10.7954C23.1228 9.66982 22.7109 8.58345 21.966 7.73957C21.2212 6.89569 20.1944 6.35212 19.0777 6.21056V2.66559C19.1428 2.66227 32.8869 12.226 32.9527 12.2549V32.1861H27.7496V29.8736H30.0621C30.5219 29.8731 30.9628 29.6902 31.2879 29.365C31.6131 29.0399 31.796 28.599 31.7965 28.1392V21.2017C31.796 20.7418 31.6131 20.301 31.2879 19.9758C30.9628 19.6507 30.5219 19.4678 30.0621 19.4673H20.8121C20.3523 19.4678 19.9114 19.6507 19.5862 19.9758C19.2611 20.301 19.0782 20.7418 19.0777 21.2017V28.1392C19.0782 28.599 19.2611 29.0399 19.5862 29.365C19.9114 29.6902 20.3523 29.8731 20.8121 29.8736H23.1246V32.1861H20.1274C20.2197 31.925 20.2482 31.6457 20.2105 31.3715C20.1727 31.0972 20.0699 30.8359 19.9105 30.6096C19.7512 30.3832 19.5399 30.1982 19.2945 30.0702C19.049 29.9421 18.7764 29.8747 18.4996 29.8736H17.4273C16.9122 28.6778 16.0021 27.6951 14.8493 27.0898C15.4557 26.5425 15.882 25.8243 16.0722 25.0298C16.2624 24.2354 16.2075 23.402 15.9147 22.6394C15.6219 21.8768 15.105 21.2207 14.432 20.7577C13.759 20.2947 12.9615 20.0464 12.1447 20.0455C11.3278 20.0446 10.5298 20.2912 9.85579 20.7527C9.1818 21.2143 8.66344 21.8692 8.36899 22.6312C8.07454 23.3932 8.01781 24.2264 8.20627 25.0213C8.39473 25.8161 8.81954 26.5353 9.42475 27.0839C8.49675 27.5736 7.72048 28.3079 7.18005 29.2073C6.63963 30.1067 6.35567 31.1368 6.35896 32.1861H4.04646V12.2549ZM20.8121 28.7173C20.6588 28.7172 20.5118 28.6563 20.4034 28.5479C20.295 28.4395 20.2341 28.2925 20.234 28.1392V21.2017C20.2341 21.0484 20.295 20.9014 20.4034 20.793C20.5118 20.6846 20.6588 20.6237 20.8121 20.6236H30.0621C30.2154 20.6237 30.3624 20.6846 30.4708 20.793C30.5792 20.9014 30.6401 21.0484 30.6402 21.2017V28.1392C30.6401 28.2925 30.5792 28.4395 30.4708 28.5479C30.3624 28.6563 30.2154 28.7172 30.0621 28.7173H20.8121ZM26.5933 29.8736V32.1861H24.2808V29.8736H26.5933ZM10.602 27.8336C11.5893 28.2381 12.6962 28.2375 13.6831 27.8319C14.7191 28.1964 15.5897 28.9209 16.1362 29.8736H11.5621C11.4102 29.8757 11.2652 29.9376 11.1585 30.0457C11.0519 30.1539 10.9921 30.2998 10.9921 30.4517C10.9921 30.6036 11.0519 30.7494 11.1585 30.8576C11.2652 30.9658 11.4102 31.0277 11.5621 31.0298H18.4996C18.6514 31.0321 18.7963 31.094 18.9029 31.2021C19.0095 31.3103 19.0692 31.4561 19.0692 31.6079C19.0692 31.7598 19.0095 31.9056 18.9029 32.0137C18.7963 32.1219 18.6514 32.1838 18.4996 32.1861H7.51521C7.51322 31.2297 7.80949 30.2964 8.36276 29.5163C8.91604 28.7362 9.69877 28.148 10.602 27.8336ZM9.24958 24.0923C9.2553 23.3294 9.56237 22.5997 10.1038 22.0623C10.6453 21.5248 11.3773 21.2232 12.1402 21.2232C12.9031 21.2233 13.6351 21.5249 14.1766 22.0623C14.7181 22.5997 15.0251 23.3294 15.0308 24.0923C15.0251 24.8552 14.7181 25.5849 14.1766 26.1224C13.6351 26.6598 12.9031 26.9614 12.1402 26.9614C11.3773 26.9614 10.6453 26.6598 10.1038 26.1223C9.56235 25.5849 9.25529 24.8552 9.24958 24.0923ZM34.109 34.4986H2.89021C2.7385 34.4961 2.59382 34.4341 2.4874 34.326C2.38098 34.2178 2.32133 34.0722 2.32133 33.9204C2.32133 33.7687 2.38098 33.623 2.4874 33.5149C2.59382 33.4067 2.7385 33.3447 2.89021 33.3423H34.109C34.2607 33.3447 34.4053 33.4067 34.5118 33.5149C34.6182 33.623 34.6778 33.7687 34.6778 33.9204C34.6778 34.0722 34.6182 34.2178 34.5118 34.326C34.4053 34.4341 34.2607 34.4961 34.109 34.4986Z" fill="#757575"/>
<path d="M25.4364 22.3584C24.8267 22.3639 24.2438 22.6099 23.8146 23.043C23.3853 23.4761 23.1445 24.0611 23.1445 24.6709C23.1445 25.2807 23.3853 25.8657 23.8146 26.2988C24.2438 26.7319 24.8267 26.9779 25.4364 26.9834C26.0462 26.9779 26.6291 26.7319 27.0583 26.2988C27.4875 25.8657 27.7283 25.2807 27.7283 24.6709C27.7283 24.0611 27.4875 23.4761 27.0583 23.043C26.6291 22.6099 26.0462 22.3639 25.4364 22.3584ZM25.4364 25.8271C25.1321 25.8237 24.8413 25.7003 24.6273 25.4839C24.4133 25.2674 24.2933 24.9753 24.2933 24.6709C24.2933 24.3665 24.4133 24.0744 24.6273 23.8579C24.8413 23.6415 25.1321 23.5181 25.4364 23.5146C25.7408 23.5181 26.0315 23.6415 26.2455 23.8579C26.4596 24.0744 26.5796 24.3665 26.5796 24.6709C26.5796 24.9753 26.4596 25.2674 26.2455 25.4839C26.0315 25.7003 25.7408 25.8237 25.4364 25.8271Z" fill="#757575"/>
<path d="M18.5 16.5769C18.5759 16.5769 18.6511 16.562 18.7213 16.533C18.7915 16.5039 18.8552 16.4614 18.9089 16.4077C18.9626 16.354 19.0052 16.2902 19.0342 16.2201C19.0632 16.1499 19.0782 16.0747 19.0781 15.9988V14.8425C19.0781 14.6892 19.0172 14.5422 18.9088 14.4337C18.8004 14.3253 18.6533 14.2644 18.5 14.2644C18.3467 14.2644 18.1996 14.3253 18.0912 14.4337C17.9828 14.5422 17.9219 14.6892 17.9219 14.8425V15.9988C17.9218 16.0747 17.9368 16.1499 17.9658 16.2201C17.9948 16.2902 18.0374 16.354 18.0911 16.4077C18.1448 16.4614 18.2085 16.5039 18.2787 16.533C18.3489 16.562 18.4241 16.5769 18.5 16.5769Z" fill="#757575"/>
<path d="M20.6009 15.5909C20.6791 15.7207 20.8051 15.8145 20.9518 15.8523C21.0984 15.8902 21.2541 15.8689 21.3853 15.7932C21.5165 15.7175 21.6127 15.5933 21.6533 15.4474C21.6939 15.3014 21.6757 15.1454 21.6024 15.0128L21.0243 14.0118C20.9477 13.879 20.8214 13.7821 20.6732 13.7424C20.5251 13.7027 20.3673 13.7234 20.2345 13.8001C20.1017 13.8768 20.0047 14.003 19.965 14.1512C19.9253 14.2993 19.9461 14.4571 20.0228 14.5899L20.6009 15.5909Z" fill="#757575"/>
<path d="M15.6095 15.8027C15.7424 15.8791 15.9002 15.8998 16.0482 15.8601C16.1963 15.8204 16.3226 15.7236 16.3994 15.5909L16.9775 14.5899C17.0542 14.4571 17.0749 14.2993 17.0352 14.1512C16.9955 14.003 16.8986 13.8768 16.7658 13.8001C16.633 13.7234 16.4751 13.7027 16.327 13.7424C16.1789 13.7821 16.0526 13.879 15.9759 14.0118L15.3978 15.0128C15.3598 15.0786 15.3352 15.1512 15.3253 15.2265C15.3153 15.3017 15.3204 15.3782 15.34 15.4516C15.3597 15.5249 15.3936 15.5937 15.4398 15.6539C15.4861 15.7142 15.5437 15.7647 15.6095 15.8027Z" fill="#757575"/>
</svg>
