<svg width="37" height="37" viewBox="0 0 37 37" fill="none" xmlns="http://www.w3.org/2000/svg">
<path d="M7.55031 34.6875H30.8372C30.9997 34.6875 31.1556 34.6229 31.2705 34.508C31.3854 34.3931 31.45 34.2372 31.45 34.0747V1.59562C31.45 1.27056 31.3209 0.958822 31.091 0.728972C30.8612 0.499123 30.5494 0.369995 30.2244 0.369995H26.5475C26.2224 0.369995 25.9107 0.499123 25.6809 0.728972C25.451 0.958822 25.3219 1.27056 25.3219 1.59562V2.82124H11.2272C10.9021 2.82124 10.5904 2.95037 10.3605 3.18022C10.1307 3.41007 10.0016 3.72181 10.0016 4.04687V5.27249H9.38875C9.06369 5.27249 8.75195 5.40162 8.5221 5.63147C8.29225 5.86132 8.16312 6.17306 8.16312 6.49812V33.4619H7.55031C7.38778 33.4619 7.23191 33.5264 7.11699 33.6414C7.00206 33.7563 6.9375 33.9122 6.9375 34.0747C6.9375 34.2372 7.00206 34.3931 7.11699 34.508C7.23191 34.6229 7.38778 34.6875 7.55031 34.6875ZM13.6784 33.4619V28.5594H21.0322V33.4619H13.6784ZM26.5475 1.59562H30.2244V33.4619H26.5475V1.59562ZM11.2272 4.04687H25.3219V5.27249H11.2272V4.04687ZM9.38875 6.49812H25.3219V33.4619H22.2578V28.5594C22.2578 28.2343 22.1287 27.9226 21.8988 27.6927C21.669 27.4629 21.3572 27.3337 21.0322 27.3337H13.6784C13.3534 27.3337 13.0416 27.4629 12.8118 27.6927C12.5819 27.9226 12.4528 28.2343 12.4528 28.5594V33.4619H9.38875V6.49812Z" fill="#757575"/>
<path d="M28.3863 7.11082C28.5488 7.11082 28.7046 7.04625 28.8196 6.93133C28.9345 6.8164 28.9991 6.66053 28.9991 6.498V4.65957C28.9991 4.49704 28.9345 4.34117 28.8196 4.22624C28.7046 4.11132 28.5488 4.04675 28.3863 4.04675C28.2237 4.04675 28.0679 4.11132 27.9529 4.22624C27.838 4.34117 27.7734 4.49704 27.7734 4.65957V6.498C27.7734 6.66053 27.838 6.8164 27.9529 6.93133C28.0679 7.04625 28.2237 7.11082 28.3863 7.11082Z" fill="#757575"/>
<path d="M11.8394 10.1747H13.6778C13.8403 10.1747 13.9962 10.1102 14.1111 9.99523C14.2261 9.88031 14.2906 9.72444 14.2906 9.56191C14.2906 9.39938 14.2261 9.24351 14.1111 9.12858C13.9962 9.01366 13.8403 8.9491 13.6778 8.9491H11.8394C11.6768 8.9491 11.521 9.01366 11.4061 9.12858C11.2911 9.24351 11.2266 9.39938 11.2266 9.56191C11.2266 9.72444 11.2911 9.88031 11.4061 9.99523C11.521 10.1102 11.6768 10.1747 11.8394 10.1747Z" fill="#757575"/>
<path d="M16.437 10.1747H18.2755C18.438 10.1747 18.5939 10.1102 18.7088 9.99523C18.8237 9.88031 18.8883 9.72444 18.8883 9.56191C18.8883 9.39938 18.8237 9.24351 18.7088 9.12858C18.5939 9.01366 18.438 8.9491 18.2755 8.9491H16.437C16.2745 8.9491 16.1186 9.01366 16.0037 9.12858C15.8888 9.24351 15.8242 9.39938 15.8242 9.56191C15.8242 9.72444 15.8888 9.88031 16.0037 9.99523C16.1186 10.1102 16.2745 10.1747 16.437 10.1747Z" fill="#757575"/>
<path d="M21.0308 10.1747H22.8692C23.0317 10.1747 23.1876 10.1102 23.3025 9.99523C23.4175 9.88031 23.482 9.72444 23.482 9.56191C23.482 9.39938 23.4175 9.24351 23.3025 9.12858C23.1876 9.01366 23.0317 8.9491 22.8692 8.9491H21.0308C20.8683 8.9491 20.7124 9.01366 20.5975 9.12858C20.4825 9.24351 20.418 9.39938 20.418 9.56191C20.418 9.72444 20.4825 9.88031 20.5975 9.99523C20.7124 10.1102 20.8683 10.1747 21.0308 10.1747Z" fill="#757575"/>
<path d="M11.8394 13.8515H13.6778C13.8403 13.8515 13.9962 13.7869 14.1111 13.672C14.2261 13.5571 14.2906 13.4012 14.2906 13.2387C14.2906 13.0761 14.2261 12.9203 14.1111 12.8053C13.9962 12.6904 13.8403 12.6259 13.6778 12.6259H11.8394C11.6768 12.6259 11.521 12.6904 11.4061 12.8053C11.2911 12.9203 11.2266 13.0761 11.2266 13.2387C11.2266 13.4012 11.2911 13.5571 11.4061 13.672C11.521 13.7869 11.6768 13.8515 11.8394 13.8515Z" fill="#757575"/>
<path d="M16.437 13.8515H18.2755C18.438 13.8515 18.5939 13.7869 18.7088 13.672C18.8237 13.5571 18.8883 13.4012 18.8883 13.2387C18.8883 13.0761 18.8237 12.9203 18.7088 12.8053C18.5939 12.6904 18.438 12.6259 18.2755 12.6259H16.437C16.2745 12.6259 16.1186 12.6904 16.0037 12.8053C15.8888 12.9203 15.8242 13.0761 15.8242 13.2387C15.8242 13.4012 15.8888 13.5571 16.0037 13.672C16.1186 13.7869 16.2745 13.8515 16.437 13.8515Z" fill="#757575"/>
<path d="M21.0308 13.8515H22.8692C23.0317 13.8515 23.1876 13.7869 23.3025 13.672C23.4175 13.5571 23.482 13.4012 23.482 13.2387C23.482 13.0761 23.4175 12.9203 23.3025 12.8053C23.1876 12.6904 23.0317 12.6259 22.8692 12.6259H21.0308C20.8683 12.6259 20.7124 12.6904 20.5975 12.8053C20.4825 12.9203 20.418 13.0761 20.418 13.2387C20.418 13.4012 20.4825 13.5571 20.5975 13.672C20.7124 13.7869 20.8683 13.8515 21.0308 13.8515Z" fill="#757575"/>
<path d="M11.8394 17.5292H13.6778C13.8403 17.5292 13.9962 17.4647 14.1111 17.3497C14.2261 17.2348 14.2906 17.0789 14.2906 16.9164C14.2906 16.7539 14.2261 16.598 14.1111 16.4831C13.9962 16.3682 13.8403 16.3036 13.6778 16.3036H11.8394C11.6768 16.3036 11.521 16.3682 11.4061 16.4831C11.2911 16.598 11.2266 16.7539 11.2266 16.9164C11.2266 17.0789 11.2911 17.2348 11.4061 17.3497C11.521 17.4647 11.6768 17.5292 11.8394 17.5292Z" fill="#757575"/>
<path d="M16.437 17.5292H18.2755C18.438 17.5292 18.5939 17.4647 18.7088 17.3497C18.8237 17.2348 18.8883 17.0789 18.8883 16.9164C18.8883 16.7539 18.8237 16.598 18.7088 16.4831C18.5939 16.3682 18.438 16.3036 18.2755 16.3036H16.437C16.2745 16.3036 16.1186 16.3682 16.0037 16.4831C15.8888 16.598 15.8242 16.7539 15.8242 16.9164C15.8242 17.0789 15.8888 17.2348 16.0037 17.3497C16.1186 17.4647 16.2745 17.5292 16.437 17.5292Z" fill="#757575"/>
<path d="M21.0308 17.5292H22.8692C23.0317 17.5292 23.1876 17.4647 23.3025 17.3497C23.4175 17.2348 23.482 17.0789 23.482 16.9164C23.482 16.7539 23.4175 16.598 23.3025 16.4831C23.1876 16.3682 23.0317 16.3036 22.8692 16.3036H21.0308C20.8683 16.3036 20.7124 16.3682 20.5975 16.4831C20.4825 16.598 20.418 16.7539 20.418 16.9164C20.418 17.0789 20.4825 17.2348 20.5975 17.3497C20.7124 17.4647 20.8683 17.5292 21.0308 17.5292Z" fill="#757575"/>
<path d="M11.8394 21.206H13.6778C13.8403 21.206 13.9962 21.1414 14.1111 21.0265C14.2261 20.9116 14.2906 20.7557 14.2906 20.5932C14.2906 20.4306 14.2261 20.2748 14.1111 20.1598C13.9962 20.0449 13.8403 19.9803 13.6778 19.9803H11.8394C11.6768 19.9803 11.521 20.0449 11.4061 20.1598C11.2911 20.2748 11.2266 20.4306 11.2266 20.5932C11.2266 20.7557 11.2911 20.9116 11.4061 21.0265C11.521 21.1414 11.6768 21.206 11.8394 21.206Z" fill="#757575"/>
<path d="M16.437 21.206H18.2755C18.438 21.206 18.5939 21.1414 18.7088 21.0265C18.8237 20.9116 18.8883 20.7557 18.8883 20.5932C18.8883 20.4306 18.8237 20.2748 18.7088 20.1598C18.5939 20.0449 18.438 19.9803 18.2755 19.9803H16.437C16.2745 19.9803 16.1186 20.0449 16.0037 20.1598C15.8888 20.2748 15.8242 20.4306 15.8242 20.5932C15.8242 20.7557 15.8888 20.9116 16.0037 21.0265C16.1186 21.1414 16.2745 21.206 16.437 21.206Z" fill="#757575"/>
<path d="M21.0308 21.206H22.8692C23.0317 21.206 23.1876 21.1414 23.3025 21.0265C23.4175 20.9116 23.482 20.7557 23.482 20.5932C23.482 20.4306 23.4175 20.2748 23.3025 20.1598C23.1876 20.0449 23.0317 19.9803 22.8692 19.9803H21.0308C20.8683 19.9803 20.7124 20.0449 20.5975 20.1598C20.4825 20.2748 20.418 20.4306 20.418 20.5932C20.418 20.7557 20.4825 20.9116 20.5975 21.0265C20.7124 21.1414 20.8683 21.206 21.0308 21.206Z" fill="#757575"/>
<path d="M13.6778 24.8827C13.8403 24.8827 13.9962 24.8182 14.1111 24.7032C14.2261 24.5883 14.2906 24.4324 14.2906 24.2699C14.2906 24.1074 14.2261 23.9515 14.1111 23.8366C13.9962 23.7217 13.8403 23.6571 13.6778 23.6571H11.8394C11.6768 23.6571 11.521 23.7217 11.4061 23.8366C11.2911 23.9515 11.2266 24.1074 11.2266 24.2699C11.2266 24.4324 11.2911 24.5883 11.4061 24.7032C11.521 24.8182 11.6768 24.8827 11.8394 24.8827H13.6778Z" fill="#757575"/>
<path d="M16.437 24.8827H18.2755C18.438 24.8827 18.5939 24.8182 18.7088 24.7032C18.8237 24.5883 18.8883 24.4324 18.8883 24.2699C18.8883 24.1074 18.8237 23.9515 18.7088 23.8366C18.5939 23.7217 18.438 23.6571 18.2755 23.6571H16.437C16.2745 23.6571 16.1186 23.7217 16.0037 23.8366C15.8888 23.9515 15.8242 24.1074 15.8242 24.2699C15.8242 24.4324 15.8888 24.5883 16.0037 24.7032C16.1186 24.8182 16.2745 24.8827 16.437 24.8827Z" fill="#757575"/>
<path d="M21.0308 24.8827H22.8692C23.0317 24.8827 23.1876 24.8182 23.3025 24.7032C23.4175 24.5883 23.482 24.4324 23.482 24.2699C23.482 24.1074 23.4175 23.9515 23.3025 23.8366C23.1876 23.7217 23.0317 23.6571 22.8692 23.6571H21.0308C20.8683 23.6571 20.7124 23.7217 20.5975 23.8366C20.4825 23.9515 20.418 24.1074 20.418 24.2699C20.418 24.4324 20.4825 24.5883 20.5975 24.7032C20.7124 24.8182 20.8683 24.8827 21.0308 24.8827Z" fill="#757575"/>
<path d="M28.3863 9.56828C28.7247 9.56828 28.9991 9.29391 28.9991 8.95546C28.9991 8.61702 28.7247 8.34265 28.3863 8.34265C28.0478 8.34265 27.7734 8.61702 27.7734 8.95546C27.7734 9.29391 28.0478 9.56828 28.3863 9.56828Z" fill="#757575"/>
</svg>
