<svg width="37" height="37" viewBox="0 0 37 37" fill="none" xmlns="http://www.w3.org/2000/svg">
<path d="M34.3566 16.7906C34.2732 16.7012 34.2094 16.5954 34.169 16.48C34.1286 16.3646 34.1126 16.2421 34.122 16.1202C34.1314 15.9984 34.1659 15.8797 34.2235 15.7719C34.281 15.664 34.3603 15.5693 34.4563 15.4936C34.5513 15.4198 34.6211 15.3183 34.6559 15.2031C34.6908 15.0879 34.6891 14.9648 34.651 14.8506C34.6129 14.7365 34.5404 14.6369 34.4434 14.5658C34.3464 14.4946 34.2297 14.4552 34.1094 14.4531H33.177C33.0279 14.2971 32.9454 14.0891 32.947 13.8733C32.9486 13.6574 33.0341 13.4507 33.1855 13.2969H34.6875C34.8078 13.2947 34.9245 13.2553 35.0215 13.1841C35.1185 13.1129 35.191 13.0133 35.2291 12.8992C35.2671 12.785 35.2688 12.6618 35.234 12.5467C35.1991 12.4315 35.1294 12.33 35.0344 12.2561C34.9267 12.1753 34.8393 12.0706 34.7791 11.9502C34.7188 11.8298 34.6875 11.697 34.6875 11.5624C34.6875 11.4277 34.7188 11.2949 34.7791 11.1745C34.8393 11.0541 34.9267 10.9494 35.0344 10.8686C35.1294 10.7948 35.1991 10.6932 35.2339 10.5781C35.2687 10.4629 35.267 10.3398 35.229 10.2257C35.1909 10.1115 35.1184 10.012 35.0214 9.94082C34.9245 9.86962 34.8078 9.83025 34.6875 9.82812H26.5938C26.3169 9.82929 26.0444 9.89672 25.7989 10.0248C25.5534 10.1528 25.3422 10.3378 25.1829 10.5641C25.0235 10.7905 24.9207 11.0518 24.8829 11.326C24.8452 11.6003 24.8736 11.8796 24.9659 12.1406C24.5396 12.1184 24.1201 12.2541 23.7876 12.5219C23.4552 12.7897 23.2332 13.1707 23.1642 13.592C23.0951 14.0133 23.1839 14.4452 23.4136 14.8051C23.6432 15.165 23.9975 15.4275 24.4086 15.5425C24.2487 15.9332 24.2413 16.3697 24.3878 16.7656H21.3906C21.3901 16.3058 21.2072 15.8649 20.8821 15.5398C20.5569 15.2146 20.1161 15.0318 19.6562 15.0312H18.5C18.0402 15.0318 17.5993 15.2146 17.2742 15.5398C16.949 15.8649 16.7661 16.3058 16.7656 16.7656H14.6491C13.7251 16.0476 13.4312 14.6613 13.3398 13.875H17.9219C18.3817 13.8745 18.8226 13.6916 19.1477 13.3665C19.4729 13.0413 19.6557 12.6005 19.6562 12.1406V2.89062C19.6557 2.43079 19.4729 1.98994 19.1477 1.66479C18.8226 1.33964 18.3817 1.15675 17.9219 1.15625H5.20312C4.74329 1.15675 4.30244 1.33964 3.97729 1.66479C3.65214 1.98994 3.46925 2.43079 3.46875 2.89062V12.1406C3.46925 12.6005 3.65214 13.0413 3.97729 13.3665C4.30244 13.6916 4.74329 13.8745 5.20312 13.875H9.78525C9.69379 14.6613 9.3999 16.0476 8.4759 16.7656H2.89062C2.43079 16.7661 1.98994 16.949 1.66479 17.2742C1.33964 17.5993 1.15675 18.0402 1.15625 18.5V20.8125C1.15675 21.2723 1.33964 21.7132 1.66479 22.0383C1.98994 22.3635 2.43079 22.5464 2.89062 22.5469V34.6875C2.89093 34.9941 3.01285 35.288 3.22962 35.5048C3.44639 35.7215 3.74031 35.8434 4.04688 35.8438H5.20312C5.50969 35.8434 5.80361 35.7215 6.02038 35.5048C6.23715 35.288 6.35907 34.9941 6.35938 34.6875V22.5469H20.2344V31.2188C20.2349 31.6786 20.4178 32.1194 20.7429 32.4446C21.0681 32.7697 21.5089 32.9526 21.9688 32.9531H30.6406V34.6875C30.6409 34.9941 30.7628 35.288 30.9796 35.5048C31.1964 35.7215 31.4903 35.8434 31.7969 35.8438H32.9531C33.2597 35.8434 33.5536 35.7215 33.7704 35.5048C33.9872 35.288 34.1091 34.9941 34.1094 34.6875V22.5469C34.5692 22.5464 35.0101 22.3635 35.3352 22.0383C35.6604 21.7132 35.8432 21.2723 35.8438 20.8125V18.5C35.8426 18.0839 35.6916 17.6822 35.4185 17.3683C35.1454 17.0544 34.7685 16.8493 34.3566 16.7906ZM26.0156 11.5625C26.0158 11.4092 26.0768 11.2623 26.1852 11.1539C26.2936 11.0455 26.4405 10.9846 26.5938 10.9844H33.6171C33.4964 11.3606 33.4982 11.7654 33.6222 12.1406H26.5938C26.4405 12.1404 26.2936 12.0795 26.1852 11.9711C26.0768 11.8627 26.0158 11.7158 26.0156 11.5625ZM24.8594 13.2969H31.8827C31.7621 13.6731 31.7638 14.0779 31.8878 14.4531H24.8594C24.708 14.4501 24.5639 14.3879 24.458 14.2798C24.352 14.1717 24.2927 14.0264 24.2927 13.875C24.2927 13.7236 24.352 13.5783 24.458 13.4702C24.5639 13.3621 24.708 13.2999 24.8594 13.2969ZM25.4375 16.1875C25.4377 16.0342 25.4987 15.8873 25.607 15.7789C25.7154 15.6705 25.8624 15.6096 26.0156 15.6094H33.0389C32.9183 15.9856 32.9201 16.3904 33.044 16.7656H26.0156C25.8624 16.7654 25.7154 16.7045 25.607 16.5961C25.4987 16.4877 25.4377 16.3408 25.4375 16.1875ZM18.5 16.1875H19.6562C19.8095 16.1877 19.9564 16.2487 20.0648 16.357C20.1732 16.4654 20.2342 16.6124 20.2344 16.7656H17.9219C17.9221 16.6124 17.983 16.4654 18.0914 16.357C18.1998 16.2487 18.3467 16.1877 18.5 16.1875ZM5.20312 2.3125H17.9219C18.0751 2.3127 18.2221 2.37367 18.3305 2.48205C18.4388 2.59042 18.4998 2.73736 18.5 2.89062V9.82812H4.625V2.89062C4.6252 2.73736 4.68617 2.59042 4.79455 2.48205C4.90292 2.37367 5.04986 2.3127 5.20312 2.3125ZM4.625 12.1406V10.9844H18.5V12.1406C18.4998 12.2939 18.4388 12.4408 18.3305 12.5492C18.2221 12.6576 18.0751 12.7186 17.9219 12.7188H5.20312C5.04986 12.7186 4.90292 12.6576 4.79455 12.5492C4.68617 12.4408 4.6252 12.2939 4.625 12.1406ZM10.9499 13.875H12.1751C12.2592 14.897 12.5771 15.886 13.1041 16.7656H10.0209C10.5479 15.886 10.8658 14.897 10.9499 13.875ZM5.20395 34.6875H4.04688V22.5469H5.20312L5.20395 34.6875ZM21.3906 31.2188V27.75H32.9531V31.7969H21.9688C21.8155 31.7967 21.6686 31.7357 21.5602 31.6273C21.4518 31.5189 21.3908 31.372 21.3906 31.2188ZM31.7969 34.6875V32.9531H32.9531V34.6875H31.7969ZM32.9531 26.5938H21.3906V22.5469H32.9531V26.5938ZM34.6875 20.8125C34.6873 20.9658 34.6263 21.1127 34.518 21.2211C34.4096 21.3295 34.2626 21.3904 34.1094 21.3906H2.89062C2.73736 21.3904 2.59042 21.3295 2.48205 21.2211C2.37367 21.1127 2.3127 20.9658 2.3125 20.8125V18.5C2.3127 18.3467 2.37367 18.1998 2.48205 18.0914C2.59042 17.983 2.73736 17.9221 2.89062 17.9219H34.1094C34.2626 17.9221 34.4096 17.983 34.518 18.0914C34.6263 18.1998 34.6873 18.3467 34.6875 18.5V20.8125Z" fill="#757575"/>
<path d="M16.188 19.6562H10.4068C10.2554 19.6592 10.1112 19.7214 10.0052 19.8295C9.89922 19.9376 9.83984 20.083 9.83984 20.2344C9.83985 20.3858 9.89924 20.5312 10.0053 20.6393C10.1113 20.7474 10.2554 20.8096 10.4068 20.8125H16.188C16.3394 20.8095 16.4836 20.7473 16.5896 20.6392C16.6956 20.5311 16.755 20.3858 16.755 20.2344C16.755 20.083 16.6956 19.9376 16.5896 19.8295C16.4836 19.7214 16.3394 19.6592 16.188 19.6562Z" fill="#757575"/>
<path d="M28.3287 23.125H26.0162C25.8648 23.128 25.7206 23.1902 25.6146 23.2983C25.5086 23.4064 25.4492 23.5517 25.4492 23.7031C25.4492 23.8545 25.5086 23.9999 25.6146 24.108C25.7206 24.2161 25.8648 24.2783 26.0162 24.2812H28.3287C28.48 24.2783 28.6242 24.2161 28.7302 24.108C28.8362 23.9999 28.8956 23.8545 28.8956 23.7031C28.8956 23.5517 28.8362 23.4064 28.7302 23.2983C28.6242 23.1902 28.48 23.128 28.3287 23.125Z" fill="#757575"/>
<path d="M28.3287 28.3281H26.0162C25.8648 28.3311 25.7206 28.3933 25.6146 28.5014C25.5086 28.6095 25.4492 28.7549 25.4492 28.9063C25.4492 29.0577 25.5086 29.203 25.6146 29.3111C25.7206 29.4192 25.8648 29.4814 26.0162 29.4844H28.3287C28.48 29.4814 28.6242 29.4192 28.7302 29.3111C28.8362 29.203 28.8956 29.0577 28.8956 28.9062C28.8956 28.7548 28.8362 28.6095 28.7302 28.5014C28.6242 28.3933 28.48 28.3311 28.3287 28.3281Z" fill="#757575"/>
</svg>
