<svg width="37" height="37" viewBox="0 0 37 37" fill="none" xmlns="http://www.w3.org/2000/svg">
<path d="M6.35746 9.25031C6.36925 10.0075 7.5009 10.0123 7.51371 9.25028C7.51371 7.97494 8.2917 6.93781 9.24809 6.93781C10.0066 6.925 10.0092 5.79469 9.24809 5.78156C8.2917 5.78156 7.51371 4.74444 7.51371 3.46906C7.51371 3.35075 7.46958 3.24708 7.40867 3.15551C7.12243 2.66468 6.35778 2.91744 6.3575 3.46906C6.35746 4.74444 5.57948 5.78156 4.62309 5.78156C3.87594 5.80905 3.85456 6.92522 4.62312 6.93781C5.57948 6.93781 6.35746 7.97494 6.35746 9.25031ZM6.93559 5.54152C7.13471 5.86061 7.37649 6.13876 7.65373 6.35969C7.37649 6.58061 7.13471 6.85877 6.93559 7.17786C6.73647 6.85877 6.49469 6.58061 6.21745 6.35969C6.49469 6.13876 6.73647 5.86061 6.93559 5.54152Z" fill="#757575"/>
<path d="M32.3753 26.5942C31.2637 26.5856 30.6543 25.3859 30.5996 24.0768C30.3737 23.4975 29.4903 23.6516 29.4847 24.2818C29.4846 25.5571 28.7067 26.5942 27.7503 26.5942C27.4361 26.6019 27.1808 26.8536 27.1721 27.1724C27.1619 27.4893 27.4407 27.7405 27.7503 27.7505C28.7067 27.7505 29.4846 28.7876 29.4846 30.063C29.4964 30.8203 30.6282 30.8249 30.6409 30.0629C30.6409 28.7876 31.4189 27.7505 32.3753 27.7505C33.1337 27.7377 33.1365 26.6073 32.3753 26.5942ZM30.0628 27.9905C29.8637 27.6714 29.6219 27.3933 29.3446 27.1724C29.6219 26.9514 29.8637 26.6733 30.0628 26.3542C30.2619 26.6733 30.5037 26.9514 30.7809 27.1724C30.5037 27.3933 30.2619 27.6714 30.0628 27.9905Z" fill="#757575"/>
<path d="M32.375 20.5234C32.375 19.4078 31.4672 18.5 30.3516 18.5H25.4375V17.3437H30.6406C30.9599 17.3437 31.2188 17.0852 31.2188 16.7656C31.2188 16.4461 30.9599 16.1875 30.6406 16.1875H25.4375V15.0312H30.6406C30.9599 15.0312 31.2188 14.7727 31.2188 14.4531C31.2188 14.1336 30.9599 13.875 30.6406 13.875H25.4375V12.7187H30.6406C30.9599 12.7187 31.2188 12.4602 31.2188 12.1406C31.2188 11.8211 30.9599 11.5625 30.6406 11.5625H25.4375V10.4062H30.6406C30.9599 10.4062 31.2188 10.1477 31.2188 9.82812C31.2188 9.50858 30.9599 9.25 30.6406 9.25H25.4375V8.09375H30.6406C30.9599 8.09375 31.2188 7.83517 31.2188 7.51562C31.2188 7.19608 30.9599 6.9375 30.6406 6.9375H25.4375V5.78125H30.0625C33.1165 5.68538 33.1197 1.25311 30.0625 1.15625H24.2812C22.0498 1.15625 20.2344 2.97192 20.2344 5.20312V13.875H19.0781V12.1406C19.0781 10.6409 17.9257 9.41852 16.4622 9.27777L17.1557 4.28569C17.3194 3.27679 16.4599 2.2885 15.4377 2.31249H12.3123C11.2905 2.28861 10.4302 3.27672 10.5943 4.28569L11.288 9.27773C9.82445 9.41835 8.67188 10.6408 8.67188 12.1406V13.875H7.51562C5.92183 13.875 4.625 15.1718 4.625 16.7656V32.9531C4.625 34.5469 5.92183 35.8437 7.51562 35.8437H20.2344C20.7099 35.8437 21.1675 35.7261 21.5805 35.5066C23.2295 36.5009 25.4897 35.175 25.4375 33.2421L25.4375 22.5469H30.3516C31.4672 22.5469 32.375 21.639 32.375 20.5234ZM11.8764 3.66748C11.9879 3.53932 12.1426 3.46875 12.3123 3.46875H15.4377C15.7784 3.46035 16.066 3.78957 16.0102 4.12648L15.1269 10.4859C15.0871 10.7698 14.841 10.9844 14.5542 10.9844H13.1958C12.909 10.9844 12.6629 10.7698 12.6233 10.4859L11.7398 4.12648C11.7164 3.95824 11.7649 3.79508 11.8764 3.66748ZM9.82812 12.1406C9.82812 11.2239 10.5451 10.4789 11.4466 10.418C11.4886 11.3564 12.2399 12.1472 13.1959 12.1406L14.5542 12.1406C15.5098 12.1472 16.2618 11.3564 16.3037 10.418C17.2051 10.4791 17.9219 11.224 17.9219 12.1406V13.875H9.82813L9.82812 12.1406ZM5.78125 16.7656C5.78125 15.8092 6.55923 15.0312 7.51562 15.0312H20.2344V20.8125H5.78125V16.7656ZM5.78125 21.9687H20.2344V28.9062H5.78125V21.9687ZM20.2344 34.6875H7.51562C6.55923 34.6875 5.78125 33.9095 5.78125 32.9531V30.0625H20.2344V33.2422C20.2344 33.7547 20.3883 34.2299 20.6452 34.633C20.5116 34.6657 20.3749 34.6875 20.2344 34.6875ZM24.8594 21.3906C24.5401 21.3906 24.2812 21.6492 24.2812 21.9687V33.2422C24.2371 35.1361 21.4414 35.1573 21.3906 33.2421V5.20312C21.3906 3.60933 22.6875 2.3125 24.2812 2.3125H30.0625C31.5876 2.35661 31.5879 4.58237 30.0625 4.625H24.8594C24.5401 4.625 24.2812 4.88358 24.2812 5.20312V19.0781C24.2812 19.3977 24.5401 19.6562 24.8594 19.6562H30.3516C31.4883 19.6736 31.4927 21.3716 30.3515 21.3906H24.8594Z" fill="#757575"/>
</svg>
