<svg width="49" height="49" viewBox="0 0 49 49" fill="none" xmlns="http://www.w3.org/2000/svg">
<g clip-path="url(#clip0_1500_4567)">
<path fill-rule="evenodd" clip-rule="evenodd" d="M34.8031 3.80286C35.9816 3.27438 37.2584 3.00079 38.55 3.00001C40.4123 2.99731 42.2314 3.56062 43.7662 4.61527C45.301 5.66993 46.4791 7.16612 47.1443 8.90554C47.8094 10.6449 47.9303 12.5454 47.4908 14.3551C47.0513 16.1648 46.0722 17.7981 44.6833 19.0387V29.8333C44.6833 30.85 44.2795 31.825 43.5606 32.5439C42.8417 33.2628 41.8667 33.6667 40.85 33.6667H28.5833V39.0333C28.5833 39.2367 28.5026 39.4317 28.3588 39.5755C28.215 39.7192 28.02 39.8 27.8167 39.8H25.5167C24.3837 39.799 23.2912 39.3784 22.45 38.6193V48.2333C22.45 48.4367 22.3692 48.6317 22.2254 48.7755C22.0817 48.9192 21.8867 49 21.6833 49C21.48 49 21.285 48.9192 21.1412 48.7755C20.9974 48.6317 20.9167 48.4367 20.9167 48.2333V28.3C20.9167 27.69 20.6743 27.105 20.243 26.6737C19.8117 26.2423 19.2267 26 18.6167 26C18.0067 26 17.4217 26.2423 16.9903 26.6737C16.559 27.105 16.3167 27.69 16.3167 28.3V39.0333C16.3167 39.2367 16.2359 39.4317 16.0921 39.5755C15.9483 39.7192 15.7533 39.8 15.55 39.8C15.3467 39.8 15.1517 39.7192 15.0079 39.5755C14.8641 39.4317 14.7833 39.2367 14.7833 39.0333V33.6667H9.14833L6.902 38.7113C6.75931 39.0381 6.69341 39.3932 6.70936 39.7494C6.72531 40.1055 6.82268 40.4533 6.994 40.766L9.70033 45.6343C10.0163 46.2045 10.1824 46.8455 10.1833 47.4973V48.2333C10.1833 48.4367 10.1026 48.6317 9.95878 48.7755C9.815 48.9192 9.62 49 9.41667 49C9.21333 49 9.01833 48.9192 8.87455 48.7755C8.73077 48.6317 8.65 48.4367 8.65 48.2333V47.4973C8.65081 47.1054 8.55047 46.7198 8.35867 46.378L5.65233 41.5097C5.36679 40.9893 5.20511 40.4101 5.17984 39.817C5.15458 39.224 5.26642 38.6331 5.50667 38.0903L7.46933 33.6667H5.58333C4.56667 33.6667 3.59165 33.2628 2.87276 32.5439C2.15387 31.825 1.75 30.85 1.75 29.8333V9.90001C1.75 8.88335 2.15387 7.90832 2.87276 7.18943C3.59165 6.47054 4.56667 6.06668 5.58333 6.06668H31.7113C32.571 5.10278 33.6246 4.33133 34.8031 3.80286ZM25.5167 38.2667H27.05V33.6667H22.45V35.2C22.45 36.0133 22.7731 36.7934 23.3482 37.3685C23.9233 37.9436 24.7033 38.2667 25.5167 38.2667ZM42.4743 31.4577C42.9053 31.0267 43.1482 30.4428 43.15 29.8333V20.158C41.3977 21.1755 39.3582 21.5852 37.3489 21.3232C35.3396 21.0613 33.4733 20.1424 32.0405 18.7095C30.6077 17.2767 29.6887 15.4104 29.4268 13.4011C29.1648 11.3918 29.5745 9.3523 30.592 7.60001H5.58333C4.97389 7.60183 4.38994 7.84473 3.959 8.27567C3.52806 8.70661 3.28515 9.29057 3.28333 9.90001V29.8333C3.28515 30.4428 3.52806 31.0267 3.959 31.4577C4.38994 31.8886 4.97389 32.1315 5.58333 32.1333H14.7833V28.3C14.7833 27.2833 15.1872 26.3083 15.9061 25.5894C16.625 24.8705 17.6 24.4667 18.6167 24.4667C19.6333 24.4667 20.6084 24.8705 21.3272 25.5894C22.0461 26.3083 22.45 27.2833 22.45 28.3V32.1333H40.85C41.4594 32.1315 42.0434 31.8886 42.4743 31.4577ZM34.2906 18.5746C35.5514 19.417 37.0337 19.8667 38.55 19.8667C40.5823 19.8634 42.5305 19.0547 43.9676 17.6176C45.4046 16.1805 46.2134 14.2323 46.2167 12.2C46.2167 10.6837 45.767 9.20142 44.9246 7.94064C44.0822 6.67986 42.8848 5.69721 41.4839 5.11693C40.083 4.53666 38.5415 4.38484 37.0543 4.68066C35.5671 4.97648 34.201 5.70666 33.1288 6.77886C32.0566 7.85106 31.3265 9.21713 31.0306 10.7043C30.7348 12.1915 30.8866 13.733 31.4669 15.1339C32.0472 16.5348 33.0298 17.7322 34.2906 18.5746ZM36.7614 11.8108C36.3832 12.0635 35.9385 12.1984 35.4836 12.1984C34.8736 12.1984 34.2886 11.9561 33.8573 11.5247C33.4259 11.0934 33.1836 10.5084 33.1836 9.89839C33.1836 9.44349 33.3185 8.99881 33.5712 8.62058C33.8239 8.24235 34.1832 7.94755 34.6034 7.77347C35.0237 7.59939 35.4861 7.55384 35.9323 7.64258C36.3785 7.73133 36.7883 7.95038 37.1099 8.27204C37.4316 8.5937 37.6507 9.00353 37.7394 9.44968C37.8281 9.89584 37.7826 10.3583 37.6085 10.7786C37.4344 11.1988 37.1396 11.558 36.7614 11.8108ZM35.9095 9.26093C35.7835 9.17669 35.6352 9.13172 35.4836 9.13172C35.2803 9.13172 35.0853 9.2125 34.9415 9.35628C34.7977 9.50005 34.7169 9.69506 34.7169 9.89839C34.7169 10.05 34.7619 10.1982 34.8461 10.3243C34.9304 10.4504 35.0501 10.5487 35.1902 10.6067C35.3303 10.6647 35.4844 10.6799 35.6332 10.6503C35.7819 10.6207 35.9185 10.5477 36.0257 10.4405C36.1329 10.3333 36.2059 10.1967 36.2355 10.048C36.2651 9.89924 36.2499 9.74509 36.1919 9.605C36.1339 9.46491 36.0356 9.34517 35.9095 9.26093ZM39.3164 14.5008C39.3164 14.9557 39.4513 15.4004 39.704 15.7786C39.9568 16.1568 40.316 16.4516 40.7362 16.6257C41.1565 16.7998 41.619 16.8454 42.0651 16.7566C42.5113 16.6679 42.9211 16.4488 43.2428 16.1272C43.5644 15.8055 43.7835 15.3957 43.8722 14.9495C43.961 14.5034 43.9154 14.0409 43.7413 13.6206C43.5672 13.2004 43.2724 12.8412 42.8942 12.5884C42.516 12.3357 42.0713 12.2008 41.6164 12.2008C41.0064 12.2008 40.4214 12.4431 39.9901 12.8745C39.5587 13.3058 39.3164 13.8908 39.3164 14.5008ZM41.6164 13.7341C41.768 13.7341 41.9163 13.7791 42.0423 13.8633C42.1684 13.9476 42.2667 14.0673 42.3247 14.2074C42.3827 14.3475 42.3979 14.5017 42.3683 14.6504C42.3388 14.7991 42.2657 14.9357 42.1585 15.0429C42.0513 15.1501 41.9147 15.2232 41.766 15.2527C41.6173 15.2823 41.4631 15.2671 41.323 15.2091C41.1829 15.1511 41.0632 15.0528 40.9789 14.9267C40.8947 14.8007 40.8497 14.6524 40.8497 14.5008C40.8497 14.2975 40.9305 14.1025 41.0743 13.9587C41.2181 13.8149 41.4131 13.7341 41.6164 13.7341ZM36.1935 17.571C36.0931 17.5639 35.995 17.5371 35.9049 17.492C35.8147 17.447 35.7343 17.3848 35.6683 17.3087C35.6022 17.2326 35.5518 17.1443 35.5199 17.0488C35.488 16.9532 35.4753 16.8523 35.4824 16.7518C35.4895 16.6514 35.5163 16.5533 35.5614 16.4632L40.1614 7.26315C40.2064 7.17305 40.2687 7.09268 40.3448 7.02666C40.4208 6.96063 40.5092 6.91023 40.6047 6.87833C40.7002 6.84644 40.8011 6.83368 40.9016 6.84077C41.0021 6.84787 41.1002 6.87468 41.1903 6.91969C41.2804 6.96469 41.3607 7.027 41.4268 7.10306C41.4928 7.17913 41.5432 7.26745 41.5751 7.36299C41.607 7.45853 41.6197 7.55941 41.6126 7.65988C41.6056 7.76035 41.5787 7.85844 41.5337 7.94855L36.9337 17.1486C36.8888 17.2387 36.8265 17.3191 36.7504 17.3851C36.6744 17.4512 36.586 17.5016 36.4905 17.5335C36.3949 17.5654 36.294 17.5782 36.1935 17.571ZM13.7612 14.7573H9.1612C8.95787 14.7573 8.76286 14.8381 8.61908 14.9819C8.4753 15.1257 8.39453 15.3207 8.39453 15.524V18.5907C8.39453 18.794 8.4753 18.989 8.61908 19.1328C8.76286 19.2766 8.95787 19.3573 9.1612 19.3573H13.7612C13.9645 19.3573 14.1595 19.2766 14.3033 19.1328C14.4471 18.989 14.5279 18.794 14.5279 18.5907V15.524C14.5279 15.3207 14.4471 15.1257 14.3033 14.9819C14.1595 14.8381 13.9645 14.7573 13.7612 14.7573ZM12.9945 17.824H9.92786V16.2907H12.9945V17.824ZM17.5938 18.5907V15.524C17.5938 15.3207 17.6745 15.1257 17.8183 14.9819C17.9621 14.8381 18.1571 14.7573 18.3604 14.7573H22.9604C23.1637 14.7573 23.3588 14.8381 23.5025 14.9819C23.6463 15.1257 23.7271 15.3207 23.7271 15.524V18.5907C23.7271 18.794 23.6463 18.989 23.5025 19.1328C23.3588 19.2766 23.1637 19.3573 22.9604 19.3573H18.3604C18.1571 19.3573 17.9621 19.2766 17.8183 19.1328C17.6745 18.989 17.5938 18.794 17.5938 18.5907ZM22.1938 16.2907H19.1271V17.824H22.1938V16.2907Z" fill="#8A6048"/>
</g>
<defs>
<clipPath id="clip0_1500_4567">
<rect width="48" height="49" fill="white" transform="translate(0.5)"/>
</clipPath>
</defs>
</svg>
