<svg width="48" height="48" viewBox="0 0 48 48" fill="none" xmlns="http://www.w3.org/2000/svg">
<path d="M44.65 2.53491H2.35C1.05222 2.53491 0 3.58713 0 4.88491V34.6516C0 35.9494 1.05222 37.0016 2.35 37.0016H16.45V41.7016H8.61667V46.4016H38.3833V41.7016H30.55V37.0016H44.65C45.9478 37.0016 47 35.9494 47 34.6516V4.88491C47 3.58713 45.9478 2.53491 44.65 2.53491ZM36.8167 43.2682V44.8349H10.1833V43.2682H36.8167ZM28.9833 41.7016H18.0167V37.0016H28.9833V41.7016ZM45.4333 34.6516C45.4333 35.0842 45.0826 35.4349 44.65 35.4349H2.35C1.91741 35.4349 1.56667 35.0842 1.56667 34.6516V4.88491C1.56667 4.45232 1.91741 4.10158 2.35 4.10158H44.65C45.0826 4.10158 45.4333 4.45232 45.4333 4.88491V34.6516Z" fill="#8A6048"/>
<path d="M12.5339 17.4176C10.3709 17.4176 8.61719 15.6639 8.61719 13.5009C8.61719 11.3379 10.3709 9.58423 12.5339 9.58423C14.6968 9.58423 16.4505 11.3379 16.4505 13.5009C16.4478 15.6631 14.6961 17.4149 12.5339 17.4176ZM12.5339 11.1509C11.2361 11.1509 10.1839 12.2031 10.1839 13.5009C10.1839 14.7987 11.2361 15.8509 12.5339 15.8509C13.8316 15.8509 14.8839 14.7987 14.8839 13.5009C14.8839 12.2031 13.8316 11.1509 12.5339 11.1509Z" fill="#8A6048"/>
<path d="M36.0352 11.9326H40.7352V13.4993H36.0352V11.9326Z" fill="#8A6048"/>
<path d="M34.4648 16.0662H40.7315V17.6328H34.4648V16.0662Z" fill="#8A6048"/>
<path d="M30.5508 20.2029H40.7341V21.7695H30.5508V20.2029Z" fill="#8A6048"/>
<path d="M31 7.99976H41.1833V9.56642H31V7.99976Z" fill="#8A6048"/>
<path d="M1 28.9998H46V30.5698H1V28.9998Z" fill="#8A6048"/>
<path fill-rule="evenodd" clip-rule="evenodd" d="M18.0158 29V22.9002H18.9697L25.1442 20.0725C26.2136 19.6969 26.8286 18.5762 26.5712 17.4724L34.6555 12.9709L33.8932 11.6016L25.7236 16.1528C25.7151 16.1463 25.7074 16.1386 25.6998 16.1309C25.6907 16.1217 25.6815 16.1124 25.6705 16.105C25.0447 15.6728 24.2446 15.5817 23.5373 15.8613L18.622 18.2002H9.39909C7.23689 18.2029 5.4851 19.9547 5.48242 22.1169V29H7.04909V22.1169C7.04909 20.8191 8.10131 19.7669 9.39909 19.7669H18.9762L24.1413 17.3041C24.3528 17.2276 24.5884 17.2585 24.7724 17.3878C24.9564 17.5171 25.0658 17.7279 25.0658 17.9528C25.0577 18.2633 24.8516 18.5338 24.5544 18.624L18.6285 21.3336H16.4491V29H18.0158Z" fill="#8A6048"/>
</svg>
