<svg width="40" height="40" viewBox="0 0 40 40" fill="none" xmlns="http://www.w3.org/2000/svg">
    <path opacity="0.15" fill-rule="evenodd" clip-rule="evenodd" d="M1 10H6.15003C6.84493 13.4234 9.87156 16 13.5 16C17.1284 16 20.1551 13.4234 20.85 10H24V26H37V27H2C1.44772 27 1 26.5523 1 26V10ZM37 25.5H27C26.4477 25.5 26 25.0523 26 24.5V15H34.5L37 17.5V25.5ZM35 34.5C35 36.9853 32.9853 39 30.5 39C28.0147 39 26 36.9853 26 34.5C26 32.0147 28.0147 30 30.5 30C32.9853 30 35 32.0147 35 34.5ZM9.5 39C11.9853 39 14 36.9853 14 34.5C14 32.0147 11.9853 30 9.5 30C7.01472 30 5 32.0147 5 34.5C5 36.9853 7.01472 39 9.5 39Z" fill="#3761E9"></path>
    <path fill-rule="evenodd" clip-rule="evenodd" d="M7 8.5C7 4.91015 9.91015 2 13.5 2C17.0899 2 20 4.91015 20 8.5C20 12.0899 17.0899 15 13.5 15C9.91015 15 7 12.0899 7 8.5ZM13.5 0C8.80558 0 5 3.80558 5 8.5C5 8.66785 5.00487 8.83456 5.01446 9H3C1.34315 9 0 10.3431 0 12V27V32C0 33.6569 1.34315 35 3 35H4.02242C4.27504 37.8032 6.63098 40 9.5 40C12.369 40 14.725 37.8032 14.9776 35H25.0224C25.275 37.8032 27.631 40 30.5 40C33.369 40 35.725 37.8032 35.9776 35H37C38.6569 35 40 33.6569 40 32V26V19.8284C40 19.0328 39.6839 18.2697 39.1213 17.7071L35.2929 13.8787C34.7303 13.3161 33.9672 13 33.1716 13H27V12C27 10.3431 25.6569 9 24 9H21.9855C21.9951 8.83456 22 8.66785 22 8.5C22 3.80558 18.1944 0 13.5 0ZM35.793 33H37C37.5523 33 38 32.5523 38 32V27H29H26H2V32C2 32.5523 2.44772 33 3 33H4.20703C4.85996 30.6915 6.98245 29 9.5 29C12.0176 29 14.14 30.6915 14.793 33H25.207C25.86 30.6915 27.9824 29 30.5 29C33.0176 29 35.14 30.6915 35.793 33ZM21.6264 11C20.5588 14.4743 17.3244 17 13.5 17C9.67564 17 6.44117 14.4743 5.3736 11H3C2.44772 11 2 11.4477 2 12V25H25V16V14V12C25 11.4477 24.5523 11 24 11H21.6264ZM38 19.8284V25H29H27V16V15H33.1716C33.4368 15 33.6911 15.1054 33.8787 15.2929L37.7071 19.1213C37.8946 19.3089 38 19.5632 38 19.8284ZM9.5 31C7.567 31 6 32.567 6 34.5C6 36.433 7.567 38 9.5 38C11.433 38 13 36.433 13 34.5C13 32.567 11.433 31 9.5 31ZM9.5 36C10.3284 36 11 35.3284 11 34.5C11 33.6716 10.3284 33 9.5 33C8.67157 33 8 33.6716 8 34.5C8 35.3284 8.67157 36 9.5 36ZM32 34.5C32 35.3284 31.3284 36 30.5 36C29.6716 36 29 35.3284 29 34.5C29 33.6716 29.6716 33 30.5 33C31.3284 33 32 33.6716 32 34.5ZM13 4C13.5523 4 14 4.44772 14 5V8H16C16.5523 8 17 8.44772 17 9C17 9.55228 16.5523 10 16 10H13C12.4477 10 12 9.55228 12 9V5C12 4.44772 12.4477 4 13 4ZM27 34.5C27 32.567 28.567 31 30.5 31C32.433 31 34 32.567 34 34.5C34 36.433 32.433 38 30.5 38C28.567 38 27 36.433 27 34.5Z" fill="#3761E9"></path>
</svg>