<svg width="26" height="20" viewBox="0 0 26 20" fill="none" xmlns="http://www.w3.org/2000/svg">
<path fill-rule="evenodd" clip-rule="evenodd" d="M3.46698 0H7.99897V16.4582C8.00997 16.9129 7.92897 17.3651 7.75997 17.7892C7.59197 18.2133 7.33999 18.6009 7.01799 18.9298C6.69599 19.2587 6.31097 19.5225 5.88497 19.7061C5.45797 19.8897 4.99898 19.9896 4.53298 20H0.000987286V3.54184C-0.0100127 3.08715 0.0709857 2.63483 0.239986 2.21074C0.407986 1.78665 0.659975 1.39909 0.981975 1.07019C1.30397 0.741295 1.68899 0.477487 2.11499 0.293858C2.54199 0.110229 3.00098 0.010395 3.46698 0Z" fill="#1060AC"/>
<path fill-rule="evenodd" clip-rule="evenodd" d="M12.4669 0H16.9989V16.4582C17.0109 16.912 16.9299 17.3636 16.7619 17.7872C16.5939 18.2108 16.3419 18.5982 16.0199 18.9271C15.6979 19.256 15.3129 19.52 14.8859 19.7041C14.4589 19.8882 13.9989 19.9888 13.5319 20H9.00091V3.54184C8.97691 2.62549 9.3289 1.73754 9.9789 1.07332C10.6289 0.409094 11.5239 0.0230108 12.4669 0Z" fill="#DF003F"/>
<path fill-rule="evenodd" clip-rule="evenodd" d="M21.475 0H25.9839V16.4582C26.0769 17.3097 25.7679 18.158 25.1219 18.8205C24.4769 19.483 23.546 19.9065 22.531 20H18.016V3.54184C17.923 2.6895 18.233 1.84052 18.88 1.17798C19.527 0.515436 20.459 0.0923959 21.475 0Z" fill="#48A83B"/>
<path fill-rule="evenodd" clip-rule="evenodd" d="M12.394 11.7348C13.308 11.7233 14.205 11.4549 15 10.9547V12.4925C14.121 12.8321 13.197 13.0036 12.267 12.9995C11.141 13.0125 10.027 12.754 9 12.2418V6.75817C10.027 6.24647 11.141 5.98795 12.267 6.00043C13.197 5.99676 14.122 6.16858 15 6.50856V8.02739C14.205 7.52585 13.308 7.25524 12.394 7.24069C11.893 7.3 11.43 7.56228 11.094 7.9771C10.758 8.39192 10.572 8.92996 10.572 9.48771C10.572 10.0454 10.758 10.5835 11.094 10.9983C11.43 11.4131 11.893 11.6754 12.394 11.7348Z" fill="white"/>
<path fill-rule="evenodd" clip-rule="evenodd" d="M4.02699 13H3.034C2.002 12.9434 0.982 12.7483 0 12.4198V10.8206C0.922 11.4169 1.979 11.7651 3.071 11.8325H3.32001C3.52401 11.8669 3.733 11.857 3.933 11.8038C4.133 11.7505 4.319 11.6549 4.48 11.5234C4.641 11.3919 4.772 11.2273 4.866 11.0406C4.959 10.8539 5.01299 10.6492 5.02299 10.44V6H8V10.1638C7.995 11.7339 6.33999 13 4.02699 13Z" fill="white"/>
<path fill-rule="evenodd" clip-rule="evenodd" d="M25 11.2503C25 11.9725 24.705 12.2875 24.313 12.6122C23.92 12.937 23.411 13.0136 22.888 12.9981H18V6.00699H22.2C22.458 5.98527 22.719 6.0143 22.965 6.09226C23.211 6.17022 23.437 6.29542 23.629 6.45983C23.821 6.62425 23.974 6.82428 24.079 7.04723C24.183 7.27018 24.238 7.51115 24.238 7.75478C24.238 7.99841 24.183 8.23938 24.079 8.46233C23.974 8.68528 23.821 8.88534 23.629 9.04976C23.437 9.21417 23.211 9.33933 22.965 9.41729C22.841 9.4565 22.806 9.46537 22.631 9.49955L22.965 9.52689C23.221 9.54779 23.978 9.65404 24.371 9.97873C24.763 10.3034 25 10.7054 25 11.2503Z" fill="white"/>
<path fill-rule="evenodd" clip-rule="evenodd" d="M21.333 9L20 8.99459V7.00495L21.333 7C21.703 7.00003 22.001 7.46354 22 8.00223C21.999 8.54092 21.702 9 21.333 9Z" fill="#30993D"/>
<path fill-rule="evenodd" clip-rule="evenodd" d="M22.143 12H20V10H22.143C22.621 10 23.001 10.4872 23 11C22.999 11.5117 22.619 12 22.143 12Z" fill="#30993D"/>
</svg>
