<svg width="47" height="19" viewBox="0 0 47 19" fill="none" xmlns="http://www.w3.org/2000/svg">
<path d="M21.7571 8.80161V14.0779H20.0581V1.04775H24.5641C25.1021 1.03668 25.6361 1.13066 26.1371 1.32427C26.6381 1.51788 27.0951 1.80729 27.4811 2.17579C27.8721 2.52192 28.1831 2.94641 28.3931 3.42072C28.6031 3.89504 28.7081 4.4082 28.7001 4.92572C28.7111 5.446 28.6081 5.96251 28.3981 6.43985C28.1871 6.91719 27.8751 7.34408 27.4811 7.69124C26.6941 8.43149 25.7211 8.80126 24.5641 8.80057H21.7571V8.80161ZM21.7571 2.65196V7.20052H24.6061C24.9181 7.20964 25.2291 7.15443 25.5191 7.03842C25.8081 6.92241 26.0701 6.74816 26.2871 6.52681C26.5031 6.31985 26.6751 6.07231 26.7921 5.79882C26.9091 5.52533 26.9701 5.23145 26.9701 4.93455C26.9701 4.63766 26.9091 4.34378 26.7921 4.07029C26.6751 3.7968 26.5031 3.54926 26.2871 3.3423C26.0721 3.11628 25.8121 2.93776 25.5221 2.81857C25.2321 2.69937 24.9201 2.64223 24.6061 2.65092H21.7571V2.65196ZM32.6151 4.87165C33.8701 4.87165 34.8621 5.20227 35.5881 5.8635C36.3151 6.52473 36.6781 7.43132 36.6771 8.58328V14.0779H35.0521V12.8407H34.9781C34.2751 13.8596 33.3391 14.369 32.1721 14.369C31.1751 14.369 30.3411 14.0779 29.6701 13.4957C29.3481 13.2285 29.0901 12.8938 28.9161 12.5161C28.7421 12.1384 28.6561 11.7272 28.6631 11.3124C28.6631 10.3899 29.0171 9.65622 29.7251 9.11142C30.4321 8.56664 31.3771 8.29356 32.5591 8.29217C33.5681 8.29217 34.3981 8.47411 35.0511 8.838V8.4554C35.0531 8.17262 34.9911 7.89297 34.8701 7.63673C34.7481 7.38048 34.5711 7.15405 34.3491 6.97387C33.9001 6.57451 33.3151 6.3566 32.7101 6.36358C31.7611 6.36358 31.0101 6.75796 30.4571 7.54673L28.9611 6.6183C29.7841 5.45387 31.0021 4.87165 32.6151 4.87165ZM30.4171 11.3488C30.4161 11.5618 30.4661 11.772 30.5641 11.9619C30.6621 12.1518 30.8051 12.3159 30.9801 12.4404C31.3561 12.7316 31.8221 12.8859 32.3001 12.8771C33.0171 12.8759 33.7041 12.5948 34.2111 12.0953C34.7741 11.5733 35.0551 10.961 35.0551 10.2582C34.5261 9.84232 33.7871 9.63442 32.8391 9.63442C32.1491 9.63442 31.5741 9.79832 31.1131 10.1261C30.6481 10.4588 30.4171 10.8633 30.4171 11.3488ZM46.0051 5.16276L40.3321 18.0079H38.5791L40.6841 13.5134L36.9541 5.16276H38.8001L41.4961 11.5671H41.5331L44.1552 5.16276H46.0051Z" fill="#5F6368"/>
<path d="M14.8922 7.66416C14.8932 7.15405 14.8492 6.64483 14.7612 6.14209H7.59717V9.02512H11.7002C11.6162 9.48552 11.4392 9.92452 11.1782 10.3154C10.9172 10.7064 10.5792 11.0413 10.1832 11.2999V13.1713H12.6322C14.0662 11.8686 14.8922 9.94212 14.8922 7.66416Z" fill="#4285F4"/>
<path d="M7.59705 14.9792C9.64705 14.9792 11.3731 14.3159 12.6321 13.1723L10.183 11.3009C9.50104 11.7562 8.62405 12.0161 7.59705 12.0161C5.61505 12.0161 3.93303 10.6999 3.33203 8.92627H0.809082V10.8548C1.44108 12.0946 2.41105 13.1368 3.61005 13.8651C4.80805 14.5934 6.18905 14.9791 7.59705 14.9792Z" fill="#34A853"/>
<path d="M3.33301 8.92624C3.01501 7.99682 3.01501 6.99033 3.33301 6.06091V4.13232H0.809021C0.277021 5.17527 0 6.32634 0 7.49358C0 8.66082 0.277021 9.8119 0.809021 10.8548L3.33301 8.92624Z" fill="#FBBC04"/>
<path d="M7.59705 2.97088C8.68005 2.95344 9.72705 3.35678 10.511 4.09372L12.6801 1.9572C11.3051 0.684715 9.48305 -0.0138945 7.59705 0.00781547C6.18905 0.00787547 4.80805 0.393585 3.61005 1.12189C2.41105 1.85019 1.44108 2.89241 0.809082 4.13219L3.33203 6.06078C3.93303 4.2871 5.61505 2.97088 7.59705 2.97088Z" fill="#EA4335"/>
</svg>
