<svg width="16" height="20" viewBox="0 0 16 20" fill="none" xmlns="http://www.w3.org/2000/svg">
<path fill-rule="evenodd" clip-rule="evenodd" d="M14.702 14.4625L12.384 15.3272C12.309 15.3534 12.228 15.3491 12.157 15.3153C12.086 15.2815 12.03 15.2207 12.001 15.1457L10.8 11.8098H5.17499L3.97699 15.1387C3.94899 15.2138 3.89299 15.2748 3.82199 15.3089C3.75099 15.3429 3.67001 15.3474 3.59601 15.3213L1.28101 14.4566C1.24401 14.4449 1.21 14.4258 1.181 14.4004C1.152 14.375 1.12799 14.3439 1.11099 14.3089C1.09299 14.2738 1.08299 14.2356 1.08099 14.1964C1.07799 14.1573 1.08301 14.118 1.09601 14.0809L5.77701 1.47698C5.96501 1.03769 6.27399 0.664151 6.66599 0.401895C7.05699 0.139639 7.515 0 7.983 0C8.45 0 8.90799 0.139639 9.29999 0.401895C9.69199 0.664151 10 1.03769 10.189 1.47698L14.887 14.088C14.9 14.125 14.905 14.1642 14.902 14.2033C14.899 14.2423 14.889 14.2805 14.872 14.3154C14.855 14.3504 14.831 14.3814 14.802 14.4067C14.773 14.432 14.739 14.451 14.702 14.4625ZM8.35501 4.65742L7.98599 3.59729V3.58902L5.86801 9.43512H10.106L8.35501 4.65742ZM1.095 17.6807H14.905C15.199 17.6903 15.477 17.8167 15.682 18.0331C15.886 18.2495 16 18.539 16 18.8403C16 19.1416 15.886 19.4312 15.682 19.6476C15.477 19.864 15.199 19.9904 14.905 20H1.095C0.801001 19.9904 0.522993 19.864 0.317993 19.6476C0.113993 19.4312 0 19.1416 0 18.8403C0 18.539 0.113993 18.2495 0.317993 18.0331C0.522993 17.8167 0.801001 17.6903 1.095 17.6807Z" fill="#FC0018"/>
</svg>
