<svg width="39" height="16" viewBox="0 0 39 16" fill="none" xmlns="http://www.w3.org/2000/svg">
<path d="M20.0269 3.6499V12.3999H21.5489V9.31858H22.2379C24.1889 9.31858 25.6419 8.41048 25.6419 6.48424C25.6419 4.55797 24.2779 3.6499 22.4859 3.6499H20.0269ZM21.5489 4.85732H22.4859C23.7169 4.85732 24.0649 5.67625 24.0649 6.48424C24.0649 7.29222 23.7169 8.11118 22.4859 8.11118H21.5489V4.85732Z" fill="#777777"/>
<path d="M27.9189 3.6499L25.5889 12.3999H26.8609L27.3549 10.5142H30.1129L30.5989 12.3999H32.1709L29.8409 3.6499H27.9189ZM28.7449 5.20516L29.8019 9.30678H27.6709L28.7449 5.20516Z" fill="#777777"/>
<path d="M31.6768 3.6499L34.3068 8.66488V12.3999H35.8287V8.66488L38.4587 3.6499H36.9998L35.1617 7.33899L33.3237 3.6499H31.6768Z" fill="#777777"/>
<path d="M15.811 8.02488C15.811 10.1135 14.978 12.1165 13.495 13.5934C12.013 15.0702 10.002 15.8999 7.90503 15.8999C5.80903 15.8999 3.798 15.0702 2.315 13.5934C0.833002 12.1165 0 10.1135 0 8.02488C0 5.93633 0.833002 3.93329 2.315 2.45644C3.798 0.979593 5.80903 0.149902 7.90503 0.149902C10.002 0.149902 12.013 0.979593 13.495 2.45644C14.978 3.93329 15.811 5.93633 15.811 8.02488Z" fill="#FB3F1D"/>
<path d="M10.5411 12.3999H8.93005V4.83341H8.21204C6.89404 4.83341 6.20209 5.46268 6.20209 6.39448C6.20209 7.45183 6.68108 7.94299 7.66608 8.57258L8.47809 9.08888L6.13507 12.3999H4.39209L6.49506 9.44128C5.28406 8.62278 4.60504 7.82969 4.60504 6.48267C4.60504 4.79544 5.84306 3.6499 8.19806 3.6499H10.5411V12.3999Z" fill="white"/>
</svg>
