<svg width="39" height="12" viewBox="0 0 39 12" fill="none" xmlns="http://www.w3.org/2000/svg">
<path fill-rule="evenodd" clip-rule="evenodd" d="M35.6626 9.89452C35.7575 10.3148 36.0408 11.9861 36.0408 11.9861L36.0433 11.9909H39L36.3996 0.0112305H33.9357C33.547 0.0112305 33.2262 0.0479509 32.9247 0.230271C32.6232 0.412581 32.3949 0.68905 32.2774 1.01405L27.5613 11.9861H30.8962C30.8962 11.9861 31.4616 10.2228 31.575 9.89452H35.6626ZM33.24 5.79781C33.5668 4.96228 33.8937 4.12673 34.1744 3.2771C34.3522 4.07683 34.5215 4.87818 34.6907 5.67952C34.8371 6.37252 34.9835 7.06562 35.1354 7.75762H32.4977C32.7306 7.09992 32.9853 6.44892 33.24 5.79781Z" fill="#3156FF"/>
<path d="M23.3195 3.52195C23.3392 3.01218 23.9047 2.50241 25.1675 2.50241C26.1095 2.47248 26.9731 2.7147 27.8199 3.07783L28.2535 0.490793C27.3371 0.161273 26.3667 -0.004967 25.3892 0.000113001C22.2416 0.000113001 20.0376 1.62734 20.0179 3.9398C20.0004 5.56442 21.4397 6.2308 22.6172 6.7759C22.6813 6.8056 22.7447 6.835 22.807 6.8641C24.0513 7.4467 24.4653 7.8299 24.4653 8.3576C24.3559 9.2257 23.4512 9.5071 22.5646 9.5076C21.373 9.5082 19.9396 9.0593 19.1321 8.6859L18.6997 11.3637C19.8292 11.7875 21.0304 12.0033 22.2416 12C25.5999 12 27.7669 10.399 27.7854 7.9409C27.8039 6.5752 26.9563 5.83321 25.1281 4.99752C23.9983 4.45074 23.3195 4.08783 23.3195 3.52195Z" fill="#3156FF"/>
<path d="M15.5202 0.0478516L13.522 11.9862H16.7078L18.7048 0.0478516H15.5202Z" fill="#3156FF"/>
<path d="M3.0276 1.68626L5.853 11.986H9.2261L14.2389 0.0476246H10.8658L7.7403 8.17645C7.2404 5.76643 6.7331 3.35802 6.2217 0.950125C6.1603 0.683125 6.001 0.443555 5.7705 0.271425C5.54 0.0993048 5.2522 0.00505453 4.9551 0.00439453H0V0.359765C1.014 0.635255 2.0698 1.02781 2.981 1.52055L3.0276 1.68626Z" fill="#3156FF"/>
</svg>
