<svg width="27" height="18" viewBox="0 0 27 18" fill="none" xmlns="http://www.w3.org/2000/svg">
<path d="M9 18C13.9706 18 18 13.9706 18 9C18 4.02944 13.9706 0 9 0C4.0294 0 0 4.02944 0 9C0 13.9706 4.0294 18 9 18Z" fill="#E70025"/>
<path d="M18 18C22.9706 18 27 13.9706 27 9C27 4.02944 22.9706 0 18 0C13.0294 0 9 4.02944 9 9C9 13.9706 13.0294 18 18 18Z" fill="#F59E2D"/>
<path fill-rule="evenodd" clip-rule="evenodd" d="M13.5 1.2041C10.8099 2.76024 9 5.66879 9 9.0001C9 12.3313 10.8099 15.2399 13.5 16.796C16.1901 15.2399 18 12.3313 18 9.0001C18 5.66879 16.1901 2.76024 13.5 1.2041Z" fill="#FC5D1D"/>
</svg>
