<svg width="20" height="20" viewBox="0 0 20 20" fill="none" xmlns="http://www.w3.org/2000/svg">
<path fill-rule="evenodd" clip-rule="evenodd" d="M19.5051 0.683018C20.2331 1.51429 20.1481 2.77782 19.3171 3.50518L11.3171 10.5052C10.4861 11.2325 9.22211 11.1483 8.49511 10.317C7.76711 9.48576 7.85209 8.22224 8.68309 7.49487L16.6831 0.494874C17.5141 -0.23249 18.7781 -0.148255 19.5051 0.683018Z" fill="#EC5886"/>
<path fill-rule="evenodd" clip-rule="evenodd" d="M19.5051 0.683018C20.2331 1.51429 20.1481 2.77782 19.3171 3.50518L11.3171 10.5052C10.4861 11.2325 9.22211 11.1483 8.49511 10.317C7.76711 9.48576 7.85209 8.22224 8.68309 7.49487L16.6831 0.494874C17.5141 -0.23249 18.7781 -0.148255 19.5051 0.683018Z" fill="#EC5886"/>
<path fill-rule="evenodd" clip-rule="evenodd" d="M0.495106 0.683018C-0.232894 1.51429 -0.147905 2.77782 0.683095 3.50518L8.68309 10.5052C9.51409 11.2325 10.7781 11.1483 11.5051 10.317C12.2331 9.48576 12.1481 8.22224 11.3171 7.49487L3.31713 0.494874C2.48613 -0.23249 1.22211 -0.148255 0.495106 0.683018Z" fill="#EC5886"/>
<path fill-rule="evenodd" clip-rule="evenodd" d="M0.495106 0.683018C-0.232894 1.51429 -0.147905 2.77782 0.683095 3.50518L8.68309 10.5052C9.51409 11.2325 10.7781 11.1483 11.5051 10.317C12.2331 9.48576 12.1481 8.22224 11.3171 7.49487L3.31713 0.494874C2.48613 -0.23249 1.22211 -0.148255 0.495106 0.683018Z" fill="#FAC65C"/>
<path fill-rule="evenodd" clip-rule="evenodd" d="M10 7C11.105 7 12 7.89543 12 9V18C12 19.1046 11.105 20 10 20C8.895 20 8 19.1046 8 18V9C8 7.89543 8.895 7 10 7Z" fill="#94C753"/>
</svg>
