<svg width="20" height="20" viewBox="0 0 20 20" fill="none" xmlns="http://www.w3.org/2000/svg">
<path fill-rule="evenodd" clip-rule="evenodd" d="M14.3523 2.59297C14.5573 2.79719 14.4643 3.14584 14.1853 3.22183L11.9672 3.82678C11.9042 3.844 11.8463 3.87741 11.8003 3.92369L11.7423 3.98218C11.7873 3.96317 11.8363 3.95266 11.8883 3.95266H17.9393C18.1473 3.95266 18.3153 4.12106 18.3153 4.3288V7.84C18.3153 8.12881 18.0033 8.30987 17.7523 8.16658L15.7562 7.02589C15.6992 6.99341 15.6353 6.97633 15.5703 6.97633H15.4873C15.5323 6.99469 15.5743 7.02221 15.6113 7.0589L19.8903 11.3376C20.0373 11.4845 20.0373 11.7226 19.8903 11.8695L17.4072 14.3523C17.2032 14.5565 16.8543 14.464 16.7783 14.1853L16.1732 11.9672C16.1562 11.904 16.1233 11.8465 16.0763 11.8002L16.0183 11.7418C16.0373 11.7867 16.0473 11.8361 16.0473 11.888V17.939C16.0473 18.1467 15.8793 18.3151 15.6713 18.3151H11.5123L12.9743 15.7561C13.0073 15.6993 13.0243 15.635 13.0243 15.5695V15.4869C13.0053 15.5321 12.9782 15.5745 12.9412 15.6111L8.66225 19.8898C8.51625 20.0367 8.27727 20.0367 8.13027 19.8898L5.64827 17.407C5.44327 17.2028 5.53627 16.8542 5.81527 16.7782L8.03329 16.1732C8.09629 16.156 8.15428 16.1226 8.20028 16.0763L8.25826 16.0179C8.21326 16.0368 8.16426 16.0473 8.11226 16.0473H2.06124C1.85324 16.0473 1.68526 15.8789 1.68526 15.6712V12.16C1.68526 11.8712 1.99725 11.6901 2.24825 11.8334L4.24428 12.9741C4.30128 13.0066 4.36529 13.0237 4.43129 13.0237H4.51327C4.46827 13.0053 4.42624 12.9778 4.38924 12.9411L0.11025 8.66241C-0.03675 8.51552 -0.03675 8.27736 0.11025 8.13047L2.59328 5.64767C2.79728 5.44345 3.14625 5.53604 3.22225 5.81467L3.82729 8.03281C3.84429 8.09596 3.87728 8.15353 3.92428 8.19981L3.98226 8.25823C3.96326 8.21328 3.95327 8.16388 3.95327 8.11203V2.06105C3.95327 1.85331 4.12124 1.68491 4.32924 1.68491H8.48824L7.02627 4.24389C6.99327 4.30072 6.97628 4.36505 6.97628 4.4305V4.51314C6.99528 4.46792 7.02229 4.42554 7.05929 4.38886L11.3383 0.110169C11.4843 -0.0367233 11.7233 -0.0367228 11.8703 0.110169L14.3523 2.59297ZM4.67129 8.48817L6.56728 8.80423C6.64428 8.81712 6.71626 8.85385 6.77126 8.90929L7.59627 9.73402C7.74327 9.88091 7.74327 10.1191 7.59627 10.266L5.16225 12.6995L6.72725 11.5819C6.79125 11.5363 6.86725 11.5118 6.94625 11.5118H8.11226C8.32026 11.5118 8.48824 11.6802 8.48824 11.888V15.3293L8.80428 13.4329C8.81728 13.3556 8.85426 13.2842 8.90926 13.2288L9.73427 12.4041C9.88127 12.2572 10.1193 12.2572 10.2663 12.4041L12.7003 14.8376L11.5822 13.273C11.5362 13.2092 11.5123 13.1327 11.5123 13.0543V11.888C11.5123 11.6802 11.6803 11.5118 11.8883 11.5118H15.3292L13.4332 11.1958C13.3562 11.1829 13.2843 11.1461 13.2293 11.0907L12.4043 10.266C12.2573 10.1191 12.2573 9.88093 12.4043 9.73404L14.8383 7.30059L13.2733 8.4181C13.2093 8.46367 13.1333 8.48817 13.0543 8.48817H11.8883C11.6803 8.48817 11.5123 8.31976 11.5123 8.11203V4.67043L11.1962 6.56708C11.1832 6.64441 11.1463 6.71578 11.0913 6.77122L10.2663 7.59595C10.1193 7.74284 9.88127 7.74284 9.73427 7.59595L7.30025 5.16238L8.41829 6.72703C8.46429 6.79082 8.48824 6.86726 8.48824 6.94566V8.11203C8.48824 8.31977 8.32026 8.48817 8.11226 8.48817H4.67129Z" fill="#005995"/>
</svg>
