<svg width="32" height="21" viewBox="0 0 32 21" fill="none" xmlns="http://www.w3.org/2000/svg">
<path d="M30.4201 0.00591932L22.5411 0.00390625H22.5391C22.5321 0.00390625 22.5271 0.00496576 22.5211 0.00496576C21.4381 0.0373868 20.0901 0.886904 19.8441 1.93434L16.1181 18.0668C15.8721 19.1241 16.5401 19.9843 17.6151 20.0001H25.8931C26.9511 19.9489 27.9801 19.1091 28.2211 18.0736L31.9481 1.94101C32.1971 0.87313 31.5131 0.00591932 30.4201 0.00591932Z" fill="#01798A"/>
<path d="M16.1181 18.0667L19.8441 1.93429C20.0901 0.886858 21.4381 0.0373408 22.5211 0.00491977L19.3881 0.00301264L13.7431 0.00195312C12.6581 0.0236731 11.2921 0.879124 11.0461 1.9344L7.3191 18.0667C7.0721 19.124 7.74111 19.9843 8.81511 20H17.6151C16.5401 19.9843 15.8721 19.124 16.1181 18.0667Z" fill="#024381"/>
<path d="M7.31897 18.0667L11.046 1.93425C11.292 0.878972 12.658 0.0235212 13.743 0.00180117L6.51196 0C5.41996 0 4.02097 0.865304 3.77097 1.93425L0.0439758 18.0667C0.0209758 18.1651 0.00897656 18.2617 0.000976562 18.356V18.6552C0.0739766 19.4259 0.675963 19.9871 1.53996 19.9999H8.81497C7.74097 19.9842 7.07197 19.124 7.31897 18.0667Z" fill="#DD0228"/>
<path fill-rule="evenodd" clip-rule="evenodd" d="M8.35992 10.5537H5.44392L4.09692 16.9735H5.45093L5.93492 14.6526H7.49792C8.12892 14.6526 8.67593 14.4656 9.13893 14.0944C9.59893 13.7218 9.89692 13.2305 10.0259 12.6192C10.0489 12.5115 10.0679 12.403 10.0829 12.294C10.0909 12.1866 10.0969 12.0874 10.0969 11.9995V11.9856C10.0969 11.5236 9.94892 11.1693 9.65192 10.922C9.35392 10.6779 8.91992 10.5537 8.35992 10.5537ZM7.46992 13.5363H6.17293L6.56792 11.6534H7.66893C8.02893 11.6534 8.28792 11.7035 8.45392 11.8083C8.61892 11.9117 8.70192 12.0763 8.70192 12.3039C8.70192 12.3396 8.69793 12.3765 8.69493 12.4134C8.69393 12.4225 8.69293 12.4315 8.69193 12.4406C8.68893 12.4596 8.68593 12.4792 8.68193 12.4995C8.67693 12.5315 8.67192 12.5653 8.66492 12.6012C8.59392 12.9193 8.46592 13.1538 8.27092 13.3074C8.07592 13.4594 7.80792 13.5363 7.46992 13.5363Z" fill="white"/>
<path d="M15.0809 19.3905C15.3209 19.1491 15.7289 18.6301 16.1569 17.7397L18.5409 13.0112H17.3549L16.1839 15.6867L16.1169 13.0112H15.4919L14.7469 13.021L15.1009 17.2861C15.0649 17.3568 15.0249 17.4383 14.9819 17.5275C14.6709 18.1693 14.1659 19.2084 13.3209 19.4634L13.2219 20.1428C14.3009 20.1823 14.7849 19.6913 15.0379 19.4347C15.0529 19.419 15.0679 19.4043 15.0809 19.3905Z" fill="white"/>
<path fill-rule="evenodd" clip-rule="evenodd" d="M12.3711 13.6505L12.8421 13.3337L13.9521 13.2389L13.1111 16.9737L11.8321 16.9416L11.6471 16.7266C10.0341 17.398 9.45412 16.756 9.42912 15.8576C9.40312 14.9446 9.94911 13.7669 10.5621 13.4342C11.3431 13.0113 11.8791 13.2738 12.3711 13.6505ZM11.0901 16.2492C11.4501 16.3608 11.9091 15.9687 12.1141 15.3755C12.3241 14.7809 12.1941 14.2087 11.8351 14.0998C11.4781 13.9882 11.0161 14.3789 10.8111 14.9735C10.6021 15.5681 10.7311 16.1403 11.0901 16.2492Z" fill="white"/>
<path d="M10.417 9.17127C10.981 8.76102 11.344 8.18327 11.501 7.43096L12.443 2.99268H11.029L10.099 7.38049C10.017 7.76716 9.834 8.06429 9.554 8.2737C9.275 8.48461 8.915 8.58916 8.47701 8.58916C8.09701 8.58916 7.82401 8.48326 7.65601 8.26964C7.54001 8.12588 7.483 7.94171 7.485 7.71698C7.484 7.60377 7.49699 7.49084 7.52299 7.38064L8.451 2.99313H7.03L6.089 7.43111C6.044 7.64728 6.021 7.84828 6.021 8.0353C6.021 8.48746 6.155 8.86151 6.425 9.15595C6.813 9.57041 7.42201 9.77696 8.25301 9.77696C9.13601 9.77696 9.85701 9.57461 10.417 9.17127Z" fill="white"/>
<path d="M18.5811 5.68457H17.4681L16.5991 9.64545H17.7091L18.5811 5.68457Z" fill="white"/>
<path d="M18.9409 4.2417H17.8179L17.6089 5.20312H18.7309L18.9409 4.2417Z" fill="white"/>
<path fill-rule="evenodd" clip-rule="evenodd" d="M19.126 8.2388C19.128 8.70493 19.275 9.07192 19.566 9.34412C19.856 9.61347 20.251 9.74747 20.753 9.74732C21.36 9.74732 21.88 9.56179 22.313 9.18925C22.746 8.8194 23.026 8.31421 23.155 7.68058C23.173 7.5824 23.189 7.48371 23.201 7.38464C23.212 7.28415 23.218 7.19056 23.218 7.10974C23.218 6.63789 23.073 6.26685 22.783 5.99179C22.492 5.71839 22.096 5.58154 21.596 5.58154C20.985 5.58154 20.464 5.77127 20.032 6.14953C19.599 6.52643 19.318 7.03718 19.186 7.68058C19.166 7.77131 19.153 7.86895 19.142 7.96945C19.131 8.0686 19.126 8.15918 19.126 8.2388ZM22.109 7.61643C22.023 8.03645 21.883 8.35192 21.686 8.55982C21.49 8.76908 21.239 8.87378 20.93 8.87393C20.693 8.87393 20.514 8.80844 20.387 8.67579C20.259 8.5433 20.196 8.35627 20.196 8.11336C20.194 8.05748 20.196 7.99619 20.203 7.93055C20.213 7.8664 20.223 7.80076 20.235 7.73511C20.323 7.30803 20.464 6.98716 20.662 6.7749C20.859 6.56263 21.11 6.45673 21.418 6.45673C21.651 6.45673 21.832 6.52373 21.959 6.65908C22.086 6.79307 22.15 6.9828 22.15 7.22706C22.15 7.2843 22.147 7.34709 22.14 7.41409C22.133 7.48244 22.121 7.55079 22.109 7.61643Z" fill="white"/>
<path d="M13.814 5.68351H12.81L12 9.64709H13.034L13.494 7.37079C13.553 7.08477 13.674 6.86004 13.856 6.6981C14.038 6.53751 14.261 6.45669 14.527 6.45669C14.743 6.45669 14.893 6.51663 14.971 6.63801C15.05 6.75954 15.065 6.94792 15.013 7.20059L14.514 9.64709H15.545L16.098 6.94792C16.187 6.51949 16.136 6.18585 15.948 5.94444C15.756 5.70304 15.452 5.58301 15.03 5.58301C14.563 5.58301 14.168 5.75186 13.843 6.09241L13.699 6.2557L13.814 5.68351Z" fill="white"/>
<path d="M25.3221 5.68351H24.3181L23.5081 9.64709H24.5411L25.0031 7.37079C25.0601 7.08477 25.1811 6.86004 25.3641 6.6981C25.5481 6.53751 25.7701 6.45669 26.0361 6.45669C26.2511 6.45669 26.3981 6.51663 26.4791 6.63801C26.5581 6.75954 26.5721 6.94792 26.5211 7.20059L26.0211 9.64709H27.0541L27.6051 6.94792C27.6961 6.51949 27.6421 6.18585 27.4551 5.94444C27.2651 5.70304 26.9601 5.58301 26.5381 5.58301C26.0731 5.58301 25.6761 5.75186 25.3511 6.09241L25.2081 6.2557L25.3221 5.68351Z" fill="white"/>
</svg>
