<svg width="20" height="20" viewBox="0 0 20 20" fill="none" xmlns="http://www.w3.org/2000/svg">
<path fill-rule="evenodd" clip-rule="evenodd" d="M11 0C11.2652 0 11.5196 0.105371 11.7071 0.292908C11.8946 0.480444 12 0.734784 12 1V7C12 7.26522 11.8946 7.51956 11.7071 7.70709C11.5196 7.89463 11.2652 8 11 8C10.7348 8 10.4804 7.89463 10.2929 7.70709C10.1054 7.51956 10 7.26522 10 7V1C10 0.734784 10.1054 0.480444 10.2929 0.292908C10.4804 0.105371 10.7348 0 11 0ZM14 2C14.2652 2 14.5196 2.10537 14.7071 2.29291C14.8946 2.48044 15 2.73478 15 3V9C15 9.26522 14.8946 9.51956 14.7071 9.70709C14.5196 9.89463 14.2652 10 14 10C13.7348 10 13.4804 9.89463 13.2929 9.70709C13.1054 9.51956 13 9.26522 13 9V3C13 2.73478 13.1054 2.48044 13.2929 2.29291C13.4804 2.10537 13.7348 2 14 2ZM8 2C8.26522 2 8.51957 2.10537 8.70711 2.29291C8.89464 2.48044 9 2.73478 9 3V8C9 8.26522 8.89464 8.51956 8.70711 8.70709C8.51957 8.89463 8.26522 9 8 9C7.73478 9 7.48043 8.89463 7.29289 8.70709C7.10536 8.51956 7 8.26522 7 8V3C7 2.73478 7.10536 2.48044 7.29289 2.29291C7.48043 2.10537 7.73478 2 8 2ZM5 4C5.26522 4 5.51957 4.10537 5.70711 4.29291C5.89464 4.48044 6 4.73478 6 5V9C6 9.26522 5.89464 9.51956 5.70711 9.70709C5.51957 9.89463 5.26522 10 5 10C4.73478 10 4.48043 9.89463 4.29289 9.70709C4.10536 9.51956 4 9.26522 4 9V5C4 4.73478 4.10536 4.48044 4.29289 4.29291C4.48043 4.10537 4.73478 4 5 4Z" fill="#F9C0B0"/>
<path fill-rule="evenodd" clip-rule="evenodd" d="M17 11V15.5087C17 16.4385 16.775 17.3838 16.1252 18.0488C15.6914 18.4928 15.1944 18.8739 14.648 19.1788C13.6856 19.7158 12.6021 19.9985 11.5 20H10.5C8.77609 20 7.1228 19.3152 5.90381 18.0962C4.68482 16.8772 4 15.2239 4 13.5V12.5C4.00778 11.9932 4.07833 11.4894 4.21001 11H17Z" fill="#F9C0B0"/>
<path d="M18 6H2C0.895431 6 0 6.89543 0 8V13C0 14.1046 0.895431 15 2 15H18C19.1046 15 20 14.1046 20 13V8C20 6.89543 19.1046 6 18 6Z" fill="#0D8F1F"/>
<path fill-rule="evenodd" clip-rule="evenodd" d="M17 15.0493C17 16.1267 16.1267 17 15.0493 17H11.3452C11.0692 16.4267 10.9553 15.7873 11.0158 15.1526C11.0764 14.5178 11.3092 13.9123 11.6885 13.4031C12.0678 12.8939 12.5788 12.5008 13.165 12.2672C13.7513 12.0336 14.3899 11.9687 15.0103 12.0795V9.00705C15.0103 8.73996 15.1151 8.48383 15.3017 8.29497C15.4882 8.10611 15.7413 8 16.0051 8C16.269 8 16.522 8.10611 16.7086 8.29497C16.8952 8.48383 17 8.73996 17 9.00705V15.0493Z" fill="#F9C0B0"/>
</svg>
