<svg width="61" height="18" viewBox="0 0 61 18" fill="none" xmlns="http://www.w3.org/2000/svg">
<path d="M61 3C61 1.34315 59.657 0 58 0H3C1.343 0 0 1.34315 0 3V15C0 16.6569 1.343 18 3 18H58C59.657 18 61 16.6569 61 15V3Z" fill="#FFDD2D"/>
<path d="M10.626 12.7619V7.2222H13.303V5.20633H6V7.2222H8.677V12.7619H10.626ZM16.032 5.20633H14.083V12.7619H16.032V5.20633ZM17.459 5.20633V12.7619H19.252V8.58725L22.592 12.7619H24.255V5.20633H22.462V9.3492L19.2 5.20633H17.459ZM28.086 9.9048L30.334 12.7619H32.842L29.71 8.82539L32.725 5.20633H30.36L28.086 8.04756H27.566V5.20633H25.682V12.7619H27.566V9.9048H28.086ZM36.719 5C34.186 5 32.664 6.74603 32.664 9C32.664 11.2539 34.186 13 36.719 13C39.24 13 40.76 11.2539 40.76 9C40.76 6.74603 39.24 5 36.719 5ZM36.719 11.1587C35.459 11.1587 34.653 10.238 34.653 9C34.653 7.76189 35.459 6.85715 36.719 6.85715C37.967 6.85715 38.786 7.76189 38.786 9C38.786 10.238 37.967 11.1587 36.719 11.1587ZM47.906 5.20633H41.655V12.7619H43.54V10.2371H47.633V8.57041H43.54V7.12704H47.906V5.20633ZM55 5.20633H48.75V12.7619H50.634V10.2371H54.727V8.57041H50.634V7.12704H55V5.20633Z" fill="black"/>
</svg>
