<svg width="20" height="20" viewBox="0 0 20 20" fill="none" xmlns="http://www.w3.org/2000/svg">
<path d="M13.522 10.6731L17.6 19.2H11.2L7.854 12.2029C7.315 12.6019 6.889 13.1471 6.633 13.7808C6.459 14.21 6.36401 14.68 6.36401 15.1724C6.36401 16.0916 6.69699 16.932 7.24799 17.5768C6.70499 18.9946 5.344 20 3.75 20C1.679 20 0 18.3018 0 16.2069C0 15.7535 0.0790225 15.3186 0.223022 14.9155C0.982022 12.1434 3.57903 9.88333 6.47803 9.32693L2.40002 0.800026H8.79999L12.146 7.79703C12.685 7.39809 13.111 6.85287 13.367 6.2192C13.541 5.78995 13.636 5.32001 13.636 4.82758C13.636 3.9084 13.303 3.06798 12.752 2.42323C13.295 1.00537 14.656 0 16.25 0C18.321 0 20 1.69822 20 3.79309C20 4.24617 19.921 4.68071 19.777 5.08352C19.019 7.8561 16.421 10.1166 13.522 10.6731Z" fill="#FD6A5E"/>
</svg>
