<svg width="18" height="20" viewBox="0 0 18 20" fill="none" xmlns="http://www.w3.org/2000/svg">
<path fill-rule="evenodd" clip-rule="evenodd" d="M14.9807 13.8226C14.8527 13.1214 14.5098 12.4851 14.0058 12.0131C13.8308 11.8329 13.6317 11.6807 13.4157 11.5611C13.3057 11.4931 13.1898 11.4353 13.0708 11.3884C12.7628 11.2482 12.4277 11.1895 12.0947 11.2176C12.3547 11.118 12.6318 11.0807 12.9068 11.1082C13.1418 11.1437 13.3727 11.2015 13.5977 11.281C13.7777 11.3875 13.9648 11.4949 14.1468 11.6043C14.5498 10.0902 14.4708 8.47709 13.9238 7.0151C13.4818 5.774 12.7627 4.66517 11.8297 3.78358C10.8827 2.84239 9.70674 2.20074 8.43474 1.93082C7.69474 1.7785 6.93374 1.78598 6.19774 1.95287C5.57374 2.12621 4.98675 2.42559 4.46975 2.83464C3.98975 3.24302 3.58374 3.73963 3.26974 4.30075C3.17774 4.43675 3.09575 4.58085 3.02575 4.73153C2.96375 4.89464 2.89374 5.05105 2.82274 5.20553C2.43474 6.32002 2.31075 7.51872 2.46175 8.69613C2.55075 9.43067 2.73573 10.1485 3.01073 10.829C3.15873 11.1313 3.29375 11.4479 3.45675 11.7329C3.61975 12.0092 3.79575 12.2757 3.98675 12.5312C4.39175 13.0106 4.84875 13.4374 5.34875 13.8025C6.49275 14.6259 7.82975 15.0955 9.21175 15.1592C9.21275 15.0551 9.19174 14.9521 9.14974 14.8579C9.12574 14.7543 9.11674 14.6353 9.08874 14.5346C9.06274 14.2913 9.06274 14.0457 9.08874 13.8025C9.13674 13.8401 9.17176 13.8928 9.19076 13.9531C9.21376 14.0044 9.24875 14.0487 9.29275 14.0817C9.34575 14.1871 9.40574 14.2881 9.47274 14.3839C9.60874 14.5699 9.76576 14.7363 9.94076 14.879C10.2908 15.1835 10.6808 15.4303 11.0998 15.6111C11.5728 15.8219 12.0737 15.9515 12.5847 15.9949C13.1267 16.0726 13.6517 16.1705 14.1487 16.2962C14.6027 16.4351 15.0397 16.6302 15.4507 16.8776C15.6477 16.9927 15.8377 17.1209 16.0197 17.2614C16.1147 17.3228 16.2037 17.3952 16.2847 17.4773C16.3907 17.5224 16.4378 17.6299 16.5478 17.6692C16.8708 17.982 17.1707 18.3208 17.4437 18.6824C17.5747 18.881 17.6897 19.0902 17.7887 19.308C17.8627 19.3944 17.8847 19.5364 17.9517 19.6313C17.9797 19.6874 17.9957 19.7491 17.9987 19.8123C18.0027 19.8755 17.9927 19.9388 17.9717 19.9979C17.8207 20.0209 17.8517 19.852 17.7907 19.782C17.7337 19.7021 17.6858 19.6155 17.6478 19.5239C17.4098 19.2581 17.1968 18.9674 16.9368 18.7265C16.6858 18.4765 16.4137 18.2516 16.1237 18.0549C15.5197 17.607 14.8448 17.2784 14.1308 17.0849C13.2908 16.8405 12.4177 16.7529 11.5497 16.8258C11.1417 16.8741 10.7388 16.968 10.3498 17.106C9.93975 17.202 9.52573 17.274 9.10973 17.3219C7.47473 17.4106 5.84474 17.0857 4.35174 16.3739C3.70674 16.0701 3.10374 15.6712 2.56274 15.1889C2.29074 14.9627 2.03976 14.7103 1.81176 14.4348C1.57776 14.1649 1.37274 13.8686 1.20074 13.5511C1.00474 13.2334 0.827751 12.9023 0.672751 12.5599C0.525751 12.1887 0.403754 11.8072 0.306754 11.4182C0.178754 10.9988 0.0967351 10.5651 0.0627351 10.1257C0.0557351 9.99621 0.000760986 9.74676 0.00176099 9.54431C0.010761 9.52342 0.01775 9.50153 0.02175 9.47904C-0.00725 9.27204 -0.00725 9.06142 0.02175 8.85442C0.02475 8.39786 0.0727483 7.94287 0.163748 7.49677C0.235748 7.08657 0.337741 6.68299 0.468741 6.28975C0.589741 5.90596 0.749743 5.55477 0.895743 5.19209C0.993743 5.03665 1.06775 4.85724 1.15975 4.69701C1.23775 4.52718 1.35473 4.39957 1.42473 4.21726C1.48373 4.1495 1.53776 4.07771 1.58776 4.00234C1.61876 3.90639 1.70275 3.86609 1.72875 3.76534C1.79575 3.70525 1.85175 3.63193 1.89175 3.54945C1.95975 3.4907 2.01474 3.41748 2.05474 3.33453C2.29774 3.08122 2.51374 2.80107 2.76574 2.55928C3.01774 2.31749 3.29974 2.0901 3.55974 1.84831C3.72474 1.76483 3.84376 1.63242 4.00576 1.54607C4.12976 1.42613 4.31074 1.36566 4.43374 1.24477C4.75574 1.06075 5.08775 0.895162 5.42675 0.748716C5.76975 0.585636 6.12273 0.44904 6.48473 0.339982C7.31173 0.0979002 8.16775 -0.0110987 9.02575 0.016631C9.06075 0.016631 9.07775 -0.0207888 9.08575 0.016631C10.6317 0.0413683 12.1377 0.541258 13.4207 1.45585C14.5547 2.25737 15.4677 3.36559 16.0637 4.66629C16.7657 6.22717 17.0007 7.97944 16.7347 9.6863C16.5607 10.8532 16.1587 11.9686 15.5557 12.961C15.4747 13.1216 15.3797 13.2734 15.2707 13.4139C15.2337 13.4925 15.1857 13.5649 15.1287 13.6288C15.1047 13.6668 15.0768 13.7031 15.0478 13.7372C15.0448 13.7474 15.0397 13.7567 15.0327 13.7642C15.0257 13.7717 15.0167 13.7773 15.0067 13.7804C15.0067 13.8389 14.9877 13.8466 14.9807 13.8226ZM14.4937 14.3839C14.2937 14.2272 14.1557 13.9966 14.1067 13.7372C14.0797 13.6389 14.0797 13.5343 14.1067 13.436C14.1187 13.4262 14.1328 13.4187 14.1478 13.4139C14.1818 13.404 14.2187 13.4028 14.2537 13.4103C14.2887 13.4177 14.3218 13.4338 14.3508 13.4571C14.4698 13.6145 14.5528 13.7985 14.5958 13.9953C14.6168 14.0635 14.6178 14.1367 14.5998 14.2058C14.5818 14.2749 14.5447 14.3369 14.4937 14.3839ZM12.7047 14.0174C12.7047 13.9934 12.7248 14.0049 12.7248 14.0174C12.8858 14.0351 13.0337 14.1197 13.1367 14.2529C13.2397 14.386 13.2887 14.5569 13.2737 14.7284C13.2657 14.8271 13.2278 14.9203 13.1648 14.994C13.1028 15.0678 13.0198 15.118 12.9278 15.1371C12.8208 15.1416 12.7137 15.1167 12.6187 15.0646C12.5227 15.0126 12.4417 14.9352 12.3817 14.84C12.3227 14.7448 12.2877 14.635 12.2797 14.5212C12.2727 14.4073 12.2928 14.2933 12.3378 14.1901C12.3808 14.1307 12.4368 14.0837 12.5008 14.0535C12.5648 14.0233 12.6347 14.0109 12.7047 14.0174Z" fill="#F78300"/>
</svg>
