<svg width="18" height="20" viewBox="0 0 18 20" fill="none" xmlns="http://www.w3.org/2000/svg">
<path fill-rule="evenodd" clip-rule="evenodd" d="M7.00522 5.9789C7.10122 5.44412 7.4072 5.00149 8.5972 5.00149H12.8482C13.8552 5.00149 16.2672 4.89432 17.3442 6.25864C18.5902 7.83946 17.7742 10.7524 17.2402 11.762C16.1022 13.8939 13.9702 14.6446 11.6952 14.6439C10.4952 14.6589 10.1802 14.5185 9.97922 15.7049C9.77922 16.8914 9.34423 18.992 9.30723 19.2535C9.17423 19.882 8.76423 19.9982 8.27323 19.9982C7.28423 19.9982 5.77322 19.9982 5.25922 19.9982C4.85622 19.9982 4.46822 20.0701 4.57722 19.306C5.38522 14.8324 6.18922 10.5068 7.00522 5.9789Z" fill="#009DDF"/>
<path fill-rule="evenodd" clip-rule="evenodd" d="M1.55013 8.6834C1.98513 6.18377 2.72114 1.90164 2.87514 1.03101C2.97514 0.458221 3.32014 0 4.63314 0H10.7562C11.8672 0 14.7352 0.12255 15.9712 1.39871C16.7392 2.19353 17.1821 3.21328 17.1821 4.4461C17.1821 5.2691 17.0411 6.44996 16.6121 7.45935C15.9861 9.08024 14.5851 10.1658 12.9001 10.8623C11.2491 11.3534 9.51415 11.55 7.78515 11.4419C6.46015 11.458 6.03913 11.3274 5.81713 12.5806C5.56513 13.8715 4.93715 17.2774 4.89715 17.5558C4.83215 17.8695 4.88116 18.3291 3.79516 18.3291C2.70916 18.3291 1.32613 18.3291 0.757131 18.3291C0.311131 18.3291 -0.114842 18.4139 0.0281576 17.6108C0.236158 16.4343 1.28813 10.1944 1.55013 8.6834Z" fill="#0048A0"/>
<path fill-rule="evenodd" clip-rule="evenodd" d="M16.5292 7.46992C16.2212 8.23064 15.7423 8.92776 15.1223 9.51916C14.5023 10.1106 13.7543 10.584 12.9243 10.9108C11.2303 11.3726 9.45725 11.5569 7.69025 11.455C6.38525 11.47 6.08325 11.3474 5.86325 12.5238C5.86325 12.5238 5.82324 12.5356 5.82324 12.5399H5.83224C5.88524 12.2173 5.93225 11.9324 5.96625 11.7302C6.36625 9.35275 6.90725 6.83767 7.05225 6.00863C7.14425 5.47098 7.46126 5.02795 8.67026 5.02795H13.0843C14.4673 4.90825 15.8572 5.16829 17.0692 5.77311C16.9612 6.3549 16.7802 6.92406 16.5292 7.46992Z" fill="#003172"/>
</svg>
