<svg width="46" height="18" viewBox="0 0 46 18" fill="none" xmlns="http://www.w3.org/2000/svg">
<path d="M8.40492 2.32065C7.86592 2.92864 7.00288 3.40818 6.14088 3.33968C6.03288 2.5176 6.45486 1.64415 6.94886 1.10466C7.48886 0.47954 8.43187 0.03425 9.19587 0C9.28587 0.85633 8.93492 1.69553 8.40492 2.32065ZM9.1869 3.50238C7.9379 3.43387 6.86889 4.17888 6.27589 4.17888C5.67389 4.17888 4.7659 3.53663 3.7779 3.55376C2.4929 3.57088 1.29792 4.26451 0.641918 5.36917C-0.706082 7.5785 0.290883 10.8497 1.59388 12.648C2.23188 13.5385 2.9959 14.5147 4.0019 14.4805C4.9549 14.4462 5.33188 13.8896 6.48188 13.8896C7.64088 13.8896 7.97387 14.4805 8.97987 14.4634C10.0219 14.4462 10.6779 13.5728 11.3159 12.6822C12.0439 11.6717 12.3409 10.687 12.3589 10.6356C12.3409 10.6185 10.3459 9.8906 10.3279 7.69838C10.3099 5.86584 11.8999 4.99239 11.9719 4.94101C11.0739 3.67364 9.6719 3.53663 9.1869 3.50238ZM16.4019 1.01903V14.3692H18.5769V9.8049H21.5869C24.3359 9.8049 26.2679 8.00666 26.2679 5.40343C26.2679 2.80019 24.3719 1.01903 21.6589 1.01903H16.4019ZM18.5769 2.76594H21.0829C22.9699 2.76594 24.0489 3.72502 24.0489 5.41199C24.0489 7.09895 22.9699 8.0666 21.0739 8.0666H18.5769V2.76594ZM30.2399 14.4719C31.6049 14.4719 32.8719 13.8126 33.4469 12.7678H33.4919V14.3692H35.5049V7.72407C35.5049 5.79734 33.8879 4.55566 31.3989 4.55566C29.0889 4.55566 27.3819 5.81446 27.3189 7.54424H29.2779C29.4399 6.72217 30.2399 6.18268 31.3359 6.18268C32.6659 6.18268 33.4109 6.77355 33.4109 7.86109V8.59753L30.6979 8.75167C28.1729 8.89724 26.8069 9.882 26.8069 11.5947C26.8069 13.3245 28.2179 14.4719 30.2399 14.4719ZM30.8239 12.8877C29.6649 12.8877 28.9279 12.3568 28.9279 11.5433C28.9279 10.7041 29.6379 10.216 30.9939 10.1389L33.4109 9.9933V10.7469C33.4109 11.9971 32.2969 12.8877 30.8239 12.8877ZM38.1919 18C40.3119 18 41.3099 17.2293 42.1809 14.8915L45.9999 4.68411H43.7899L41.2289 12.5709H41.1839L38.6229 4.68411H36.3499L40.0339 14.4034L39.8359 14.9943C39.5039 15.9962 38.9639 16.3815 38.0029 16.3815C37.8319 16.3815 37.4999 16.3644 37.3649 16.3473V17.9486C37.4909 17.9829 38.0299 18 38.1919 18Z" fill="#777777"/>
<path d="M8.40492 2.32065C7.86592 2.92864 7.00288 3.40818 6.14088 3.33968C6.03288 2.5176 6.45486 1.64415 6.94886 1.10466C7.48886 0.47954 8.43187 0.03425 9.19587 0C9.28587 0.85633 8.93492 1.69553 8.40492 2.32065ZM9.1869 3.50238C7.9379 3.43387 6.86889 4.17888 6.27589 4.17888C5.67389 4.17888 4.7659 3.53663 3.7779 3.55376C2.4929 3.57088 1.29792 4.26451 0.641918 5.36917C-0.706082 7.5785 0.290883 10.8497 1.59388 12.648C2.23188 13.5385 2.9959 14.5147 4.0019 14.4805C4.9549 14.4462 5.33188 13.8896 6.48188 13.8896C7.64088 13.8896 7.97387 14.4805 8.97987 14.4634C10.0219 14.4462 10.6779 13.5728 11.3159 12.6822C12.0439 11.6717 12.3409 10.687 12.3589 10.6356C12.3409 10.6185 10.3459 9.8906 10.3279 7.69838C10.3099 5.86584 11.8999 4.99239 11.9719 4.94101C11.0739 3.67364 9.6719 3.53663 9.1869 3.50238ZM16.4019 1.01903V14.3692H18.5769V9.8049H21.5869C24.3359 9.8049 26.2679 8.00666 26.2679 5.40343C26.2679 2.80019 24.3719 1.01903 21.6589 1.01903H16.4019ZM18.5769 2.76594H21.0829C22.9699 2.76594 24.0489 3.72502 24.0489 5.41199C24.0489 7.09895 22.9699 8.0666 21.0739 8.0666H18.5769V2.76594ZM30.2399 14.4719C31.6049 14.4719 32.8719 13.8126 33.4469 12.7678H33.4919V14.3692H35.5049V7.72407C35.5049 5.79734 33.8879 4.55566 31.3989 4.55566C29.0889 4.55566 27.3819 5.81446 27.3189 7.54424H29.2779C29.4399 6.72217 30.2399 6.18268 31.3359 6.18268C32.6659 6.18268 33.4109 6.77355 33.4109 7.86109V8.59753L30.6979 8.75167C28.1729 8.89724 26.8069 9.882 26.8069 11.5947C26.8069 13.3245 28.2179 14.4719 30.2399 14.4719ZM30.8239 12.8877C29.6649 12.8877 28.9279 12.3568 28.9279 11.5433C28.9279 10.7041 29.6379 10.216 30.9939 10.1389L33.4109 9.9933V10.7469C33.4109 11.9971 32.2969 12.8877 30.8239 12.8877ZM38.1919 18C40.3119 18 41.3099 17.2293 42.1809 14.8915L45.9999 4.68411H43.7899L41.2289 12.5709H41.1839L38.6229 4.68411H36.3499L40.0339 14.4034L39.8359 14.9943C39.5039 15.9962 38.9639 16.3815 38.0029 16.3815C37.8319 16.3815 37.4999 16.3644 37.3649 16.3473V17.9486C37.4909 17.9829 38.0299 18 38.1919 18Z" fill="#777777"/>
</svg>
