<svg width="20" height="20" viewBox="0 0 20 20" fill="none" xmlns="http://www.w3.org/2000/svg">
<path d="M19.8389 7.01015C19.6019 5.15926 18.9369 3.47449 17.7749 2.24056C16.5409 1.07783 14.8568 0.413409 13.0058 0.176116C11.2268 -0.061177 10.0169 0.0100108 10.0169 0.0100108C10.0169 0.0100108 8.80684 -0.0374478 7.02684 0.176116C5.17684 0.413409 3.49186 1.07783 2.25786 2.24056C1.09586 3.47449 0.431833 5.15926 0.193833 7.01015C-0.0431674 8.78984 0.00389122 10 0.00389122 10C0.00389122 10 -0.0431166 11.2102 0.170883 12.9899C0.407883 14.8406 1.07185 16.5256 2.23485 17.7595C3.46785 18.9222 5.15285 19.5864 7.00285 19.8237C8.78285 20.061 9.99284 19.9901 9.99284 19.9901C9.99284 19.9901 11.2029 20.0373 12.9819 19.8237C14.8329 19.5864 16.5168 18.9222 17.7508 17.7595C18.9138 16.5258 19.5779 14.8406 19.8149 12.9899C20.0519 11.2102 19.9809 10 19.9809 10C19.9809 10 20.0759 8.78984 19.8389 7.01015Z" fill="#1E4BC6"/>
<path d="M3.33301 9.1665H5.19299C5.48599 9.1665 5.73101 9.21065 5.97601 9.29895C6.22001 9.38725 6.41598 9.5197 6.58698 9.67422C6.75798 9.82875 6.90499 10.0054 7.00299 10.2261C7.10099 10.4469 7.15002 10.6676 7.15002 10.9105C7.15002 11.1533 7.10099 11.374 7.00299 11.5948C6.90499 11.8155 6.75798 11.9924 6.58698 12.1467C6.41598 12.301 6.19601 12.4339 5.97601 12.5217C5.75501 12.61 5.48599 12.6546 5.19299 12.6546H4.36102V14.0451H3.35797V9.1665H3.33301ZM4.336 10.0056V11.7937H5.11902C5.26602 11.7937 5.41297 11.7716 5.53497 11.7275C5.65697 11.6833 5.75503 11.6171 5.85303 11.5288C5.95103 11.4405 6.00001 11.3522 6.04901 11.2418C6.09801 11.1314 6.12201 11.0211 6.12201 10.8886C6.12201 10.7562 6.09801 10.6458 6.04901 10.5354C6.00001 10.425 5.92703 10.3367 5.85303 10.2484C5.75503 10.1601 5.65697 10.0939 5.53497 10.0497C5.41297 10.0056 5.26602 9.98349 5.11902 9.98349H4.336V10.0056ZM9.474 14.0451C9.205 14.0451 8.95998 14.0012 8.69098 13.9127C8.44598 13.8244 8.20198 13.6919 8.00598 13.5376C7.80998 13.3608 7.63903 13.1621 7.51703 12.9193C7.39403 12.6765 7.32098 12.3895 7.32098 12.0804C7.32098 11.7714 7.37 11.4844 7.492 11.2416C7.615 10.9988 7.78599 10.8001 7.98199 10.6235C8.17699 10.4469 8.42199 10.3365 8.66699 10.2482C8.93599 10.1599 9.18 10.1158 9.474 10.1158C9.768 10.1158 10.037 10.1599 10.257 10.2482C10.502 10.3365 10.697 10.469 10.869 10.6235V10.1158H11.872V14.0449H10.869V13.493C10.722 13.6698 10.502 13.8021 10.257 13.9124C10.012 14.0012 9.768 14.0451 9.474 14.0451ZM9.64502 13.2286C9.84102 13.2286 10.012 13.2065 10.159 13.1403C10.306 13.074 10.453 13.0078 10.575 12.8974C10.697 12.7871 10.771 12.6767 10.844 12.5442C10.917 12.4113 10.942 12.257 10.942 12.1027C10.942 11.948 10.917 11.7935 10.844 11.6612C10.771 11.5288 10.697 11.3963 10.575 11.308C10.453 11.1977 10.33 11.1314 10.159 11.0652C9.988 10.9769 9.81702 10.9548 9.64502 10.9548C9.47402 10.9548 9.30298 10.9769 9.13098 11.0431C8.95998 11.1094 8.838 11.1756 8.716 11.286C8.593 11.3963 8.49498 11.5067 8.44598 11.6392C8.37298 11.7716 8.349 11.9261 8.349 12.0807C8.349 12.2352 8.37298 12.3895 8.44598 12.5219C8.51998 12.6548 8.618 12.7871 8.716 12.8974C8.838 13.0078 8.98498 13.0738 9.13098 13.1403C9.27798 13.1842 9.45002 13.2286 9.64502 13.2286ZM13.266 10.1378L14.489 12.8089L15.615 10.1378H16.667L14.098 15.8332H13.07L13.976 13.8687L12.214 10.1378H13.266Z" fill="white"/>
<path d="M14.814 5.44198V7.319H14.134L13.667 5.7747H13.655L13.68 7.319H13.214V5.44198H13.919L14.36 6.92985H14.367L14.342 5.44198H14.814ZM5.02197 7.3379L5.375 5.44198H6.21899L6.57202 7.3379H6.06201L5.80298 5.61148H5.797L5.53198 7.3379H5.02197ZM9.03003 5.44198L9.07397 7.3379H8.59497L8.58197 5.63031H8.57001L8.255 7.3379H7.76898L7.45398 5.63031H7.44202L7.42902 7.3379H6.95001L6.99402 5.44198H7.776L8.00897 6.89218H8.01501L8.255 5.44198H9.03003ZM12.01 7.04912C12.142 7.04912 12.187 6.96124 12.193 6.91095C12.199 6.89218 12.199 6.86079 12.199 6.83568V5.44204H12.684V6.80429C12.684 6.84196 12.678 6.91095 12.678 6.92985C12.647 7.2814 12.363 7.40067 12.01 7.40067C11.657 7.40067 11.38 7.28761 11.348 6.92985C11.348 6.91095 11.342 6.84196 11.342 6.80429V5.44204H11.827V6.84818C11.827 6.87329 11.827 6.89846 11.834 6.92357C11.84 6.96124 11.878 7.04912 12.01 7.04912ZM4.216 6.79802C4.234 6.8419 4.22798 6.90467 4.22198 6.93606C4.20298 6.99884 4.16502 7.06162 4.03302 7.06162C3.91302 7.06162 3.84399 6.99256 3.84399 6.89218V6.71013H3.33301V6.85445C3.33301 7.2814 3.667 7.40695 4.026 7.40695C4.373 7.40695 4.65699 7.28767 4.70099 6.97379C4.72599 6.81057 4.70699 6.70391 4.70099 6.65991C4.61899 6.26448 3.89399 6.14514 3.84399 5.91921C3.83699 5.88154 3.83699 5.84388 3.84399 5.81876C3.85599 5.75599 3.90002 5.69321 4.02002 5.69321C4.13402 5.69321 4.19702 5.76227 4.19702 5.86271V5.98198H4.66901V5.85015C4.66901 5.43583 4.297 5.37305 4.026 5.37305C3.686 5.37305 3.40901 5.48605 3.35901 5.79365C3.34601 5.87526 3.34599 5.9506 3.36499 6.05104C3.43999 6.44641 4.121 6.55319 4.216 6.79802ZM10.41 6.79802C10.428 6.8419 10.422 6.89846 10.416 6.93606C10.403 6.99884 10.359 7.06162 10.233 7.06162C10.113 7.06162 10.044 6.99256 10.044 6.89218V6.71013H9.53998V6.85445C9.53998 7.27512 9.87399 7.40067 10.227 7.40067C10.567 7.40067 10.851 7.28761 10.895 6.97373C10.92 6.81051 10.901 6.70385 10.895 6.66612C10.813 6.27069 10.101 6.1577 10.05 5.93798C10.038 5.90031 10.044 5.86265 10.05 5.83754C10.063 5.77476 10.107 5.71198 10.221 5.71198C10.334 5.71198 10.397 5.78104 10.397 5.88148V6.00075H10.87V5.86892C10.87 5.46088 10.498 5.3981 10.233 5.3981C9.89897 5.3981 9.62202 5.50482 9.57202 5.81242C9.55902 5.89403 9.553 5.96937 9.578 6.06353C9.647 6.44641 10.315 6.55319 10.41 6.79802ZM15.986 7.03023C16.125 7.03023 16.169 6.94234 16.181 6.89218C16.188 6.87329 16.188 6.8419 16.188 6.823V6.54691H15.992V6.27063H16.667V6.77912C16.667 6.81679 16.667 6.8419 16.66 6.90467C16.629 7.24995 16.326 7.3755 15.986 7.3755C15.652 7.3755 15.35 7.24995 15.318 6.90467C15.312 6.8419 15.312 6.81679 15.312 6.77912V5.98186C15.312 5.95047 15.318 5.88769 15.318 5.85631C15.362 5.49848 15.646 5.38548 15.986 5.38548C16.326 5.38548 16.623 5.49848 16.654 5.85631C16.66 5.9128 16.66 5.98186 16.66 5.98186V6.04464H16.181V5.93791C16.181 5.93791 16.181 5.89397 16.175 5.86258C16.169 5.81864 16.131 5.72447 15.986 5.72447C15.848 5.72447 15.81 5.81864 15.797 5.86258C15.791 5.88769 15.791 5.91908 15.791 5.95047V6.81672C15.791 6.84183 15.791 6.86701 15.797 6.88578C15.797 6.94862 15.848 7.03023 15.986 7.03023Z" fill="white"/>
</svg>
