<svg width="28" height="20" viewBox="0 0 28 20" fill="none" xmlns="http://www.w3.org/2000/svg">
<path fill-rule="evenodd" clip-rule="evenodd" d="M17.9199 20C23.4869 20 27.9998 15.5228 27.9998 10C27.9998 4.47715 23.4869 0 17.9199 0C12.3529 0 7.83984 4.47715 7.83984 10C7.83984 15.5228 12.3529 20 17.9199 20ZM17.9199 13.8889C20.0849 13.8889 21.8398 12.1478 21.8398 10C21.8398 7.85223 20.0849 6.11111 17.9199 6.11111C15.7549 6.11111 13.9998 7.85223 13.9998 10C13.9998 12.1478 15.7549 13.8889 17.9199 13.8889Z" fill="#8A42F9"/>
<path d="M7.84 3.3335H0L4.181 16.6669H7.84V3.3335Z" fill="#8A42F9"/>
</svg>
