<svg width="20" height="20" viewBox="0 0 20 20" fill="none" xmlns="http://www.w3.org/2000/svg">
<path fill-rule="evenodd" clip-rule="evenodd" d="M9.987 3.18272e-06C11.497 -0.00121307 12.987 0.346173 14.341 1.01517C14.547 1.11365 14.753 1.22247 14.96 1.34168L14.046 2.16693L12.671 0.736378L10.35 2.81778L8.97198 1.30504L4.646 5.22353L7.41901 8.29678L6.32999 9.25971L9.05899 12.3374L7.97601 13.2982L11.875 17.6664L14.19 15.5217L16.186 17.8186C15.773 18.1429 15.335 18.4355 14.878 18.6938C13.389 19.5499 11.703 20.0002 9.987 20C7.338 20 4.79799 18.9464 2.92499 17.0711C1.05199 15.1957 0 12.6522 0 9.99998C0 7.34782 1.05199 4.80429 2.92499 2.92893C4.79799 1.05356 7.338 3.18272e-06 9.987 3.18272e-06ZM8.17599 9.36858L10.538 7.22718L12.667 9.60514L10.304 11.7454L8.17599 9.36858ZM9.85599 13.4781L12.219 11.3356L14.347 13.7135L11.984 15.8561L9.85599 13.4781ZM6.48499 5.30793L8.84799 3.16653L10.975 5.54449L8.61301 7.68477L6.48499 5.30793ZM10.821 4.15505L12.596 2.55011L14.191 4.33277L12.416 5.93991L10.82 4.15505H10.821ZM13.97 11.5099L15.745 9.90392L17.34 11.6877L15.565 13.2926L13.97 11.5099ZM15.523 15.1119L17.298 13.5059L18.894 15.2896L17.119 16.8945L15.523 15.1119ZM16.237 6.85732L17.419 5.78663L18.483 6.97507L17.301 8.04463L16.237 6.85732ZM14.728 3.32313L15.909 2.25356L16.973 3.442L15.792 4.51268L14.728 3.32313ZM17.747 10.3882L18.93 9.31747L20 10.507L18.819 11.5777L17.755 10.3882H17.747ZM12.449 7.74144L14.224 6.13538L15.82 7.91804L14.046 9.52518L12.449 7.74144Z" fill="#0083DE"/>
</svg>
