<svg width="51" height="12" viewBox="0 0 51 12" fill="none" xmlns="http://www.w3.org/2000/svg">
<path fill-rule="evenodd" clip-rule="evenodd" d="M13.531 12V4.87353H13.164L10.551 12H7.44901H7.44L4.83299 4.87353H4.46899V12H0V0.00033832H4.46899C5.01999 -0.00592168 5.559 0.144068 6.007 0.428468C6.456 0.712858 6.79001 1.11684 6.96201 1.58163L8.799 7.1281H9.185L11.024 1.58163C11.197 1.11508 11.534 0.709889 11.985 0.425369C12.436 0.140859 12.978 -0.00808168 13.531 0.00033832H18V12H13.531Z" fill="#52B461"/>
<path fill-rule="evenodd" clip-rule="evenodd" d="M28.621 11.9947V4.87117H28.293L25.574 10.8485C25.407 11.1903 25.137 11.4802 24.795 11.6836C24.454 11.8869 24.056 11.9949 23.649 11.9947H20V0H24.336V7.1235H24.68L27.433 1.13951L27.455 1.0942C27.629 0.76727 27.898 0.49187 28.234 0.29939C28.569 0.1069 28.956 0.00502009 29.351 0.00533009H33V12H28.624L28.621 11.9947Z" fill="#52B461"/>
<path fill-rule="evenodd" clip-rule="evenodd" d="M45.838 7.8254H40.521V12H36V5H51C50.534 5.88923 49.796 6.6314 48.878 7.1339C47.96 7.6364 46.903 7.8769 45.838 7.8254Z" fill="#52B461"/>
<path fill-rule="evenodd" clip-rule="evenodd" d="M50.89 4H42.599C38.813 4 35.663 2.27012 35 0H45.758C48.653 0 51 1.48634 51 3.31867C51 3.5491 50.963 3.77842 50.89 4Z" fill="url(#paint0_linear_1106_110)"/>
<defs>
<linearGradient id="paint0_linear_1106_110" x1="51.014" y1="1.99601" x2="34.977" y2="1.99601" gradientUnits="userSpaceOnUse">
<stop stop-color="#198ECA"/>
<stop offset="1" stop-color="#1DB5E4"/>
</linearGradient>
</defs>
</svg>
