<svg width="24" height="20" viewBox="0 0 24 20" fill="none" xmlns="http://www.w3.org/2000/svg">
<path fill-rule="evenodd" clip-rule="evenodd" d="M4.43297 3.12916C3.25197 4.33013 2.40497 5.78829 1.95697 7.36929C1.52597 7.07523 0.930967 7.07001 0.488967 7.39523C-0.0970334 7.82716 -0.130036 8.60408 0.257964 9.08256C0.657964 9.57513 1.22797 9.94713 1.79397 10.236C2.78997 10.745 4.28098 11.2 6.40198 11.2C8.77998 11.2 11.01 9.95666 12.876 8.91685C14.972 7.74813 16.656 6.82197 18.3 6.8C20.662 6.802 21.946 7.71446 21.992 7.7476C22.528 8.151 23.302 8.06178 23.726 7.54555C24.191 6.94688 24.013 6.21192 23.477 5.82507C23.25 5.66085 22.325 5.04749 20.775 4.68112C20.751 4.63399 20.724 4.5878 20.694 4.54286C19.689 3.05824 18.289 1.85185 16.63 1.05467C14.635 0.0953595 12.372 -0.220777 10.176 0.152529C7.97996 0.525843 5.96597 1.56907 4.43297 3.12916ZM15.525 3.20367C14.005 2.47285 12.28 2.23166 10.606 2.51628C8.93196 2.80089 7.39796 3.59594 6.23196 4.78249C5.19596 5.83672 4.49796 7.15025 4.21496 8.56568C4.78896 8.70289 5.50998 8.80001 6.40198 8.80001C8.03498 8.80001 9.70198 7.91494 11.743 6.77794L11.992 6.63934C13.668 5.70298 15.457 4.70445 17.398 4.4576C16.844 3.95811 16.214 3.53468 15.525 3.20367Z" fill="#2D927D"/>
<path fill-rule="evenodd" clip-rule="evenodd" d="M3.06494 15.1059C2.20894 14.8183 1.35394 14.3899 0.503939 13.7825C-0.0480612 13.3887 -0.164063 12.6373 0.242937 12.1043C0.649937 11.5713 1.42694 11.4585 1.97894 11.8524C3.39594 12.8648 4.78393 13.1998 6.20493 13.1998C7.75593 13.1998 9.36495 12.3537 10.786 11.6066C11.089 11.4469 11.3839 11.2918 11.6679 11.1504C11.8389 11.0652 12.0119 10.9785 12.1859 10.8911C14.1769 9.89116 16.3499 8.7998 18.6159 8.7998C20.2879 8.7998 22.1309 9.25762 23.4949 10.2375C23.7789 10.4433 24.3209 11.0863 23.7459 11.9198C23.3899 12.4364 22.6569 12.5446 22.1149 12.2291C21.7169 13.9031 20.8749 15.4578 19.6629 16.7372C18.1349 18.3492 16.1019 19.4358 13.8739 19.8326C11.6459 20.2295 9.34494 19.9152 7.31894 18.9372C5.66694 18.1396 4.27294 16.936 3.27194 15.457C3.23994 15.4106 3.21294 15.3629 3.18894 15.3142L3.06494 15.1059ZM18.6159 11.1998C18.9899 11.1998 19.385 11.2312 19.778 11.2973C19.522 12.7172 18.8489 14.0431 17.8329 15.1157C16.6709 16.3417 15.123 17.1698 13.424 17.4724C11.726 17.775 9.97095 17.5352 8.42795 16.7901C7.76495 16.4697 7.15595 16.0634 6.61695 15.5862C8.48095 15.4644 10.289 14.5462 11.946 13.7053C12.168 13.5927 12.3869 13.4814 12.6029 13.3737C12.8649 13.243 13.1339 13.1042 13.4089 12.9626C15.0189 12.1316 16.8249 11.1998 18.6159 11.1998Z" fill="#2D927D"/>
</svg>
