<svg width="15" height="20" viewBox="0 0 15 20" fill="none" xmlns="http://www.w3.org/2000/svg">
<path d="M0 4.35352L2.24103 8.68269V11.3233L0.00299072 15.644L0 4.35352Z" fill="#5B57A2"/>
<path d="M8.60303 7.10725L10.703 5.71625L15 5.71191L8.60303 9.94758V7.10725Z" fill="#D90751"/>
<path d="M8.59192 4.32783L8.60297 10.0595L6.35693 8.56783V0L8.59192 4.32783Z" fill="#FAB718"/>
<path d="M14.9999 5.71183L10.7029 5.71617L8.59192 4.32783L6.35693 0L14.9999 5.71183Z" fill="#ED6F26"/>
<path d="M8.60297 15.668V12.8871L6.35693 11.4238L6.35895 20.0001L8.60297 15.668Z" fill="#63B22F"/>
<path d="M10.698 14.2897L2.24103 8.68269L0 4.35352L14.991 14.284L10.698 14.2897Z" fill="#1487C9"/>
<path d="M6.35889 19.9999L8.60291 15.6677L10.6979 14.2894L14.9909 14.2837L6.35889 19.9999Z" fill="#017F36"/>
<path d="M0.00292969 15.6439L6.37592 11.4239L4.23291 10.0029L2.24097 11.3232L0.00292969 15.6439Z" fill="#984995"/>
</svg>
