<svg width="8" height="5" viewBox="0 0 8 5" fill="none" xmlns="http://www.w3.org/2000/svg">
<path fill-rule="evenodd" clip-rule="evenodd" d="M1.28033 0.487248C0.987437 0.194355 0.512563 0.194355 0.21967 0.487248C-0.0732233 0.780141 -0.0732233 1.25501 0.21967 1.54791L3.15097 4.47921C3.16106 4.49059 3.17155 4.50174 3.18245 4.51264C3.356 4.68619 3.59345 4.7569 3.81907 4.72478C3.97482 4.70297 4.12504 4.63217 4.24482 4.51239C4.25425 4.50296 4.26337 4.49334 4.2722 4.48355L7.20759 1.54815C7.50049 1.25526 7.50049 0.780386 7.20759 0.487492C6.9147 0.194599 6.43983 0.194599 6.14693 0.487492L3.71375 2.92067L1.28033 0.487248Z" fill="#757575"/>
</svg>
