<svg width="16" height="12" viewBox="0 0 16 12" xmlns="http://www.w3.org/2000/svg" id="burger-16-12">
    <path d="M0 1C0 0.447716 0.447716 0 1 0H15C15.5523 0 16 0.447716 16 1C16 1.55228 15.5523 2 15 2H1C0.447716 2 0 1.55228 0 1Z"/>
    <path d="M0 6C0 5.44772 0.447716 5 1 5H15C15.5523 5 16 5.44772 16 6C16 6.55228 15.5523 7 15 7H1C0.447716 7 0 6.55228 0 6Z"/>
    <path d="M0 11C0 10.4477 0.447716 10 1 10H15C15.5523 10 16 10.4477 16 11C16 11.5523 15.5523 12 15 12H1C0.447716 12 0 11.5523 0 11Z"/>
</svg>