<svg width="16" height="16" viewBox="0 0 16 16" xmlns="http://www.w3.org/2000/svg">
    <path fill-rule="evenodd" clip-rule="evenodd" d="M0 3C0 2.44772 0.447715 2 1 2H2C2.55228 2 3 2.44772 3 3C3 3.55228 2.55228 4 2 4H1C0.447715 4 0 3.55228 0 3ZM5 3C5 2.44772 5.44772 2 6 2H15C15.5523 2 16 2.44772 16 3C16 3.55228 15.5523 4 15 4H6C5.44772 4 5 3.55228 5 3ZM0 8C0 7.44772 0.447715 7 1 7H2C2.55228 7 3 7.44772 3 8C3 8.55228 2.55228 9 2 9H1C0.447715 9 0 8.55228 0 8ZM5 8C5 7.44772 5.44772 7 6 7H15C15.5523 7 16 7.44772 16 8C16 8.55228 15.5523 9 15 9H6C5.44772 9 5 8.55228 5 8ZM0 13C0 12.4477 0.447715 12 1 12H2C2.55228 12 3 12.4477 3 13C3 13.5523 2.55228 14 2 14H1C0.447715 14 0 13.5523 0 13ZM5 13C5 12.4477 5.44772 12 6 12H15C15.5523 12 16 12.4477 16 13C16 13.5523 15.5523 14 15 14H6C5.44772 14 5 13.5523 5 13Z" />
</svg>