<svg width="21" height="18" viewBox="0 0 21 18" xmlns="http://www.w3.org/2000/svg" id="cart-21-18">
    <path fill-rule="evenodd" clip-rule="evenodd" d="M1 0C0.447715 0 0 0.447715 0 1C0 1.55228 0.447715 2 1 2H4.27924L5.04402 4.29435C5.04858 4.30917 5.05348 4.32385 5.0587 4.33837L7.45302 11.5213C7.95652 13.0318 9.55233 13.8859 11.0884 13.467L18.7894 11.3667C20.0945 11.0107 21 9.82526 21 8.47241V6C21 4.34315 19.6569 3 18 3H6.72076L6.17661 1.36754C5.90438 0.55086 5.1401 0 4.27924 0H1ZM9.35039 10.8889L7.38743 5H18C18.5523 5 19 5.44772 19 6V8.47241C19 8.92336 18.6982 9.31852 18.2631 9.43717L10.5622 11.5374C10.0502 11.6771 9.51822 11.3924 9.35039 10.8889Z"/>
    <path d="M8 16C8 17.1046 7.10457 18 6 18C4.89543 18 4 17.1046 4 16C4 14.8954 4.89543 14 6 14C7.10457 14 8 14.8954 8 16Z"/>
    <path d="M19 16C19 17.1046 18.1046 18 17 18C15.8954 18 15 17.1046 15 16C15 14.8954 15.8954 14 17 14C18.1046 14 19 14.8954 19 16Z"/>
</svg>