<svg width="21" height="21" viewBox="0 0 21 21" fill="none" xmlns="http://www.w3.org/2000/svg">
<path d="M14.5211 7.42233V4.6699C14.5211 2.64307 12.8175 1 10.716 1C8.61453 1 6.91093 2.64307 6.91093 4.6699V7.42233M2.71772 8.66273L2.14695 14.5346C1.98467 16.2041 1.90353 17.0389 2.19076 17.6836C2.44308 18.25 2.88525 18.7184 3.44641 19.0135C4.0852 19.3495 4.95451 19.3495 6.69313 19.3495H14.7389C16.4775 19.3495 17.3468 19.3495 17.9856 19.0135C18.5468 18.7184 18.989 18.25 19.2413 17.6836C19.5285 17.0389 19.4474 16.2041 19.2851 14.5346L18.7143 8.66273C18.5773 7.25292 18.5088 6.54801 18.18 6.01507C17.8905 5.54571 17.4628 5.17003 16.9512 4.93583C16.3704 4.6699 15.6363 4.6699 14.1681 4.6699L7.2639 4.6699C5.79574 4.6699 5.06166 4.6699 4.48082 4.93583C3.96927 5.17003 3.54152 5.54571 3.25201 6.01507C2.92328 6.54801 2.85476 7.25291 2.71772 8.66273Z" stroke="" stroke-width="2" stroke-linecap="round" stroke-linejoin="round"/>
</svg>
