<svg width="14" height="15" viewBox="0 0 14 15" fill="none" xmlns="http://www.w3.org/2000/svg">
<path d="M12.615 11.1816C12.615 11.391 12.5685 11.6062 12.4696 11.8156C12.3708 12.025 12.2428 12.2227 12.0741 12.4089C11.7891 12.7229 11.4751 12.9498 11.1203 13.0952C10.7713 13.2406 10.3932 13.3162 9.9861 13.3162C9.39284 13.3162 8.75887 13.1766 8.09 12.8916C7.42113 12.6066 6.75227 12.2227 6.08921 11.74C5.42035 11.2514 4.78637 10.7105 4.18149 10.1115C3.58241 9.50656 3.0415 8.87259 2.55875 8.20954C2.08182 7.54649 1.69795 6.88344 1.41877 6.2262C1.13959 5.56315 1 4.92918 1 4.32429C1 3.92879 1.06979 3.55073 1.20938 3.20176C1.34897 2.84696 1.56999 2.52125 1.87825 2.23044C2.25049 1.86402 2.65763 1.68372 3.08803 1.68372C3.25089 1.68372 3.41374 1.71861 3.55915 1.78841C3.71037 1.8582 3.84414 1.9629 3.94884 2.11412L5.2982 4.01603C5.4029 4.16144 5.47851 4.29521 5.53085 4.42317C5.5832 4.54531 5.61228 4.66745 5.61228 4.77796C5.61228 4.91755 5.57157 5.05714 5.49014 5.19091C5.41453 5.32468 5.30402 5.46427 5.16443 5.60386L4.7224 6.06335C4.65842 6.12733 4.62934 6.20294 4.62934 6.296C4.62934 6.34253 4.63515 6.38324 4.64679 6.42977C4.66423 6.4763 4.68168 6.5112 4.69332 6.54609C4.79801 6.73803 4.97831 6.98813 5.23423 7.29057C5.49596 7.59302 5.77514 7.90128 6.07758 8.20954C6.39166 8.5178 6.6941 8.8028 7.00236 9.06453C7.30481 9.32044 7.55491 9.49493 7.75266 9.59962C7.78174 9.61125 7.81664 9.6287 7.85735 9.64615C7.90388 9.6636 7.95041 9.66942 8.00276 9.66942C8.10163 9.66942 8.17724 9.63452 8.24122 9.57054L8.68326 9.13432C8.82866 8.98892 8.96825 8.87841 9.10203 8.80861C9.2358 8.72719 9.36957 8.68647 9.51498 8.68647C9.62549 8.68647 9.74181 8.70974 9.86977 8.76208C9.99773 8.81443 10.1315 8.89004 10.2769 8.98892L12.2021 10.3557C12.3533 10.4604 12.458 10.5826 12.522 10.728C12.5801 10.8734 12.615 11.0188 12.615 11.1816Z" stroke="black" stroke-width="1.4" stroke-miterlimit="10"/>
<path d="M10.5943 5.75505C10.5943 5.40607 10.3209 4.87098 9.91378 4.43476C9.54154 4.03344 9.04716 3.71936 8.55859 3.71936" stroke="black" stroke-width="1.4" stroke-linecap="round" stroke-linejoin="round"/>
<path d="M12.63 5.75496C12.63 3.50408 10.8095 1.68359 8.55859 1.68359" stroke="black" stroke-width="1.4" stroke-linecap="round" stroke-linejoin="round"/>
</svg>
