<svg width="10" height="10" viewBox="0 0 10 10" fill="none" xmlns="http://www.w3.org/2000/svg">
<path fill-rule="evenodd" clip-rule="evenodd" d="M8.3436 9.59597C8.63649 9.88886 9.11137 9.88886 9.40426 9.59597C9.69715 9.30307 9.69715 8.8282 9.40426 8.53531L5.86862 4.99966L9.40392 1.46436C9.69681 1.17146 9.69681 0.696589 9.40392 0.403695C9.11103 0.110802 8.63615 0.110802 8.34326 0.403695L4.80796 3.939L1.40426 0.535306C1.11137 0.242413 0.636494 0.242412 0.343601 0.535306C0.0507075 0.828199 0.0507078 1.30307 0.343601 1.59597L3.7473 4.99966L0.343262 8.4037C0.0503683 8.69659 0.0503683 9.17146 0.343262 9.46436C0.636155 9.75725 1.11103 9.75725 1.40392 9.46436L4.80796 6.06032L8.3436 9.59597Z" fill="#ACACAC"/>
</svg>
