<svg width="20" height="16" viewBox="0 0 20 16" xmlns="http://www.w3.org/2000/svg">
    <path d="M0 1C0 0.447715 0.447715 0 1 0H13C13.5523 0 14 0.447715 14 1C14 1.55228 13.5523 2 13 2H1C0.447715 2 0 1.55228 0 1Z"/>
    <path d="M0 15C0 14.4477 0.447715 14 1 14H13C13.5523 14 14 14.4477 14 15C14 15.5523 13.5523 16 13 16H1C0.447715 16 0 15.5523 0 15Z"/>
    <path d="M13 7C12.4477 7 12 7.44772 12 8C12 8.55229 12.4477 9 13 9H15V11C15 11.5523 15.4477 12 16 12C16.5523 12 17 11.5523 17 11V9H19C19.5523 9 20 8.55229 20 8C20 7.44772 19.5523 7 19 7H17V5C17 4.44772 16.5523 4 16 4C15.4477 4 15 4.44772 15 5V7H13Z"/>
    <path d="M1 7C0.447715 7 0 7.44772 0 8C0 8.55229 0.447715 9 1 9H9C9.55229 9 10 8.55229 10 8C10 7.44772 9.55229 7 9 7H1Z"/>
</svg>