<svg width="15" height="17" viewBox="0 0 15 17" fill="none" xmlns="http://www.w3.org/2000/svg">
<path fill-rule="evenodd" clip-rule="evenodd" d="M6.04243 0.825561C6.04243 0.411348 5.70664 0.0755615 5.29243 0.0755615C4.87821 0.0755615 4.54243 0.411348 4.54243 0.825562L4.54243 15.5635C4.54243 15.9777 4.87821 16.3135 5.29243 16.3135C5.70664 16.3135 6.04243 15.9777 6.04243 15.5635L6.04243 0.825561ZM2 8.94452C2 8.53031 1.66421 8.19452 1.25 8.19452C0.835786 8.19452 0.5 8.53031 0.5 8.94452V15.5635C0.5 15.9777 0.835787 16.3135 1.25 16.3135C1.66421 16.3135 2 15.9777 2 15.5635L2 8.94452ZM9.34236 8.1947C9.75657 8.1947 10.0924 8.53049 10.0924 8.9447V15.5637C10.0924 15.9779 9.75657 16.3137 9.34236 16.3137C8.92814 16.3137 8.59236 15.9779 8.59236 15.5637V8.9447C8.59236 8.53049 8.92814 8.1947 9.34236 8.1947ZM14.1369 3.87048C14.1369 3.45627 13.8011 3.12048 13.3869 3.12048C12.9727 3.12048 12.6369 3.45627 12.6369 3.87048L12.6369 15.5638C12.6369 15.978 12.9727 16.3138 13.3869 16.3138C13.8011 16.3138 14.1369 15.978 14.1369 15.5638L14.1369 3.87048Z" fill="black"/>
</svg>
