<svg width="22" height="22" viewBox="0 0 22 22" fill="none" xmlns="http://www.w3.org/2000/svg">
<path d="M8.25417 16.4627C8.25417 16.4627 8.80035 13.9804 11.0275 13.0668C13.2547 12.1532 13.8009 9.67083 13.8009 9.67083" stroke="#8A6048" stroke-width="1.5" stroke-linecap="round" stroke-linejoin="round"/>
<rect x="1.03571" width="9.4335" height="6.45164" rx="3.22582" transform="matrix(0.690476 -0.723356 0.690476 0.723356 4.82058 14.892)" stroke="#8A6048" stroke-width="1.5"/>
<path d="M19.2269 1.00568C19.2301 0.865422 19.1173 0.75 18.977 0.75H3.02299C2.88269 0.75 2.76986 0.865422 2.77305 1.00568L3.22759 21.0057C3.23068 21.1415 3.34167 21.25 3.47753 21.25H18.5225C18.6583 21.25 18.7693 21.1415 18.7724 21.0057L19.2269 1.00568Z" stroke="#8A6048" stroke-width="1.5"/>
<path d="M3 4.19049L19 4.19049" stroke="#8A6048" stroke-width="1.5"/>
<path d="M11 5.23809V3.14285" stroke="#8A6048" stroke-width="1.5" stroke-linecap="round"/>
</svg>
