<svg width="15" height="3" viewBox="0 0 15 3" xmlns="http://www.w3.org/2000/svg" id="dots-15-3">
    <path d="M0 1.5C0 2.32843 0.671573 3 1.5 3C2.32843 3 3 2.32843 3 1.5C3 0.671574 2.32843 0 1.5 0C0.671573 0 0 0.671574 0 1.5Z"/>
    <path d="M6 1.5C6 2.32843 6.67157 3 7.5 3C8.32843 3 9 2.32843 9 1.5C9 0.671574 8.32843 0 7.5 0C6.67157 0 6 0.671574 6 1.5Z"/>
    <path d="M13.5 3C12.6716 3 12 2.32843 12 1.5C12 0.671574 12.6716 0 13.5 0C14.3284 0 15 0.671574 15 1.5C15 2.32843 14.3284 3 13.5 3Z"/>
</svg>