<svg width="18" height="16" viewBox="0 0 18 16" xmlns="http://www.w3.org/2000/svg">
    <path fill-rule="evenodd" clip-rule="evenodd" d="M1.381 1.82174C2.34318 0.674873 3.76177 0 5.52098 0C6.96294 0 8.14387 0.713899 8.99703 1.68332C9.84131 0.715432 11.012 0 12.4767 0C14.2583 0 15.681 0.671889 16.6405 1.8248C17.5794 2.95299 18 4.44961 18 6C18 8.44511 16.4984 10.5773 14.7999 12.2017C13.0767 13.8498 10.9846 15.1367 9.44211 15.897C9.1607 16.0357 8.83051 16.0343 8.55028 15.8932C7.01127 15.1183 4.92111 13.825 3.19921 12.1782C1.50328 10.5562 0 8.4318 0 6C0 4.44191 0.437452 2.9464 1.381 1.82174ZM2.91319 3.10719C2.33851 3.79218 2 4.79667 2 6C2 7.60597 3.01723 9.23667 4.58156 10.7328C5.96419 12.0551 7.64687 13.1485 9.00428 13.8753C10.3567 13.1629 12.0365 12.0772 13.4176 10.7563C14.98 9.26204 16 7.6229 16 6C16 4.78897 15.6703 3.78559 15.1032 3.10414C14.5567 2.4474 13.7178 2 12.4767 2C11.4317 2 10.5009 2.72433 9.88908 3.91274C9.71765 4.2457 9.37455 4.45497 9.00005 4.45499C8.62555 4.45501 8.28243 4.24578 8.11097 3.91283C7.50174 2.72985 6.54104 2 5.52098 2C4.31113 2 3.46923 2.44441 2.91319 3.10719Z"/>
</svg>