<svg width="32" height="31" viewBox="0 0 32 31" fill="none" xmlns="http://www.w3.org/2000/svg">
<path fill-rule="evenodd" clip-rule="evenodd" d="M16.3506 0.0759277C7.84249 0.0759277 0.945312 6.97311 0.945312 15.4812C0.945312 23.9893 7.84249 30.8865 16.3506 30.8865C24.8587 30.8865 31.7559 23.9893 31.7559 15.4812C31.7559 6.97311 24.8587 0.0759277 16.3506 0.0759277ZM17.66 21.243H14.7084H14.7083V14.6164H13.2715V12.3868H14.7083V10.5639C14.7083 10.5572 14.7083 10.5497 14.7083 10.5414C14.7067 10.1414 14.6982 7.99878 17.7326 7.99878H19.92V10.3204H18.3116C17.993 10.3204 17.6715 10.6265 17.6715 10.8542V12.379H19.9168C19.8264 13.5481 19.6408 14.6172 19.6408 14.6172H17.66V21.243Z" fill="black"/>
</svg>
