<svg width="31" height="30" viewBox="0 0 31 30" fill="none" xmlns="http://www.w3.org/2000/svg">
<rect x="0.8125" y="0.000610352" width="30" height="30" rx="15" fill="#484848"/>
<path fill-rule="evenodd" clip-rule="evenodd" d="M12.8125 9.00061C11.1556 9.00061 9.8125 10.3438 9.8125 12.0006V18.0006C9.8125 19.6575 11.1556 21.0006 12.8125 21.0006H18.8125C20.4694 21.0006 21.8125 19.6575 21.8125 18.0006V12.0006C21.8125 10.3438 20.4694 9.00061 18.8125 9.00061H12.8125ZM17.8125 12.0009C17.8125 11.4486 18.2602 11.0009 18.8125 11.0009C19.3648 11.0009 19.8125 11.4486 19.8125 12.0009C19.8125 12.5531 19.3648 13.0009 18.8125 13.0009C18.2602 13.0009 17.8125 12.5531 17.8125 12.0009ZM13.4121 15.0012C13.4121 13.6757 14.4866 12.6012 15.8121 12.6012C17.1376 12.6012 18.2121 13.6757 18.2121 15.0012C18.2121 16.3267 17.1376 17.4012 15.8121 17.4012C14.4866 17.4012 13.4121 16.3267 13.4121 15.0012Z" fill="white"/>
</svg>
