<svg width="32" height="31" viewBox="0 0 32 31" fill="none" xmlns="http://www.w3.org/2000/svg">
<path fill-rule="evenodd" clip-rule="evenodd" d="M0.755859 15.4812C0.755859 6.97311 7.65304 0.0759277 16.1611 0.0759277C24.6692 0.0759277 31.5664 6.97311 31.5664 15.4812C31.5664 23.9893 24.6692 30.8865 16.1611 30.8865C7.65304 30.8865 0.755859 23.9893 0.755859 15.4812ZM10.0859 12.0759C10.0859 10.4191 11.4291 9.07593 13.0859 9.07593H19.0859C20.7428 9.07593 22.0859 10.4191 22.0859 12.0759V18.0759C22.0859 19.7328 20.7428 21.0759 19.0859 21.0759H13.0859C11.4291 21.0759 10.0859 19.7328 10.0859 18.0759V12.0759ZM18.0859 12.0762C18.0859 11.5239 18.5337 11.0762 19.0859 11.0762C19.6382 11.0762 20.0859 11.5239 20.0859 12.0762C20.0859 12.6285 19.6382 13.0762 19.0859 13.0762C18.5337 13.0762 18.0859 12.6285 18.0859 12.0762ZM13.6855 15.0765C13.6855 13.751 14.7601 12.6765 16.0855 12.6765C17.411 12.6765 18.4855 13.751 18.4855 15.0765C18.4855 16.402 17.411 17.4765 16.0855 17.4765C14.7601 17.4765 13.6855 16.402 13.6855 15.0765Z" fill="black"/>
</svg>
