<svg width="32" height="31" viewBox="0 0 32 31" fill="none" xmlns="http://www.w3.org/2000/svg">
<rect x="0.755859" y="0.0759277" width="30.8106" height="30.8106" rx="15.4053" fill="black"/>
<path fill-rule="evenodd" clip-rule="evenodd" d="M13.0859 9.07593C11.4291 9.07593 10.0859 10.4191 10.0859 12.0759V18.0759C10.0859 19.7328 11.4291 21.0759 13.0859 21.0759H19.0859C20.7428 21.0759 22.0859 19.7328 22.0859 18.0759V12.0759C22.0859 10.4191 20.7428 9.07593 19.0859 9.07593H13.0859ZM18.0859 12.0762C18.0859 11.5239 18.5337 11.0762 19.0859 11.0762C19.6382 11.0762 20.0859 11.5239 20.0859 12.0762C20.0859 12.6285 19.6382 13.0762 19.0859 13.0762C18.5337 13.0762 18.0859 12.6285 18.0859 12.0762ZM13.6855 15.0765C13.6855 13.751 14.7601 12.6765 16.0855 12.6765C17.411 12.6765 18.4855 13.751 18.4855 15.0765C18.4855 16.402 17.411 17.4765 16.0855 17.4765C14.7601 17.4765 13.6855 16.402 13.6855 15.0765Z" fill="white"/>
</svg>
