<svg width="20" height="22" viewBox="0 0 20 22" fill="none" xmlns="http://www.w3.org/2000/svg" id="like-20-22">
    <path d="M8.4818 19.9992L8.50148 20H8.52119H14.5659C14.8811 20 15.2572 19.9536 15.6121 19.8661C15.9467 19.7836 16.3789 19.6368 16.7222 19.3684L16.1062 18.5807L16.7222 19.3684C17.2603 18.9476 17.6266 18.3457 17.7518 17.6748C17.9913 16.8208 18.129 15.9827 18.2773 15.0575C18.2845 15.0129 18.2917 14.9681 18.2989 14.9229C18.4458 14.0055 18.6123 12.9661 18.9012 11.6449C19.1572 10.4964 18.9068 9.51326 18.2171 8.83845C17.579 8.21413 16.7114 8 15.9901 8L13.495 8H12.5188C12.6278 7.7075 12.7338 7.39897 12.8299 7.087C13.1037 6.1977 13.3591 5.08733 13.237 4.22355C13.1583 3.6673 12.9612 3.08001 12.5322 2.63479C12.0688 2.15391 11.4434 1.95149 10.7697 2.00989C10.3916 2.04266 10.0247 2.15079 9.69908 2.3815C9.3785 2.60862 9.17276 2.90181 9.02879 3.17913C8.89014 3.44621 8.78673 3.74333 8.6979 4.01516C8.66356 4.12024 8.63132 4.22176 8.59885 4.32401C8.53918 4.5119 8.47873 4.70222 8.40308 4.92155C8.18601 5.55092 7.87302 6.23731 7.51313 6.84881C7.14627 7.47213 6.76605 7.95715 6.43584 8.23611C5.73703 8.82649 4.86772 9.0081 4.49824 9.0081H3.14235C1.95909 9.0081 1 9.96738 1 11.1505L1.00002 16.8559C1.00002 18.0391 1.95911 18.9984 3.14237 18.9984H5.90506C5.90685 18.9992 5.90872 19.0002 5.91067 19.0011C5.97974 19.0357 6.07918 19.0968 6.22874 19.1994C6.77915 19.5772 7.5359 19.9619 8.4818 19.9992Z" stroke-width="2"/>
</svg>