<svg width="19" height="19" viewBox="0 0 19 19" fill="none" xmlns="http://www.w3.org/2000/svg">
<path fill-rule="evenodd" clip-rule="evenodd" d="M2.33398 7.72933C2.33398 6.48686 2.6852 5.72281 3.18286 5.2607C3.69059 4.78924 4.46979 4.521 5.54232 4.521H13.459C14.5315 4.521 15.3107 4.78924 15.8184 5.2607C16.3161 5.72281 16.6673 6.48686 16.6673 7.72933V10.1043C16.6673 10.5185 17.0031 10.8543 17.4173 10.8543C17.8315 10.8543 18.1673 10.5185 18.1673 10.1043V7.72933C18.1673 6.20096 17.7269 4.98585 16.8391 4.16151C15.9614 3.3465 14.7615 3.021 13.459 3.021H5.54232C4.23985 3.021 3.03988 3.3465 2.16219 4.16151C1.27443 4.98585 0.833984 6.20096 0.833984 7.72933V13.271C0.833984 14.7994 1.27443 16.0145 2.16219 16.8388C3.03988 17.6538 4.23985 17.9793 5.54232 17.9793H9.50065C9.91486 17.9793 10.2507 17.6435 10.2507 17.2293C10.2507 16.8151 9.91486 16.4793 9.50065 16.4793H5.54232C4.46979 16.4793 3.69059 16.2111 3.18286 15.7396C2.6852 15.2775 2.33398 14.5135 2.33398 13.271V7.72933ZM13.9257 8.71102C14.2494 8.45251 14.3022 7.98058 14.0437 7.65694C13.7852 7.33329 13.3133 7.28048 12.9896 7.53898L10.5126 9.51741L10.5122 9.51774C9.97037 9.94871 9.02095 9.94881 8.47893 9.51803L8.47814 9.51741L6.00999 7.53971C5.68675 7.2807 5.21474 7.33278 4.95573 7.65602C4.69672 7.97926 4.74879 8.45127 5.07204 8.71029L7.54203 10.6895L7.54388 10.6909C8.63269 11.5577 10.3581 11.5577 11.4469 10.6909L11.4478 10.6902L13.9257 8.71102ZM15.9224 11.4971C16.5096 11.4367 17.0366 11.7034 17.4873 12.1542C17.9402 12.607 18.2099 13.1347 18.1516 13.7232C18.0973 14.272 17.7714 14.6883 17.4873 14.9723L17.1791 15.2806C17.1274 15.3553 17.063 15.4192 16.9898 15.4699L14.6921 17.7676C14.5594 17.9062 14.4001 18.0038 14.2742 18.0667C14.1408 18.1334 13.9753 18.1958 13.8044 18.2228L13.792 18.2248L13.792 18.2247L12.7247 18.3749L12.7238 18.375C12.3333 18.4305 11.9215 18.3284 11.6213 18.0282C11.321 17.7279 11.2189 17.3161 11.2744 16.9256L11.2745 16.9247L11.4247 15.8575L11.4265 15.845L11.4266 15.845C11.4541 15.6711 11.5179 15.5062 11.5843 15.375C11.6507 15.2438 11.7469 15.0923 11.8746 14.9646L14.6771 12.1621C14.9612 11.8779 15.3764 11.5532 15.9224 11.4971ZM16.3693 13.9691L16.4267 13.9117C16.6255 13.7128 16.6559 13.6065 16.6589 13.5755C16.6597 13.5674 16.6617 13.545 16.6399 13.4958C16.6153 13.4403 16.5577 13.3458 16.4267 13.2148C16.2983 13.0865 16.206 13.0307 16.1526 13.0072C16.1053 12.9864 16.0839 12.9884 16.0757 12.9892C16.0439 12.9925 15.9365 13.0239 15.7377 13.2227L15.6829 13.2776C15.8426 13.5679 16.0803 13.8073 16.3693 13.9691ZM14.5991 14.3614C14.7925 14.6245 15.0243 14.8572 15.2867 15.0517L13.6254 16.7129C13.6223 16.7148 13.6183 16.7172 13.6134 16.7199L13.6033 16.7251C13.5891 16.7322 13.5755 16.7378 13.5654 16.7412L13.5625 16.7422L12.7999 16.8495L12.907 16.0885L12.9071 16.0883C12.9101 16.0796 12.9154 16.0668 12.9227 16.0522C12.9301 16.0376 12.9372 16.0259 12.9424 16.0185L12.9432 16.0173L14.5991 14.3614Z" fill="black"/>
</svg>
