<svg width="19" height="19" viewBox="0 0 19 19" fill="none" xmlns="http://www.w3.org/2000/svg">
<path fill-rule="evenodd" clip-rule="evenodd" d="M2.5 6.5V3.5H5.5V6.5H2.5ZM1 3C1 2.44772 1.44772 2 2 2H6C6.55228 2 7 2.44772 7 3V7C7 7.55228 6.55228 8 6 8H2C1.44772 8 1 7.55228 1 7V3ZM2.5 15.5V12.5H5.5V15.5H2.5ZM1 12C1 11.4477 1.44772 11 2 11H6C6.55228 11 7 11.4477 7 12V16C7 16.5523 6.55228 17 6 17H2C1.44772 17 1 16.5523 1 16V12ZM9 3.25C9 2.83579 9.33579 2.5 9.75 2.5H17.25C17.6642 2.5 18 2.83579 18 3.25C18 3.66421 17.6642 4 17.25 4H9.75C9.33579 4 9 3.66421 9 3.25ZM9.75 11.5C9.33579 11.5 9 11.8358 9 12.25C9 12.6642 9.33579 13 9.75 13H17.25C17.6642 13 18 12.6642 18 12.25C18 11.8358 17.6642 11.5 17.25 11.5H9.75ZM9 6.25C9 5.83579 9.33579 5.5 9.75 5.5H14.25C14.6642 5.5 15 5.83579 15 6.25C15 6.66421 14.6642 7 14.25 7H9.75C9.33579 7 9 6.66421 9 6.25ZM9.75 14.5C9.33579 14.5 9 14.8358 9 15.25C9 15.6642 9.33579 16 9.75 16H14.25C14.6642 16 15 15.6642 15 15.25C15 14.8358 14.6642 14.5 14.25 14.5H9.75Z" fill="black"/>
</svg>
