<svg width="19" height="19" viewBox="0 0 19 19" fill="none" xmlns="http://www.w3.org/2000/svg">
<path fill-rule="evenodd" clip-rule="evenodd" d="M6.5 5.75C6.5 4.09421 7.84421 2.75 9.5 2.75C11.1558 2.75 12.5 4.09421 12.5 5.75C12.5 7.40579 11.1558 8.75 9.5 8.75C7.84421 8.75 6.5 7.40579 6.5 5.75ZM9.5 1.25C7.01579 1.25 5 3.26579 5 5.75C5 8.23421 7.01579 10.25 9.5 10.25C11.9842 10.25 14 8.23421 14 5.75C14 3.26579 11.9842 1.25 9.5 1.25ZM7 11.25C3.82436 11.25 1.25 13.8244 1.25 17C1.25 17.4142 1.58579 17.75 2 17.75C2.41421 17.75 2.75 17.4142 2.75 17C2.75 14.6528 4.65279 12.75 7 12.75H12C14.3472 12.75 16.25 14.6528 16.25 17C16.25 17.4142 16.5858 17.75 17 17.75C17.4142 17.75 17.75 17.4142 17.75 17C17.75 13.8244 15.1756 11.25 12 11.25H7Z" fill="black"/>
</svg>
