<svg width="21" height="20" viewBox="0 0 21 20" fill="none" xmlns="http://www.w3.org/2000/svg">
<path fill-rule="evenodd" clip-rule="evenodd" d="M5.79102 1.0625C5.79102 0.648286 5.45523 0.3125 5.04102 0.3125C4.6268 0.3125 4.29102 0.648286 4.29102 1.0625V2.66667C4.29102 3.08088 4.6268 3.41667 5.04102 3.41667C5.45523 3.41667 5.79102 3.08088 5.79102 2.66667V1.0625ZM2.58398 8.59745C2.58398 6.87699 3.97954 5.48828 5.69315 5.48828H12.449C14.1288 5.48828 15.5049 6.83231 15.5566 8.49998V9.25H2.58398V8.59745ZM1.08398 10V15.3074C1.08398 17.8483 3.15227 19.9166 5.69315 19.9166H12.449C14.8866 19.9166 16.8909 18.0209 17.0482 15.6128C19.238 15.2569 20.9158 13.3518 20.9158 11.0633C20.9158 8.58774 18.9673 6.57664 16.5314 6.45949C15.7594 4.99178 14.2188 3.98828 12.449 3.98828H5.69315C3.15343 3.98828 1.08398 6.04624 1.08398 8.59745V10ZM2.58398 10.75H15.5566V14.9224C15.5566 14.9386 15.5571 14.9546 15.5582 14.9704V15.3074C15.5582 17.0279 14.1626 18.4166 12.449 18.4166H5.69315C3.9807 18.4166 2.58398 17.0199 2.58398 15.3074V10.75ZM17.0582 8.59745V14.0803C18.4096 13.7428 19.4158 12.5168 19.4158 11.0633C19.4158 9.60231 18.4095 8.38057 17.0566 8.04526V8.47859C17.0576 8.51809 17.0582 8.55771 17.0582 8.59745ZM8.70898 0.3125C9.1232 0.3125 9.45898 0.648286 9.45898 1.0625V2.66667C9.45898 3.08088 9.1232 3.41667 8.70898 3.41667C8.29477 3.41667 7.95898 3.08088 7.95898 2.66667V1.0625C7.95898 0.648286 8.29477 0.3125 8.70898 0.3125ZM13.125 1.0625C13.125 0.648286 12.7892 0.3125 12.375 0.3125C11.9608 0.3125 11.625 0.648286 11.625 1.0625V2.66667C11.625 3.08088 11.9608 3.41667 12.375 3.41667C12.7892 3.41667 13.125 3.08088 13.125 2.66667V1.0625Z" fill="black"/>
</svg>
