<svg width="19" height="19" viewBox="0 0 19 19" fill="none" xmlns="http://www.w3.org/2000/svg">
<path d="M9.50065 17.2293H5.54232C3.16732 17.2293 1.58398 16.0418 1.58398 13.271V7.72933C1.58398 4.9585 3.16732 3.771 5.54232 3.771H13.459C15.834 3.771 17.4173 4.9585 17.4173 7.72933V10.1043" stroke="#ACACAC" stroke-width="1.5" stroke-miterlimit="10" stroke-linecap="round" stroke-linejoin="round"/>
<path d="M13.4577 8.125L10.9798 10.1042C10.1643 10.7533 8.82643 10.7533 8.01101 10.1042L5.54102 8.125" stroke="#ACACAC" stroke-width="1.5" stroke-miterlimit="10" stroke-linecap="round" stroke-linejoin="round"/>
<path d="M15.2074 12.6924L12.4049 15.4949C12.2941 15.6057 12.1912 15.8116 12.1674 15.962L12.017 17.0307C11.9616 17.4187 12.2308 17.6878 12.6187 17.6324L13.6874 17.482C13.8378 17.4583 14.0516 17.3553 14.1545 17.2445L16.957 14.442C17.4399 13.9591 17.6695 13.397 16.957 12.6845C16.2524 11.9799 15.6903 12.2095 15.2074 12.6924Z" stroke="#ACACAC" stroke-width="1.5" stroke-miterlimit="10" stroke-linecap="round" stroke-linejoin="round"/>
<path d="M14.8047 13.0962C15.0422 13.9512 15.7072 14.6162 16.5622 14.8537" stroke="#ACACAC" stroke-width="1.5" stroke-miterlimit="10" stroke-linecap="round" stroke-linejoin="round"/>
</svg>
