<svg width="19" height="19" viewBox="0 0 19 19" fill="none" xmlns="http://www.w3.org/2000/svg">
<path d="M12.4925 6.95V4.4C12.4925 2.52223 10.9289 1 9 1C7.07114 1 5.5075 2.52223 5.5075 4.4V6.95M1.65876 8.09917L1.13488 13.5392C0.985929 15.0859 0.911453 15.8593 1.17509 16.4566C1.40668 16.9814 1.81253 17.4153 2.32759 17.6887C2.9139 18 3.71179 18 5.30759 18H12.6924C14.2882 18 15.0861 18 15.6724 17.6887C16.1875 17.4153 16.5933 16.9814 16.8249 16.4566C17.0885 15.8593 17.0141 15.0859 16.8651 13.5392L16.3412 8.09917C16.2155 6.79305 16.1526 6.13998 15.8508 5.64624C15.5851 5.2114 15.1925 4.86334 14.723 4.64637C14.1899 4.4 13.5161 4.4 12.1685 4.4L5.83147 4.4C4.48392 4.4 3.81015 4.4 3.27702 4.64637C2.8075 4.86334 2.41489 5.2114 2.14916 5.64624C1.84743 6.13998 1.78454 6.79304 1.65876 8.09917Z" stroke="black" stroke-width="1.5" stroke-linecap="round" stroke-linejoin="round"/>
</svg>
