<svg width="16" height="16" viewBox="0 0 16 16" xmlns="http://www.w3.org/2000/svg" id="nostock">
    <path d="M10.7071 5.29289C11.0976 5.68342 11.0976 6.31658 10.7071 6.70711L9.41421 8L10.7071 9.29289C11.0976 9.68342 11.0976 10.3166 10.7071 10.7071C10.3166 11.0976 9.68342 11.0976 9.29289 10.7071L8 9.41421L6.70711 10.7071C6.31658 11.0976 5.68342 11.0976 5.29289 10.7071C4.90237 10.3166 4.90237 9.68342 5.29289 9.29289L6.58579 8L5.29289 6.70711C4.90237 6.31658 4.90237 5.68342 5.29289 5.29289C5.68342 4.90237 6.31658 4.90237 6.70711 5.29289L8 6.58579L9.29289 5.29289C9.68342 4.90237 10.3166 4.90237 10.7071 5.29289Z" />
    <path fill-rule="evenodd" clip-rule="evenodd" d="M0 7C0 3.13401 3.13401 0 7 0H9C12.866 0 16 3.13401 16 7V9C16 12.866 12.866 16 9 16H7C3.13401 16 0 12.866 0 9V7ZM7 2C4.23858 2 2 4.23858 2 7V9C2 11.7614 4.23858 14 7 14H9C11.7614 14 14 11.7614 14 9V7C14 4.23858 11.7614 2 9 2H7Z" />
</svg>