<svg width="14" height="15" viewBox="0 0 14 15" fill="none" xmlns="http://www.w3.org/2000/svg">
<path d="M12.615 11.1815C12.615 11.3909 12.5685 11.6061 12.4696 11.8155C12.3708 12.0249 12.2428 12.2226 12.0741 12.4087C11.7891 12.7228 11.4751 12.9497 11.1203 13.0951C10.7713 13.2405 10.3932 13.3161 9.9861 13.3161C9.39284 13.3161 8.75887 13.1765 8.09 12.8915C7.42113 12.6065 6.75227 12.2226 6.08921 11.7399C5.42035 11.2513 4.78637 10.7104 4.18149 10.1113C3.58241 9.50644 3.0415 8.87247 2.55875 8.20942C2.08182 7.54637 1.69795 6.88331 1.41877 6.22608C1.13959 5.56303 1 4.92906 1 4.32417C1 3.92866 1.06979 3.55061 1.20938 3.20163C1.34897 2.84684 1.56999 2.52113 1.87825 2.23032C2.25049 1.8639 2.65763 1.68359 3.08803 1.68359C3.25089 1.68359 3.41374 1.71849 3.55915 1.78829C3.71037 1.85808 3.84414 1.96277 3.94884 2.114L5.2982 4.01591C5.4029 4.16131 5.47851 4.29509 5.53085 4.42304C5.5832 4.54519 5.61228 4.66733 5.61228 4.77783C5.61228 4.91742 5.57157 5.05701 5.49014 5.19079C5.41453 5.32456 5.30402 5.46415 5.16443 5.60374L4.7224 6.06322C4.65842 6.1272 4.62934 6.20281 4.62934 6.29587C4.62934 6.3424 4.63515 6.38312 4.64679 6.42965C4.66423 6.47618 4.68168 6.51107 4.69332 6.54597C4.79801 6.73791 4.97831 6.98801 5.23423 7.29045C5.49596 7.5929 5.77514 7.90116 6.07758 8.20942C6.39166 8.51768 6.6941 8.80267 7.00236 9.06441C7.30481 9.32032 7.55491 9.49481 7.75266 9.5995C7.78174 9.61113 7.81664 9.62858 7.85735 9.64603C7.90388 9.66348 7.95041 9.66929 8.00276 9.66929C8.10163 9.66929 8.17724 9.6344 8.24122 9.57042L8.68326 9.1342C8.82866 8.98879 8.96825 8.87829 9.10203 8.80849C9.2358 8.72706 9.36957 8.68635 9.51498 8.68635C9.62549 8.68635 9.74181 8.70961 9.86977 8.76196C9.99773 8.81431 10.1315 8.88992 10.2769 8.98879L12.2021 10.3556C12.3533 10.4603 12.458 10.5824 12.522 10.7279C12.5801 10.8733 12.615 11.0187 12.615 11.1815Z" stroke="black" stroke-width="1.4" stroke-miterlimit="10"/>
<path d="M10.5943 5.75541C10.5943 5.40644 10.3209 4.87134 9.91378 4.43512C9.54154 4.0338 9.04716 3.71973 8.55859 3.71973" stroke="black" stroke-width="1.4" stroke-linecap="round" stroke-linejoin="round"/>
<path d="M12.63 5.75496C12.63 3.50408 10.8095 1.68359 8.55859 1.68359" stroke="black" stroke-width="1.4" stroke-linecap="round" stroke-linejoin="round"/>
</svg>
