<svg width="20" height="19" viewBox="0 0 20 19" fill="none" xmlns="http://www.w3.org/2000/svg">
<path d="M16.3604 12.8538C16.3604 13.1015 16.3053 13.3561 16.1884 13.6038C16.0714 13.8515 15.92 14.0855 15.7205 14.3056C15.3833 14.6772 15.0117 14.9456 14.592 15.1176C14.1791 15.2896 13.7319 15.3791 13.2502 15.3791C12.5483 15.3791 11.7983 15.2139 11.007 14.8768C10.2157 14.5396 9.42439 14.0855 8.63997 13.5143C7.84866 12.9363 7.09863 12.2964 6.38302 11.5877C5.67428 10.8721 5.03435 10.122 4.46323 9.33761C3.899 8.55318 3.44485 7.76875 3.11457 6.9912C2.78428 6.20678 2.61914 5.45675 2.61914 4.74114C2.61914 4.27323 2.70171 3.82597 2.86685 3.41311C3.032 2.99338 3.29347 2.60804 3.65816 2.264C4.09854 1.8305 4.58021 1.61719 5.0894 1.61719C5.28207 1.61719 5.47473 1.65847 5.64676 1.74104C5.82566 1.82362 5.98392 1.94747 6.10778 2.12638L7.70416 4.37645C7.82801 4.54847 7.91747 4.70673 7.97939 4.85811C8.04132 5.00261 8.07573 5.14711 8.07573 5.27785C8.07573 5.44299 8.02756 5.60813 7.93123 5.7664C7.84178 5.92466 7.71104 6.0898 7.5459 6.25494L7.02294 6.79854C6.94725 6.87423 6.91285 6.96368 6.91285 7.07378C6.91285 7.12882 6.91973 7.17699 6.93349 7.23204C6.95413 7.28708 6.97478 7.32837 6.98854 7.36966C7.1124 7.59673 7.32571 7.89261 7.62847 8.25042C7.93811 8.60823 8.26839 8.97292 8.6262 9.33761C8.99777 9.7023 9.35558 10.0395 9.72027 10.3491C10.0781 10.6519 10.374 10.8583 10.6079 10.9822C10.6423 10.9959 10.6836 11.0166 10.7318 11.0372C10.7868 11.0578 10.8419 11.0647 10.9038 11.0647C11.0208 11.0647 11.1102 11.0234 11.1859 10.9477L11.7089 10.4317C11.8809 10.2597 12.046 10.1289 12.2043 10.0463C12.3626 9.95001 12.5208 9.90184 12.6928 9.90184C12.8236 9.90184 12.9612 9.92937 13.1126 9.99129C13.264 10.0532 13.4222 10.1427 13.5942 10.2597L15.8718 11.8767C16.0507 12.0005 16.1746 12.145 16.2503 12.3171C16.3191 12.4891 16.3604 12.6611 16.3604 12.8538Z" stroke="#757575" stroke-width="1.5" stroke-miterlimit="10"/>
<path d="M13.9728 6.43567C13.9728 6.02282 13.6494 5.38977 13.1677 4.8737C12.7273 4.39891 12.1425 4.02734 11.5645 4.02734" stroke="#757575" stroke-width="1.5" stroke-linecap="round" stroke-linejoin="round"/>
<path d="M16.3811 6.43385C16.3811 3.77092 14.2274 1.61719 11.5645 1.61719" stroke="#757575" stroke-width="1.5" stroke-linecap="round" stroke-linejoin="round"/>
</svg>
