<svg height="16" width="16" viewBox="0 0 16 16" xmlns="http://www.w3.org/2000/svg" id="remove-16-16">
    <path fill-rule="evenodd" clip-rule="evenodd" d="M7 0C5.34315 0 4 1.34315 4 3V4H1C0.447715 4 0 4.44772 0 5C0 5.55228 0.447715 6 1 6H1.59494L2.32478 13.2984C2.47814 14.832 3.76864 15.9999 5.3099 15.9999H10.6899C12.2312 15.9999 13.5217 14.832 13.6751 13.2984L14.4049 6H15C15.5523 6 16 5.55228 16 5C16 4.44772 15.5523 4 15 4H12V3C12 1.34315 10.6569 0 9 0H7ZM10 4V3C10 2.44772 9.55228 2 9 2H7C6.44772 2 6 2.44772 6 3V4H10ZM3.60492 6H12.3949L11.685 13.0994C11.6339 13.6106 11.2037 13.9999 10.6899 13.9999H5.3099C4.79614 13.9999 4.36598 13.6106 4.31486 13.0994L3.60492 6Z" />
</svg>