<svg width="15" height="15" viewBox="0 0 15 15" fill="none" xmlns="http://www.w3.org/2000/svg">
<path fill-rule="evenodd" clip-rule="evenodd" d="M4.14844 0.872803C3.01083 0.872803 2.00117 1.24136 1.27135 1.94571C0.539148 2.65237 0.148438 3.63982 0.148438 4.75942V8.52336C0.148438 9.64296 0.539148 10.6304 1.27135 11.3371C2.00117 12.0414 3.01083 12.41 4.14844 12.41H6.52842L9.23513 14.1476L9.23578 14.148L9.64095 13.5169L9.23513 14.1476C10.1198 14.7168 11.3984 14.1425 11.3984 12.9962V12.3539C12.2282 12.2262 12.9607 11.8822 13.5255 11.3371C14.2577 10.6304 14.6484 9.64296 14.6484 8.52336V4.75942C14.6484 3.63982 14.2577 2.65237 13.5255 1.94571C12.7957 1.24136 11.786 0.872803 10.6484 0.872803H4.14844ZM6.52842 12.41L6.34327 12.2911L6.74844 11.66V12.41H6.52842ZM1.64844 4.75942C1.64844 3.99705 1.90773 3.41619 2.31302 3.02503C2.72071 2.63157 3.33605 2.3728 4.14844 2.3728H10.6484C11.4608 2.3728 12.0762 2.63157 12.4839 3.02503C12.8891 3.41619 13.1484 3.99705 13.1484 4.75942V8.52336C13.1484 9.28572 12.8891 9.86659 12.4839 10.2577C12.0762 10.6512 11.4608 10.91 10.6484 10.91C10.2342 10.91 9.89844 11.2458 9.89844 11.66V12.7909L7.15361 11.0288C7.03272 10.9512 6.89209 10.91 6.74844 10.91H4.14844C3.33605 10.91 2.72071 10.6512 2.31302 10.2577C1.90773 9.86659 1.64844 9.28572 1.64844 8.52336V4.75942ZM5.89844 5.8728C5.48422 5.8728 5.14844 6.20859 5.14844 6.6228C5.14844 7.03702 5.48422 7.3728 5.89844 7.3728H8.89844C9.31265 7.3728 9.64844 7.03702 9.64844 6.6228C9.64844 6.20859 9.31265 5.8728 8.89844 5.8728H5.89844Z" fill="black"/>
</svg>
