<svg width="21" height="21" viewBox="0 0 21 21" fill="none" xmlns="http://www.w3.org/2000/svg">
<path fill-rule="evenodd" clip-rule="evenodd" d="M2.58398 10.1029C2.58398 6.50151 5.50346 3.58203 9.10482 3.58203C12.7062 3.58203 15.6257 6.50151 15.6257 10.1029C15.6257 13.7042 12.7062 16.6237 9.10482 16.6237C5.50346 16.6237 2.58398 13.7042 2.58398 10.1029ZM9.10482 1.58203C4.39889 1.58203 0.583984 5.39694 0.583984 10.1029C0.583984 14.8088 4.39889 18.6237 9.10482 18.6237C11.0974 18.6237 12.9303 17.9397 14.3815 16.7937L16.1833 18.5956C16.5738 18.9861 17.207 18.9861 17.5975 18.5956C17.988 18.205 17.988 17.5719 17.5975 17.1813L15.7957 15.3795C16.9417 13.9284 17.6257 12.0955 17.6257 10.1029C17.6257 5.39694 13.8107 1.58203 9.10482 1.58203Z" fill="black"/>
</svg>
