<svg width="16" height="16" viewBox="0 0 16 16" xmlns="http://www.w3.org/2000/svg" id="share-16-16">
    <path d="M8.70711 0.292894C8.31658 -0.0976312 7.68342 -0.0976312 7.29289 0.292894L4.29289 3.29289C3.90237 3.68342 3.90237 4.31658 4.29289 4.70711C4.68342 5.09763 5.31658 5.09763 5.70711 4.70711L7 3.41421V10C7 10.5523 7.44772 11 8 11C8.55228 11 9 10.5523 9 10V3.41421L10.2929 4.70711C10.6834 5.09763 11.3166 5.09763 11.7071 4.70711C12.0976 4.31658 12.0976 3.68342 11.7071 3.29289L8.70711 0.292894Z" />
    <path d="M2 10C2 9.44772 2.44771 9 3 9C3.55228 9 4 8.55228 4 8C4 7.44772 3.55228 7 3 7C1.34315 7 0 8.34315 0 10V13C0 14.6569 1.34315 16 3 16H13C14.6569 16 16 14.6569 16 13V10C16 8.34315 14.6569 7 13 7C12.4477 7 12 7.44772 12 8C12 8.55228 12.4477 9 13 9C13.5523 9 14 9.44772 14 10V13C14 13.5523 13.5523 14 13 14H3C2.44772 14 2 13.5523 2 13V10Z" />
</svg>