<svg width="18" height="12" viewBox="0 0 18 12" fill="none" xmlns="http://www.w3.org/2000/svg">
<g id="Group 1873">
<path id="Union" fill-rule="evenodd" clip-rule="evenodd" d="M2.62489 4.93937L3.33199 4.23227C6.65145 0.912812 12.0334 0.912812 15.3528 4.23227L16.0599 4.93937C16.6457 5.52516 16.6457 6.47491 16.0599 7.0607L15.3528 7.7678C12.0334 11.0873 6.65145 11.0873 3.33199 7.7678L2.62489 7.0607C2.0391 6.47491 2.0391 5.52516 2.62489 4.93937ZM1.56423 8.12136C0.392654 6.94978 0.392654 5.05029 1.56423 3.87871L2.27133 3.17161C6.17658 -0.733635 12.5082 -0.733635 16.4135 3.17161L17.1206 3.87871C18.2921 5.05029 18.2921 6.94978 17.1206 8.12136L16.4135 8.82846C12.5082 12.7337 6.17658 12.7337 2.27133 8.82846L1.56423 8.12136ZM10.9429 6.10062C10.9429 6.92905 10.2713 7.60062 9.44291 7.60062C8.61448 7.60062 7.94291 6.92905 7.94291 6.10062C7.94291 5.27219 8.61448 4.60062 9.44291 4.60062C10.2713 4.60062 10.9429 5.27219 10.9429 6.10062ZM12.4429 6.10062C12.4429 7.75747 11.0998 9.10062 9.44291 9.10062C7.78605 9.10062 6.44291 7.75747 6.44291 6.10062C6.44291 4.44377 7.78605 3.10062 9.44291 3.10062C11.0998 3.10062 12.4429 4.44377 12.4429 6.10062Z" fill="#D9D9D9"/>
</g>
</svg>
