<svg width="39" height="38" viewBox="0 0 39 38" fill="none" xmlns="http://www.w3.org/2000/svg">
<path d="M34.0588 16.3163H5M25.9869 3.35156V9.83392M13.0719 3.35156V9.83392M14.6863 26.0398L17.915 29.281L25.1797 21.9883M12.749 35.7633H26.3098C29.0222 35.7633 30.3784 35.7633 31.4144 35.2334C32.3257 34.7673 33.0666 34.0236 33.531 33.1088C34.0588 32.0688 34.0588 30.7073 34.0588 27.9845V14.3716C34.0588 11.6487 34.0588 10.2873 33.531 9.24731C33.0666 8.33251 32.3257 7.58875 31.4144 7.12264C30.3784 6.59274 29.0222 6.59274 26.3098 6.59274H12.749C10.0366 6.59274 8.6804 6.59274 7.6444 7.12264C6.7331 7.58875 5.9922 8.33251 5.52787 9.24731C5 10.2873 5 11.6487 5 14.3716V27.9845C5 30.7073 5 32.0688 5.52787 33.1088C5.9922 34.0236 6.7331 34.7673 7.6444 35.2334C8.6804 35.7633 10.0366 35.7633 12.749 35.7633Z" stroke="white" stroke-width="1.5" stroke-linecap="round" stroke-linejoin="round"/>
</svg>
