<svg width="39" height="38" viewBox="0 0 39 38" fill="none" xmlns="http://www.w3.org/2000/svg">
<path d="M21.8152 12.8831C20.8555 13.5672 19.6812 13.9697 18.4128 13.9697C15.1722 13.9697 12.5452 11.3426 12.5452 8.10202C12.5452 4.86141 15.1722 2.23438 18.4128 2.23438C20.5134 2.23438 22.3562 3.33819 23.3928 4.99744M9.19221 32.557H13.5683C14.1389 32.557 14.7059 32.6248 15.259 32.7606L19.8829 33.8843C20.8862 34.1287 21.9313 34.1524 22.9451 33.9555L28.0575 32.9609C29.408 32.6978 30.6503 32.0511 31.624 31.104L35.241 27.5855C36.274 26.5824 36.274 24.9546 35.241 23.9498C34.311 23.0451 32.8384 22.9433 31.7862 23.7105L27.5707 26.786C26.967 27.2273 26.2324 27.465 25.4769 27.465H21.4061L23.9972 27.4649C25.4577 27.4649 26.6407 26.3141 26.6407 24.8934V24.3791C26.6407 23.1995 25.8154 22.1709 24.6393 21.8857L20.6401 20.9132C19.9893 20.7553 19.3228 20.6756 18.6528 20.6756C17.0353 20.6756 14.1074 22.0147 14.1074 22.0147L9.19221 24.0702M32.6628 9.77849C32.6628 13.0191 30.0358 15.6461 26.7952 15.6461C23.5545 15.6461 20.9275 13.0191 20.9275 9.77849C20.9275 6.53788 23.5545 3.91085 26.7952 3.91085C30.0358 3.91085 32.6628 6.53788 32.6628 9.77849ZM2.48633 23.3579L2.48633 33.0814C2.48633 34.0203 2.48633 34.4898 2.66905 34.8484C2.82978 35.1639 3.08625 35.4203 3.4017 35.5811C3.76031 35.7638 4.22977 35.7638 5.16868 35.7638H6.50986C7.44877 35.7638 7.91822 35.7638 8.27684 35.5811C8.59229 35.4203 8.84876 35.1639 9.00949 34.8484C9.19221 34.4898 9.19221 34.0203 9.19221 33.0814V23.3579C9.19221 22.419 9.19221 21.9495 9.00949 21.5909C8.84876 21.2755 8.59229 21.019 8.27684 20.8583C7.91823 20.6756 7.44877 20.6756 6.50986 20.6756L5.16868 20.6756C4.22977 20.6756 3.76031 20.6756 3.4017 20.8583C3.08625 21.019 2.82978 21.2755 2.66905 21.5909C2.48633 21.9495 2.48633 22.419 2.48633 23.3579Z" stroke="white" stroke-width="1.5" stroke-linecap="round" stroke-linejoin="round"/>
</svg>
