<svg width="13" height="13" viewBox="0 0 13 13" xmlns="http://www.w3.org/2000/svg" id="star-13-13">
    <path d="M6.05163 0.288589C6.23504 -0.0830334 6.76496 -0.0830334 6.94837 0.288589L8.50624 3.44518C8.57907 3.59275 8.71986 3.69504 8.88271 3.7187L12.3662 4.22488C12.7763 4.28448 12.9401 4.78846 12.6433 5.07773L10.1226 7.53479C10.0048 7.64966 9.95102 7.81516 9.97884 7.97736L10.5739 11.4468C10.6439 11.8552 10.2152 12.1667 9.84842 11.9739L6.73267 10.3358C6.58701 10.2593 6.41299 10.2593 6.26733 10.3358L3.15159 11.9739C2.78478 12.1667 2.35606 11.8552 2.42612 11.4468L3.02117 7.97736C3.04899 7.81516 2.99521 7.64966 2.87737 7.53479L0.356683 5.07773C0.0599248 4.78846 0.22368 4.28448 0.63379 4.22488L4.1173 3.7187C4.28015 3.69504 4.42093 3.59275 4.49376 3.44518L6.05163 0.288589Z"/>
</svg>