<svg width="31" height="30" viewBox="0 0 31 30" fill="none" xmlns="http://www.w3.org/2000/svg">
<rect x="0.8125" y="0.000610352" width="30" height="30" rx="15" fill="#484848"/>
<path d="M9.50284 14.7462L12.3426 15.806L13.4418 19.341C13.5121 19.5674 13.789 19.651 13.9727 19.5008L15.5557 18.2104C15.7216 18.0752 15.9579 18.0684 16.1313 18.1943L18.9864 20.2671C19.183 20.41 19.4615 20.3023 19.5108 20.0648L21.6023 10.0043C21.6561 9.74488 21.4011 9.52842 21.1541 9.62398L9.49951 14.1199C9.2119 14.2309 9.21441 14.6381 9.50284 14.7462ZM13.2647 15.2418L18.8146 11.8236C18.9144 11.7623 19.017 11.8972 18.9314 11.9767L14.351 16.2343C14.19 16.3842 14.0862 16.5847 14.0567 16.8024L13.9007 17.9587C13.88 18.1131 13.6632 18.1284 13.6206 17.979L13.0205 15.8705C12.9518 15.63 13.0519 15.3731 13.2647 15.2418Z" fill="white"/>
</svg>
