<svg width="32" height="31" viewBox="0 0 32 31" fill="none" xmlns="http://www.w3.org/2000/svg">
<rect x="0.566406" y="0.0756836" width="30.8109" height="30.8109" rx="15.4055" fill="black"/>
<g clip-path="url(#clip0_1556_2282)">
<path d="M9.58683 14.8212L12.4266 15.8811L13.5258 19.416C13.5961 19.6424 13.873 19.7261 14.0567 19.5759L15.6397 18.2854C15.8056 18.1502 16.0419 18.1435 16.2153 18.2694L19.0704 20.3422C19.267 20.4851 19.5455 20.3774 19.5948 20.1398L21.6862 10.0794C21.7401 9.81995 21.4851 9.60349 21.238 9.69905L9.5835 14.195C9.29589 14.3059 9.29839 14.7131 9.58683 14.8212ZM13.3486 15.3169L18.8986 11.8987C18.9984 11.8374 19.101 11.9723 19.0153 12.0517L14.435 16.3094C14.274 16.4593 14.1701 16.6598 14.1407 16.8775L13.9847 18.0338C13.964 18.1882 13.7472 18.2035 13.7046 18.0541L13.1045 15.9456C13.0358 15.7051 13.1359 15.4482 13.3486 15.3169Z" fill="white"/>
</g>
<defs>
<clipPath id="clip0_1556_2282">
<rect width="12.3244" height="12.3244" fill="white" transform="translate(9.37109 8.87891)"/>
</clipPath>
</defs>
</svg>
