<svg width="32" height="31" viewBox="0 0 32 31" fill="none" xmlns="http://www.w3.org/2000/svg">
<path fill-rule="evenodd" clip-rule="evenodd" d="M15.9719 0.0756836C7.46367 0.0756836 0.566406 6.97295 0.566406 15.4812C0.566406 23.9894 7.46367 30.8866 15.9719 30.8866C24.4801 30.8866 31.3773 23.9894 31.3773 15.4812C31.3773 6.97295 24.4801 0.0756836 15.9719 0.0756836ZM12.4266 15.8811L9.58683 14.8212C9.29839 14.7131 9.29589 14.3059 9.5835 14.195L21.238 9.69899C21.4851 9.60343 21.7401 9.81989 21.6862 10.0794L19.5947 20.1398C19.5455 20.3773 19.267 20.485 19.0704 20.3422L16.2153 18.2693C16.0419 18.1434 15.8056 18.1502 15.6397 18.2854L14.0567 19.5758C13.873 19.7261 13.5961 19.6424 13.5258 19.416L12.4266 15.8811ZM18.8986 11.8986L13.3486 15.3169C13.1359 15.4481 13.0358 15.705 13.1045 15.9455L13.7046 18.054C13.7472 18.2034 13.964 18.1881 13.9847 18.0337L14.1407 16.8774C14.1701 16.6598 14.274 16.4592 14.435 16.3093L19.0153 12.0517C19.101 11.9722 18.9984 11.8373 18.8986 11.8986Z" fill="black"/>
</svg>
