<svg width="31" height="30" viewBox="0 0 31 30" fill="none" xmlns="http://www.w3.org/2000/svg">
<path d="M5.98529 2.64844L1.75 6.91314M29.9853 6.91314L25.75 2.64844M7.39706 25.3935L4.57353 28.2367M24.3382 25.3935L27.1618 28.2367M15.8676 10.5896V16.8641H20.1029M15.8676 28.2367C18.863 28.2367 21.7357 27.0385 23.8538 24.9057C25.9719 22.773 27.1618 19.8803 27.1618 16.8641C27.1618 13.8479 25.9719 10.9553 23.8538 8.82252C21.7357 6.68975 18.863 5.49158 15.8676 5.49158C12.8723 5.49158 9.99956 6.68975 7.8815 8.82252C5.76344 10.9553 4.57353 13.8479 4.57353 16.8641C4.57353 19.8803 5.76344 22.773 7.8815 24.9057C9.99956 27.0385 12.8723 28.2367 15.8676 28.2367Z" stroke="white" stroke-width="2" stroke-linecap="round" stroke-linejoin="round"/>
</svg>
