<svg width="31" height="30" viewBox="0 0 31 30"  xmlns="http://www.w3.org/2000/svg">
<rect x="0.8125" y="0.000610352" width="30" height="30" rx="15" />
<path d="M20.8811 10.2086C20.7799 10.1563 20.6813 10.0989 20.5858 10.0367C20.3081 9.85311 20.0535 9.63678 19.8275 9.39237C19.2619 8.74521 19.0507 8.08868 18.9728 7.62902H18.976C18.911 7.24747 18.9379 7.00061 18.9419 7.00061H16.3659V16.962C16.3659 17.0957 16.3659 17.2279 16.3603 17.3585C16.3603 17.3748 16.3587 17.3898 16.3578 17.4073C16.3578 17.4145 16.3578 17.422 16.3562 17.4295C16.3562 17.4313 16.3562 17.4332 16.3562 17.4351C16.3291 17.7925 16.2145 18.1378 16.0226 18.4405C15.8307 18.7432 15.5674 18.9942 15.2557 19.1713C14.9309 19.356 14.5636 19.453 14.1899 19.4525C12.9897 19.4525 12.017 18.4738 12.017 17.2651C12.017 16.0564 12.9897 15.0777 14.1899 15.0777C14.4171 15.0775 14.6429 15.1132 14.8589 15.1836L14.862 12.5606C14.2062 12.4759 13.54 12.5281 12.9054 12.7137C12.2708 12.8994 11.6816 13.2145 11.1749 13.6393C10.7309 14.0251 10.3576 14.4855 10.0719 14.9996C9.96311 15.1871 9.55284 15.9405 9.50316 17.1632C9.47191 17.8573 9.68033 18.5763 9.77969 18.8735V18.8797C9.84219 19.0547 10.0844 19.6519 10.479 20.1553C10.7972 20.5591 11.1732 20.9138 11.5948 21.208V21.2018L11.6011 21.208C12.8481 22.0555 14.2308 21.9999 14.2308 21.9999C14.4702 21.9902 15.272 21.9999 16.1825 21.5683C17.1924 21.0899 17.7673 20.3771 17.7673 20.3771C18.1346 19.9512 18.4267 19.4659 18.631 18.9419C18.8641 18.3291 18.9419 17.5941 18.9419 17.3004V12.0157C18.9732 12.0344 19.3894 12.3097 19.3894 12.3097C19.3894 12.3097 19.989 12.6941 20.9245 12.9444C21.5957 13.1225 22.5 13.16 22.5 13.16V10.6026C22.1832 10.637 21.5398 10.537 20.8811 10.2086Z" fill="#F8F8F8"/>
</svg>
