<svg width="24" height="24" viewBox="0 0 24 24" fill="none" xmlns="http://www.w3.org/2000/svg">
<g clip-path="url(#clip0_1236_10987)">
<path d="M22.9887 17.998L17.8199 12.8266L16.8228 13.8236L15.4978 12.4985L16.8932 11.1029C18.8136 11.6169 20.8971 11.0894 22.3441 9.64184C23.917 8.06901 24.3868 5.77028 23.67 3.75641L23.2958 2.70509L19.2124 6.78849L17.8822 6.12357L17.2173 4.79344L21.3007 0.709987L20.2494 0.335815C18.2394 -0.37952 15.9398 0.0858334 14.3641 1.66162C12.9182 3.1071 12.3882 5.18962 12.903 7.11282L11.5076 8.50841L8.03778 5.03858L7.53886 3.54226L4.92759 0.931049L0.937438 4.92116L3.54865 7.53242L5.04492 8.0313L8.5148 11.5011L7.11846 12.8972C2.76697 11.6844 -1.2073 16.0584 0.341546 20.2437L0.715765 21.295L3.89428 18.1164L5.55678 18.449L5.88943 20.1115L2.71087 23.2901L3.76214 23.6643C5.76773 24.3781 8.06905 23.9175 9.64752 22.3385C11.0901 20.8959 11.6244 18.8145 11.1086 16.8874L12.505 15.4913L13.83 16.8163L12.8321 17.8141L17.9732 22.9581C19.3482 24.3331 21.5857 24.3332 22.9608 22.958C24.3354 21.5829 24.3479 19.3578 22.9887 17.998ZM14.5167 7.49405L14.3672 7.07403C13.8216 5.54132 14.2118 3.80847 15.3615 2.65919C16.2203 1.80039 17.4046 1.36504 18.5879 1.42772L15.5007 4.51477L16.8306 7.17508L19.4909 8.50493L22.578 5.41783C22.6403 6.60106 22.2053 7.78546 21.3464 8.64436C20.1973 9.79382 18.4643 10.1841 16.9317 9.63855L16.5116 9.48901L14.5001 11.5009L12.505 9.5058L14.5167 7.49405ZM9.49483 16.506L9.64437 16.9261C10.1899 18.4585 9.7995 20.1915 8.64995 21.3411C7.79128 22.2 6.6066 22.6353 5.42361 22.5725L7.42087 20.5752L6.75566 17.2503L3.43072 16.5851L1.4335 18.5823C1.37105 17.399 1.80607 16.2145 2.66497 15.3559C3.81453 14.2064 5.54752 13.8161 7.07976 14.3615L7.49978 14.511L9.51242 12.4988L11.5075 14.4939L9.49483 16.506ZM5.80709 6.79832L4.31078 6.29944L2.93249 4.92116L4.92759 2.92601L6.30588 4.30434L6.80481 5.80065L15.8253 14.8211L14.8275 15.8188L5.80709 6.79832ZM21.9632 21.9606C21.1382 22.7857 19.7957 22.7856 18.9709 21.9608L14.827 17.8144L15.825 16.8164L19.9681 20.9627L20.966 19.9655L16.8225 15.819L17.8196 14.8219L21.9909 18.9953C22.8005 19.8052 22.788 21.1355 21.9632 21.9606Z" fill="#8A6048"/>
</g>
<defs>
<clipPath id="clip0_1236_10987">
<rect width="24" height="24" fill="white"/>
</clipPath>
</defs>
</svg>
