<svg height="18" width="18" viewBox="0 0 18 18" xmlns="http://www.w3.org/2000/svg" id="log-out-18-18">
    <path fill-rule="evenodd" clip-rule="evenodd" d="M9 12C6.79086 12 5 10.2091 5 8C5 5.79086 6.79086 4 9 4C11.2091 4 13 5.79086 13 8C13 10.2091 11.2091 12 9 12ZM7 8C7 6.89543 7.89543 6 9 6C10.1046 6 11 6.89543 11 8C11 9.10457 10.1046 10 9 10C7.89543 10 7 9.10457 7 8Z"/>
    <path fill-rule="evenodd" clip-rule="evenodd" d="M0 7C0 3.13401 3.13401 0 7 0H11C14.866 0 18 3.13401 18 7V11C18 14.866 14.866 18 11 18H7C3.13401 18 0 14.866 0 11V7ZM7 2C4.23858 2 2 4.23858 2 7V11C2 12.3775 2.55706 13.6249 3.45821 14.5293C4.33412 12.9873 5.98323 12 7.80545 12H9H10.0394C11.9 12 13.5802 13.0294 14.441 14.6276C15.4012 13.7165 16 12.4282 16 11V7C16 4.23858 13.7614 2 11 2H7ZM7 16C6.33948 16 5.70887 15.8719 5.13166 15.6392C5.6374 14.6446 6.66491 14 7.80545 14H10.0394C11.199 14 12.2419 14.6664 12.7382 15.6896C12.1968 15.8903 11.6112 16 11 16H7Z"/>
</svg>