<svg width="32" height="31" viewBox="0 0 32 31" fill="none" xmlns="http://www.w3.org/2000/svg">
<path fill-rule="evenodd" clip-rule="evenodd" d="M15.7824 0.0756836C7.27422 0.0756836 0.376953 6.97295 0.376953 15.4812C0.376953 23.9894 7.27422 30.8866 15.7824 30.8866C24.2906 30.8866 31.1879 23.9894 31.1879 15.4812C31.1879 6.97295 24.2906 0.0756836 15.7824 0.0756836ZM14.5671 9.07568H17.2337C19.8004 9.07568 21.9004 11.2798 21.9004 13.9736V16.0728C21.9004 18.7666 19.8004 20.9707 17.2337 20.9707H14.8837L12.9504 22.9999C12.8171 23.1573 12.5671 23.0524 12.5671 22.8424V20.4984C10.9504 19.6938 9.90039 17.962 9.90039 16.0728V13.9736C9.90039 11.2798 12.0004 9.07568 14.5671 9.07568ZM18.3004 18.9591L18.9837 18.2594C19.2337 17.962 19.2337 17.5247 18.9671 17.2798L18.0004 16.2302C17.6671 15.8629 17.0671 16.0028 16.9171 16.4751C16.8004 16.8075 16.4504 16.9824 16.1337 16.9124C15.4337 16.72 14.5004 15.7404 14.3337 14.9707C14.2337 14.6384 14.4504 14.271 14.7671 14.1661C15.2171 14.0261 15.3671 13.3964 15.0171 13.029L14.0504 11.9795C13.7671 11.7171 13.3504 11.6996 13.1004 11.962L12.4337 12.6617C11.7504 13.3964 12.4671 15.3556 14.1004 17.1048C15.7337 18.8541 17.5837 19.6938 18.3004 18.9591ZM16.3004 12.4168C16.3671 12.3993 16.4337 12.3993 16.5004 12.3993C17.4837 12.3993 18.2837 13.2389 18.2671 14.2535C18.2671 14.2885 18.2629 14.3235 18.2587 14.3585C18.2546 14.3935 18.2504 14.4285 18.2504 14.4634C18.2337 14.5859 18.3337 14.7083 18.4504 14.7258C18.5671 14.7433 18.6837 14.6384 18.7004 14.5159C18.7171 14.4285 18.7171 14.341 18.7171 14.2535C18.7171 12.9766 17.7171 11.927 16.5004 11.927C16.4171 11.927 16.3337 11.927 16.2504 11.9445C16.1337 11.962 16.0337 12.0844 16.0504 12.2069C16.0671 12.3293 16.1837 12.4343 16.3004 12.4168ZM17.6171 14.4984C17.7337 14.4984 17.8337 14.3935 17.8337 14.271C17.8337 13.5013 17.2337 12.8716 16.5171 12.8891C16.4004 12.8891 16.3004 12.9941 16.3004 13.1165C16.3004 13.2389 16.4004 13.3439 16.5171 13.3439C17.0004 13.3439 17.4004 13.7637 17.4004 14.271C17.4004 14.3935 17.5004 14.4984 17.6171 14.4984ZM19.2504 15.1981C19.3837 15.2331 19.5004 15.1457 19.5337 15.0232C19.5837 14.7783 19.6171 14.5159 19.6171 14.271C19.6171 12.4693 18.2171 10.9999 16.5004 10.9999C16.4689 10.9999 16.4337 11.0038 16.3966 11.0079C16.355 11.0125 16.311 11.0174 16.2671 11.0174C16.1504 11.0174 16.0671 11.1398 16.0671 11.2623C16.0671 11.3847 16.1837 11.4722 16.3004 11.4722H16.5004C17.9671 11.4722 19.1671 12.7317 19.1671 14.271C19.1671 14.4984 19.1504 14.7083 19.1004 14.9182C19.0671 15.0407 19.1337 15.1631 19.2504 15.1981Z" fill="black"/>
</svg>
