<svg width="32" height="31" viewBox="0 0 32 31" fill="none" xmlns="http://www.w3.org/2000/svg">
<rect x="0.376953" y="0.0756836" width="30.8109" height="30.8109" rx="15.4055" fill="black"/>
<path d="M17.2337 9.07568H14.5671C12.0004 9.07568 9.90039 11.2798 9.90039 13.9736V16.0728C9.90039 17.962 10.9504 19.6938 12.5671 20.4984V22.8424C12.5671 23.0524 12.8171 23.1573 12.9504 22.9999L14.8837 20.9707H17.2337C19.8004 20.9707 21.9004 18.7666 21.9004 16.0728V13.9736C21.9004 11.2798 19.8004 9.07568 17.2337 9.07568ZM18.9837 18.2594L18.3004 18.9591C17.5837 19.6938 15.7337 18.8541 14.1004 17.1048C12.4671 15.3556 11.7504 13.3964 12.4337 12.6617L13.1004 11.962C13.3504 11.6996 13.7671 11.7171 14.0504 11.9795L15.0171 13.029C15.3671 13.3964 15.2171 14.0261 14.7671 14.1661C14.4504 14.271 14.2337 14.6384 14.3337 14.9707C14.5004 15.7404 15.4337 16.72 16.1337 16.9124C16.4504 16.9824 16.8004 16.8075 16.9171 16.4751C17.0671 16.0028 17.6671 15.8629 18.0004 16.2302L18.9671 17.2798C19.2337 17.5247 19.2337 17.962 18.9837 18.2594ZM16.5004 12.3993C16.4337 12.3993 16.3671 12.3993 16.3004 12.4168C16.1837 12.4343 16.0671 12.3293 16.0504 12.2069C16.0337 12.0844 16.1337 11.962 16.2504 11.9445C16.3337 11.927 16.4171 11.927 16.5004 11.927C17.7171 11.927 18.7171 12.9766 18.7171 14.2535C18.7171 14.341 18.7171 14.4285 18.7004 14.5159C18.6837 14.6384 18.5671 14.7433 18.4504 14.7258C18.3337 14.7083 18.2337 14.5859 18.2504 14.4634C18.2504 14.3935 18.2671 14.3235 18.2671 14.2535C18.2837 13.2389 17.4837 12.3993 16.5004 12.3993ZM17.8337 14.271C17.8337 14.3935 17.7337 14.4984 17.6171 14.4984C17.5004 14.4984 17.4004 14.3935 17.4004 14.271C17.4004 13.7637 17.0004 13.3439 16.5171 13.3439C16.4004 13.3439 16.3004 13.2389 16.3004 13.1165C16.3004 12.9941 16.4004 12.8891 16.5171 12.8891C17.2337 12.8716 17.8337 13.5013 17.8337 14.271ZM19.5337 15.0232C19.5004 15.1457 19.3837 15.2331 19.2504 15.1981C19.1337 15.1631 19.0671 15.0407 19.1004 14.9182C19.1504 14.7083 19.1671 14.4984 19.1671 14.271C19.1671 12.7317 17.9671 11.4722 16.5004 11.4722C16.4337 11.4722 16.3671 11.4722 16.3004 11.4722C16.1837 11.4722 16.0671 11.3847 16.0671 11.2623C16.0671 11.1398 16.1504 11.0174 16.2671 11.0174C16.3504 11.0174 16.4337 10.9999 16.5004 10.9999C18.2171 10.9999 19.6171 12.4693 19.6171 14.271C19.6171 14.5159 19.5837 14.7783 19.5337 15.0232Z" fill="white"/>
</svg>
