<svg width="31" height="31" viewBox="0 0 31 31" fill="none" xmlns="http://www.w3.org/2000/svg">
<path fill-rule="evenodd" clip-rule="evenodd" d="M15.54 0.0759277C7.03194 0.0759277 0.134766 6.97311 0.134766 15.4812C0.134766 23.9893 7.03194 30.8865 15.54 30.8865C24.0481 30.8865 30.9453 23.9893 30.9453 15.4812C30.9453 6.97311 24.0481 0.0759277 15.54 0.0759277ZM13.3569 19.408C12.5897 18.9675 11.996 18.3446 11.4791 17.6404C10.4717 16.2673 9.70016 14.7599 9.0074 13.2092C8.85082 12.8597 8.96515 12.6724 9.34736 12.6656C9.98445 12.653 10.6213 12.6545 11.2575 12.6648C11.5163 12.6691 11.688 12.8179 11.787 13.0637C12.1312 13.9146 12.5524 14.7242 13.081 15.4755C13.2224 15.6755 13.3662 15.8745 13.5699 16.0156C13.7958 16.1722 13.9683 16.121 14.0749 15.8667C14.1427 15.7051 14.1724 15.5332 14.1866 15.3606C14.2373 14.7693 14.2434 14.1774 14.1561 13.5879C14.102 13.2194 13.8947 12.9812 13.5294 12.9115C13.3432 12.8758 13.3712 12.807 13.4608 12.6996C13.6182 12.5151 13.7663 12.4001 14.0598 12.4001H15.4423C15.9883 12.4001 16.6632 12.4358 16.736 12.977L16.7377 15.4398C16.7336 15.5759 16.8055 15.979 17.0483 16.0683C17.2305 16.1289 17.3556 15.9944 17.4667 15.8751C17.4742 15.8671 17.4816 15.8592 17.4889 15.8514C18.0166 15.2882 18.3932 14.6223 18.7297 13.9332C18.8787 13.6303 19.0073 13.3156 19.1325 13.0007C19.2247 12.7677 19.3685 12.6529 19.6298 12.6571L21.7513 12.6597C21.8139 12.6597 21.8782 12.6597 21.9399 12.6699C22.2968 12.732 22.3949 12.8868 22.284 13.2381C22.1174 13.7674 21.7971 14.2127 21.4786 14.6554C21.466 14.673 21.4534 14.6905 21.4408 14.708C21.2742 14.9396 21.1025 15.1673 20.9308 15.3951C20.7373 15.6519 20.5437 15.9088 20.3572 16.1712C20.0359 16.6246 20.0612 16.8527 20.4614 17.2455C20.5785 17.3604 20.6974 17.4736 20.8163 17.5867C21.1481 17.9024 21.4799 18.2182 21.7732 18.5726C21.9492 18.7854 22.1158 19.0049 22.2427 19.2514C22.4228 19.6046 22.2596 19.9916 21.9458 20.013L19.9961 20.0121C19.4928 20.0537 19.0918 19.8496 18.7536 19.5034C18.5735 19.3188 18.4013 19.1255 18.2292 18.9323C18.1442 18.837 18.0594 18.7417 17.9736 18.6475C17.8679 18.5302 17.7561 18.4204 17.6234 18.3329C17.3571 18.1593 17.126 18.212 16.9738 18.491C16.819 18.7752 16.7826 19.0907 16.7683 19.4072C16.7471 19.8691 16.6085 19.9899 16.1475 20.0121C15.1611 20.0581 14.2257 19.9074 13.3569 19.408Z" fill="black"/>
</svg>
