<svg width="31" height="31" viewBox="0 0 31 31" fill="none" xmlns="http://www.w3.org/2000/svg">
<rect x="0.134766" y="0.0759277" width="30.8106" height="30.8106" rx="15.4053" fill="black"/>
<path d="M11.4791 17.6404C11.996 18.3446 12.5897 18.9675 13.3569 19.408C14.2257 19.9074 15.1611 20.0581 16.1475 20.0121C16.6085 19.9899 16.7471 19.8691 16.7683 19.4072C16.7826 19.0907 16.819 18.7752 16.9738 18.491C17.126 18.212 17.3571 18.1593 17.6234 18.3329C17.7561 18.4204 17.8679 18.5302 17.9736 18.6475C18.2332 18.9326 18.4846 19.2277 18.7536 19.5034C19.0918 19.8496 19.4928 20.0537 19.9961 20.0121L21.9458 20.013C22.2596 19.9916 22.4228 19.6046 22.2427 19.2514C22.1158 19.0049 21.9492 18.7854 21.7732 18.5726C21.3748 18.0911 20.9053 17.6811 20.4614 17.2455C20.0612 16.8527 20.0359 16.6246 20.3572 16.1712C20.7091 15.676 21.0863 15.2006 21.4408 14.708C21.7715 14.2479 22.1108 13.7884 22.284 13.2381C22.3949 12.8868 22.2968 12.732 21.9399 12.6699C21.8782 12.6597 21.8139 12.6597 21.7513 12.6597L19.6298 12.6571C19.3685 12.6529 19.2247 12.7677 19.1325 13.0007C19.0073 13.3156 18.8787 13.6303 18.7297 13.9332C18.3932 14.6223 18.0166 15.2882 17.4889 15.8514C17.3722 15.9755 17.2427 16.133 17.0483 16.0683C16.8055 15.979 16.7336 15.5759 16.7377 15.4398L16.736 12.977V12.977C16.6632 12.4358 15.9883 12.4001 15.4423 12.4001H14.0598C13.7663 12.4001 13.6182 12.5151 13.4608 12.6996C13.3712 12.807 13.3432 12.8758 13.5294 12.9115C13.8947 12.9812 14.102 13.2194 14.1561 13.5879C14.2434 14.1774 14.2373 14.7693 14.1866 15.3606C14.1724 15.5333 14.1427 15.7051 14.0749 15.8667C13.9683 16.121 13.7958 16.1722 13.5699 16.0156C13.3662 15.8745 13.2224 15.6755 13.081 15.4755C12.5524 14.7242 12.1312 13.9146 11.787 13.0637C11.688 12.8179 11.5163 12.6691 11.2575 12.6648C10.6213 12.6545 9.98445 12.653 9.34736 12.6656C8.96515 12.6724 8.85082 12.8597 9.0074 13.2092C9.70016 14.7599 10.4717 16.2673 11.4791 17.6404Z" fill="white"/>
</svg>
