<svg width="31" height="31" viewBox="0 0 31 31" fill="none" xmlns="http://www.w3.org/2000/svg">
<path fill-rule="evenodd" clip-rule="evenodd" d="M15.593 0.0756836C7.08477 0.0756836 0.1875 6.97295 0.1875 15.4812C0.1875 23.9894 7.08477 30.8866 15.593 30.8866C24.1012 30.8866 30.9984 23.9894 30.9984 15.4812C30.9984 6.97295 24.1012 0.0756836 15.593 0.0756836ZM15.7152 9.07568H15.7184C19.3024 9.07568 22.2168 11.9917 22.2168 15.5757C22.2168 19.1596 19.3024 22.0757 15.7184 22.0757C14.3965 22.0757 13.1704 21.6824 12.1426 21.0016L9.64417 21.8002L10.4542 19.3855C9.67505 18.3154 9.2168 16.9976 9.2168 15.5757C9.2168 11.9909 12.1312 9.07568 15.7152 9.07568ZM18.225 19.1718C18.7214 19.0646 19.3438 18.6973 19.5006 18.2545C19.6574 17.8109 19.6574 17.4331 19.6119 17.3526C19.5752 17.2888 19.4883 17.247 19.3586 17.1845C19.3249 17.1683 19.2882 17.1506 19.2487 17.1308C19.0578 17.0357 18.1291 16.5767 17.9536 16.5157C17.7814 16.4507 17.6172 16.4735 17.4872 16.6571C17.4625 16.6917 17.4378 16.7264 17.4133 16.7609C17.2565 16.9815 17.1052 17.1943 16.9794 17.3299C16.8649 17.4517 16.678 17.4672 16.5212 17.4022C16.5041 17.3951 16.4845 17.3871 16.4625 17.3783C16.2143 17.278 15.6635 17.0556 14.9969 16.4621C14.4347 15.9616 14.0528 15.3384 13.9423 15.1516C13.8338 14.9641 13.9274 14.8542 14.0139 14.7526L14.0187 14.7469C14.0744 14.6779 14.1285 14.6205 14.1829 14.5628C14.2221 14.5212 14.2613 14.4795 14.3014 14.4333C14.3074 14.4264 14.3132 14.4198 14.3188 14.4133C14.404 14.3154 14.4547 14.257 14.5119 14.1351C14.5769 14.0092 14.5305 13.8792 14.4842 13.7833C14.4524 13.7162 14.2555 13.2386 14.0866 12.8286C14.0143 12.6532 13.947 12.4901 13.9 12.3769C13.7741 12.0754 13.6782 12.0641 13.4873 12.0559C13.4814 12.0556 13.4755 12.0553 13.4695 12.055C13.4092 12.052 13.3427 12.0486 13.2695 12.0486C13.0209 12.0486 12.7617 12.1217 12.6049 12.2818C12.5994 12.2874 12.5937 12.2932 12.5878 12.2992C12.3872 12.5033 11.9403 12.9578 11.9403 13.8637C11.9403 14.7715 12.5844 15.65 12.7035 15.8125C12.7068 15.817 12.7097 15.8209 12.7122 15.8243C12.7193 15.8337 12.7329 15.8533 12.7525 15.8818C12.9959 16.2342 14.181 17.9505 15.9484 18.6827C17.4417 19.3018 17.8854 19.2441 18.225 19.1718Z" fill="black"/>
</svg>
