<svg width="31" height="31" viewBox="0 0 31 31" fill="none" xmlns="http://www.w3.org/2000/svg">
<rect x="0.1875" y="0.0756836" width="30.8109" height="30.8109" rx="15.4055" fill="black"/>
<path d="M15.7184 9.07568H15.7152C12.1312 9.07568 9.2168 11.9909 9.2168 15.5757C9.2168 16.9976 9.67505 18.3154 10.4542 19.3855L9.64417 21.8002L12.1426 21.0016C13.1704 21.6824 14.3965 22.0757 15.7184 22.0757C19.3024 22.0757 22.2168 19.1596 22.2168 15.5757C22.2168 11.9917 19.3024 9.07568 15.7184 9.07568ZM19.5006 18.2545C19.3438 18.6973 18.7214 19.0646 18.225 19.1718C17.8854 19.2441 17.4417 19.3018 15.9484 18.6827C14.0382 17.8913 12.808 15.9502 12.7122 15.8243C12.6204 15.6984 11.9403 14.7965 11.9403 13.8637C11.9403 12.931 12.414 12.4768 12.6049 12.2818C12.7617 12.1217 13.0209 12.0486 13.2695 12.0486C13.35 12.0486 13.4223 12.0527 13.4873 12.0559C13.6782 12.0641 13.7741 12.0754 13.9 12.3769C14.0569 12.7547 14.4387 13.6874 14.4842 13.7833C14.5305 13.8792 14.5769 14.0092 14.5119 14.1351C14.4509 14.2651 14.3973 14.3228 14.3014 14.4333C14.2055 14.5438 14.1145 14.6283 14.0187 14.7469C13.9309 14.8501 13.8318 14.9606 13.9423 15.1516C14.0528 15.3384 14.4347 15.9616 14.9969 16.4621C15.7225 17.1081 16.3107 17.3144 16.5212 17.4022C16.678 17.4672 16.8649 17.4517 16.9794 17.3299C17.1249 17.1731 17.3044 16.9131 17.4872 16.6571C17.6172 16.4735 17.7814 16.4507 17.9536 16.5157C18.1291 16.5767 19.0578 17.0357 19.2487 17.1308C19.4397 17.2267 19.5656 17.2722 19.6119 17.3526C19.6574 17.4331 19.6574 17.8109 19.5006 18.2545Z" fill="white"/>
</svg>
