<svg width="20" height="20" viewBox="0 0 20 20" fill="none" xmlns="http://www.w3.org/2000/svg">
<path d="M10 20C15.5228 20 20 15.5228 20 10C20 4.47715 15.5228 0 10 0C4.47715 0 0 4.47715 0 10C0 15.5228 4.47715 20 10 20Z" fill="#1F7AEF"/>
<path d="M11.5619 19.8785V12.9694H13.8921L14.3351 10.0605H11.562V8.17319C11.562 7.37667 11.9502 6.60135 13.1919 6.60135H14.4533V4.12537C14.4533 4.12537 13.3086 3.92871 12.2145 3.92871C9.93076 3.92871 8.43726 5.32232 8.43726 7.84355V10.0606H5.89746V12.9695H8.43726V19.8784C8.94636 19.9583 9.46816 19.9998 9.99956 19.9998C10.5311 19.9998 11.0529 19.9583 11.5619 19.8785Z" fill="white"/>
</svg>
