<svg width="20" height="20" viewBox="0 0 20 20" fill="none" xmlns="http://www.w3.org/2000/svg">
<path fill-rule="evenodd" clip-rule="evenodd" d="M10 5C12.761 5 15 7.23858 15 10C15 12.7614 12.761 15 10 15C7.239 15 5 12.7614 5 10C5 7.23858 7.239 5 10 5ZM10 7.5C11.381 7.5 12.5 8.61929 12.5 10C12.5 11.3807 11.381 12.5 10 12.5C8.619 12.5 7.5 11.3807 7.5 10C7.5 8.61929 8.619 7.5 10 7.5Z" fill="url(#paint0_linear_3112_21235)"/>
<path fill-rule="evenodd" clip-rule="evenodd" d="M6.66699 0C2.98499 0 0 2.98477 0 6.66667V13.3333C0 17.0152 2.98499 20 6.66699 20H13.333C17.015 20 20 17.0152 20 13.3333V6.66667C20 2.98477 17.015 0 13.333 0H6.66699ZM13.333 2.5H6.66699C4.36499 2.5 2.5 4.36548 2.5 6.66667V13.3333C2.5 15.6345 4.36499 17.5 6.66699 17.5H13.333C15.635 17.5 17.5 15.6345 17.5 13.3333V6.66667C17.5 5.63203 17.123 4.68546 16.499 3.95693C16.605 4.14111 16.667 4.35508 16.667 4.58333C16.667 5.27369 16.107 5.83333 15.417 5.83333C14.726 5.83333 14.167 5.27369 14.167 4.58333C14.167 3.89298 14.726 3.33333 15.417 3.33333C15.645 3.33333 15.859 3.39451 16.043 3.50137C15.315 2.87711 14.368 2.5 13.333 2.5Z" fill="url(#paint1_linear_3112_21235)"/>
<defs>
<linearGradient id="paint0_linear_3112_21235" x1="15.001" y1="3.03547e-07" x2="4.999" y2="20" gradientUnits="userSpaceOnUse">
<stop stop-color="#9E42B4"/>
<stop offset="0.067" stop-color="#9E42B4"/>
<stop offset="0.473" stop-color="#E5566F"/>
<stop offset="1" stop-color="#FDC76D"/>
</linearGradient>
<linearGradient id="paint1_linear_3112_21235" x1="15.001" y1="8.00747e-08" x2="4.999" y2="20" gradientUnits="userSpaceOnUse">
<stop stop-color="#9E42B4"/>
<stop offset="0.067" stop-color="#9E42B4"/>
<stop offset="0.473" stop-color="#E5566F"/>
<stop offset="1" stop-color="#FDC76D"/>
</linearGradient>
</defs>
</svg>
