<svg width="20" height="17" viewBox="0 0 20 17" fill="none" xmlns="http://www.w3.org/2000/svg">
<path fill-rule="evenodd" clip-rule="evenodd" d="M1.37486 7.31839C6.74386 4.9193 10.3239 3.33767 12.1149 2.5735C17.2289 0.391664 18.2919 0.0126532 18.9849 0.000133187C19.1369 -0.00261681 19.4779 0.0361132 19.6979 0.219743C19.8849 0.374803 19.9359 0.584263 19.9599 0.731283C19.9849 0.878293 20.0149 1.21319 19.9909 1.47487C19.7139 4.46165 18.5149 11.7098 17.9049 15.055C17.6459 16.4705 17.1379 16.9451 16.6459 16.9916C15.5769 17.0925 14.7639 16.2667 13.7289 15.5702C12.1079 14.4805 11.1919 13.8021 9.61886 12.7387C7.80086 11.5097 8.97886 10.8343 10.0149 9.7304C10.2869 9.4415 14.9989 5.04547 15.0899 4.64668C15.1009 4.59681 15.1119 4.41089 15.0039 4.31273C14.8969 4.21456 14.7379 4.24813 14.6229 4.27483C14.4599 4.31267 11.8709 6.06807 6.85486 9.541C6.11986 10.0587 5.45386 10.3109 4.85786 10.2977C4.19986 10.2831 2.93486 9.9163 1.99486 9.6028C0.841855 9.2183 -0.0751352 9.015 0.0048648 8.362C0.0458648 8.0218 0.50286 7.67397 1.37486 7.31839Z" fill="#24A1DE"/>
</svg>
