<svg width="18" height="20" viewBox="0 0 18 20" fill="none" xmlns="http://www.w3.org/2000/svg">
<path d="M17.9902 5.0077C16.8192 5.0077 15.7392 4.629 14.8712 3.9901C13.8762 3.2578 13.1612 2.1834 12.9092 0.9452C12.8462 0.6393 12.8122 0.3235 12.8092 0H9.46422V8.9231L9.46023 13.8108C9.46023 15.1175 8.58824 16.2254 7.38024 16.6151C7.02924 16.7282 6.65125 16.7818 6.25625 16.7606C5.75325 16.7336 5.28124 16.5854 4.87124 16.3459C3.99924 15.8365 3.40722 14.9125 3.39122 13.8554C3.36622 12.2032 4.73422 10.8562 6.42522 10.8562C6.75922 10.8562 7.08024 10.9094 7.38024 11.006V8.5671V7.6904C7.06324 7.6446 6.74124 7.6207 6.41524 7.6207C4.56424 7.6207 2.83323 8.3719 1.59523 9.7252C0.660234 10.7478 0.0992266 12.0526 0.0122266 13.4207C-0.100773 15.218 0.573231 16.9265 1.87923 18.187C2.07123 18.3721 2.27323 18.5438 2.48323 18.7023C3.60423 19.5438 4.97324 20 6.41524 20C6.74124 20 7.06324 19.9765 7.38024 19.9308C8.72724 19.7359 9.97123 19.1338 10.9522 18.187C12.1572 17.0239 12.8232 15.4797 12.8302 13.8362L12.8132 6.5374C13.3882 6.9705 14.0172 7.3289 14.6922 7.607C15.7422 8.0394 16.8552 8.2584 18.0002 8.2581V5.8868V5.0069C18.0012 5.0077 17.9912 5.0077 17.9902 5.0077Z" fill="white"/>
</svg>
