<svg width="20" height="17" viewBox="0 0 20 17" fill="none" xmlns="http://www.w3.org/2000/svg">
<path fill-rule="evenodd" clip-rule="evenodd" d="M9.6293 5.28295C9.6293 5.28295 9.9937 0.10974 13.5824 0.06493C16.5037 0.0263 17.0633 1.35976 17.0633 1.35976C17.9453 1.08904 18.7609 0.63528 19.4573 0.0278201C19.3944 0.89157 19.0502 1.71045 18.4778 2.35793C19.0336 2.35415 19.571 2.15831 20 1.80325C19.8875 2.22027 19.6866 2.60792 19.4111 2.93968C19.1357 3.27145 18.7922 3.53947 18.4041 3.72543C18.5872 6.95994 17.7241 10.1672 15.944 12.8682C13.3301 16.6832 8.5761 16.9676 5.9684 17C3.8815 16.876 1.8492 16.2807 0.0226985 15.2586C0.0226985 15.2586 3.9788 15.308 5.75 14.007C4.3477 13.0434 3.0354 11.9537 1.8293 10.7513C2.3071 10.7913 2.7883 10.7426 3.2485 10.6076C1.9826 9.2617 0.897001 7.75532 0.0196009 6.12665C0.509401 6.22462 1.0108 6.25063 1.508 6.20389C1.508 6.20389 -0.798295 2.44137 0.293405 0C0.293405 0.00618 4.191 4.95383 9.6293 5.28295Z" fill="#1DA1F2"/>
</svg>
