<svg width="20" height="20" viewBox="0 0 20 20" fill="none" xmlns="http://www.w3.org/2000/svg">
<path fill-rule="evenodd" clip-rule="evenodd" d="M1.40589 1.40589C0 2.81177 0 5.0745 0 9.6V10.4C0 14.9255 0 17.1882 1.40589 18.5941C2.81177 20 5.0745 20 9.6 20H10.4C14.9255 20 17.1882 20 18.5941 18.5941C20 17.1882 20 14.9255 20 10.4V9.6C20 5.0745 20 2.81177 18.5941 1.40589C17.1882 0 14.9255 0 10.4 0H9.6C5.0745 0 2.81177 0 1.40589 1.40589Z" fill="#0077FF"/>
<path fill-rule="evenodd" clip-rule="evenodd" d="M3.375 6.08301C3.48333 11.283 6.08329 14.408 10.6416 14.408H10.9V11.433C12.575 11.5996 13.8416 12.8246 14.3499 14.408H16.7167C16.0667 12.0413 14.3583 10.733 13.2916 10.233C14.3583 9.61635 15.8582 8.11635 16.2166 6.08301H14.0665C13.5999 7.73301 12.2167 9.23301 10.9 9.37468V6.08301H8.74996V11.8496C7.41663 11.5163 5.73333 9.89968 5.65833 6.08301H3.375Z" fill="white"/>
</svg>
