<svg width="20" height="20" viewBox="0 0 20 20" fill="none" xmlns="http://www.w3.org/2000/svg">
<path fill-rule="evenodd" clip-rule="evenodd" d="M0 20L1.41299 14.8644C0.539994 13.3579 0.0809926 11.6489 0.0829926 9.90985C0.0859926 4.44562 4.55301 0 10.042 0C11.35 0.000231519 12.645 0.25697 13.854 0.755551C15.063 1.25413 16.161 1.98479 17.085 2.90578C18.01 3.82677 18.743 4.92005 19.244 6.12318C19.744 7.3263 20.001 8.6157 20 9.91771C19.998 15.3821 15.53 19.8281 10.042 19.8281H10.038C8.37499 19.8281 6.73901 19.4134 5.27901 18.6219L0 20ZM5.52299 16.8277L5.826 17.0062C7.101 17.758 8.55599 18.1546 10.038 18.1544H10.042C14.604 18.1544 18.317 14.4591 18.319 9.91714C18.319 8.83525 18.106 7.76383 17.69 6.76405C17.275 5.76428 16.666 4.85573 15.897 4.09027C15.129 3.32482 14.217 2.71745 13.213 2.30285C12.209 1.88825 11.132 1.67454 10.045 1.67391C5.48 1.67391 1.767 5.36882 1.765 9.91047C1.763 11.4613 2.201 12.9811 3.03 14.2942L3.22701 14.6059L2.39101 17.6455L5.52299 16.8277ZM15.059 12.2746C14.996 12.1713 14.831 12.1093 14.582 11.9854C14.333 11.8614 13.11 11.2624 12.882 11.1797C12.654 11.0969 12.488 11.0557 12.322 11.3036C12.156 11.5515 11.679 12.1093 11.534 12.2746C11.389 12.4398 11.244 12.4605 10.995 12.3366C10.746 12.2126 9.944 11.9511 8.994 11.1075C8.254 10.4508 7.755 9.63995 7.61 9.39203C7.464 9.14412 7.59399 9.0101 7.71899 8.88667C7.83099 8.77567 7.968 8.59741 8.092 8.45281C8.216 8.30821 8.258 8.20489 8.341 8.0397C8.424 7.8745 8.38201 7.7298 8.32001 7.60584C8.25801 7.48188 7.75999 6.26294 7.55299 5.76711C7.35099 5.28429 7.146 5.34966 6.993 5.34203C6.848 5.33488 6.68201 5.33331 6.51601 5.33331C6.39001 5.33659 6.26599 5.36581 6.15199 5.41915C6.03799 5.47248 5.936 5.54877 5.853 5.6432C5.625 5.89112 4.98199 6.49022 4.98199 7.70901C4.98199 8.92781 5.873 10.1054 5.998 10.2707C6.122 10.436 7.752 12.9371 10.248 14.0098C10.712 14.2085 11.185 14.3826 11.667 14.5314C12.263 14.7199 12.805 14.6935 13.234 14.6296C13.712 14.5585 14.706 14.0305 14.914 13.452C15.121 12.8734 15.121 12.3777 15.059 12.2744V12.2746Z" fill="#34D36A"/>
</svg>
