<svg width="20" height="20" viewBox="0 0 20 20" fill="none" xmlns="http://www.w3.org/2000/svg">
<path d="M19.9998 10.2998C15.9468 10.3503 13.6688 10.6275 12.1478 12.1481C10.6278 13.6686 10.3498 15.947 10.2998 19.9999C15.5868 19.8443 19.8438 15.5867 19.9998 10.2998Z" fill="white"/>
<path d="M9.7 19.9999C9.65 15.947 9.372 13.6686 7.85201 12.1481C6.331 10.6275 4.053 10.3503 0 10.2998C0.156 15.5867 4.413 19.8443 9.7 19.9999Z" fill="white"/>
<path d="M19.9998 9.7001C19.8438 4.4132 15.5868 0.1556 10.2998 0C10.3498 4.0529 10.6278 6.3313 12.1478 7.8518C13.6688 9.3724 15.9468 9.6496 19.9998 9.7001Z" fill="white"/>
<path d="M9.7 0C4.413 0.1556 0.156 4.4132 0 9.7001C4.053 9.6496 6.331 9.3724 7.85201 7.8518C9.372 6.3313 9.65 4.0529 9.7 0Z" fill="white"/>
</svg>
