<svg width="20" height="20" viewBox="0 0 20 20" fill="none" xmlns="http://www.w3.org/2000/svg">
<path d="M10 20C15.5228 20 20 15.5228 20 10C20 4.47715 15.5228 0 10 0C4.47715 0 0 4.47715 0 10C0 15.5228 4.47715 20 10 20Z" fill="#222222"/>
<path d="M19.996 10.2999C19.999 10.2003 20 10.1003 20 10C20 9.89967 19.999 9.79969 19.996 9.70007C15.945 9.64938 13.668 9.37189 12.148 7.85183C10.628 6.33183 10.351 4.05453 10.3 0.00441197C10.2 0.00147752 10.1 0 10 0C9.9 0 9.8 0.00147752 9.7 0.00441197C9.649 4.05453 9.372 6.33183 7.85201 7.85183C6.33201 9.37189 4.055 9.64944 0.0039978 9.70007C0.000997803 9.79969 0 9.89967 0 10C0 10.1003 0.000997803 10.2003 0.0039978 10.2999C4.055 10.3506 6.33201 10.6282 7.85201 12.1482C9.372 13.6682 9.649 15.9455 9.7 19.9956C9.8 19.9985 9.9 20 10 20C10.1 20 10.2 19.9985 10.3 19.9956C10.351 15.9455 10.628 13.6682 12.148 12.1482C13.668 10.6282 15.945 10.3506 19.996 10.2999Z" fill="white"/>
</svg>
